<?xml version="1.0" standalone="no"?>
<!DOCTYPE svg PUBLIC "-//W3C//DTD SVG 20010904//EN"
 "http://www.w3.org/TR/2001/REC-SVG-20010904/DTD/svg10.dtd">
<svg version="1.0" xmlns="http://www.w3.org/2000/svg"
 width="700.000000pt" height="700.000000pt" viewBox="0 0 700.000000 700.000000"
 preserveAspectRatio="xMidYMid meet">
<metadata>
Created by potrace 1.11, written by Peter Selinger 2001-2013
</metadata>
<g transform="translate(0.000000,700.000000) scale(0.100000,-0.100000)"
fill="#000000" stroke="none">
<path d="M4285 6954 c-150 -21 -192 -28 -270 -49 -49 -13 -251 -83 -449 -155
l-358 -130 -732 0 c-609 0 -747 -3 -826 -15 -607 -99 -1096 -555 -1235 -1154
-12 -48 -28 -81 -68 -135 -201 -269 -300 -565 -301 -901 -1 -259 17 -335 198
-825 l131 -355 6 -785 c6 -868 2 -816 75 -1040 110 -340 359 -646 678 -832 93
-55 257 -121 380 -154 88 -23 111 -34 195 -95 174 -125 378 -213 601 -260 82
-17 140 -22 270 -23 266 -1 338 16 830 198 l355 131 785 6 c754 5 789 6 875
26 191 45 375 124 522 222 316 213 530 515 629 886 23 86 35 111 90 188 273
379 359 849 238 1290 -10 34 -76 222 -148 417 l-131 355 -6 785 c-6 862 -2
813 -71 1030 -117 374 -405 706 -763 884 -107 53 -250 105 -350 126 -30 7 -69
26 -100 49 -197 151 -432 255 -670 296 -89 16 -322 27 -380 19z m-350 -1057
c144 -75 255 -217 255 -328 0 -63 -22 -119 -150 -391 -60 -126 -104 -228 -98
-228 5 0 196 72 424 160 227 88 418 160 423 160 12 0 31 -79 31 -127 0 -90
-51 -190 -122 -239 -22 -16 -255 -112 -517 -214 l-476 -185 -67 -130 c-50 -96
-365 -785 -397 -869 -2 -6 65 59 150 145 288 292 519 455 756 535 61 21 99 27
173 28 268 3 409 -111 412 -334 1 -63 -4 -90 -34 -170 -99 -263 -160 -408
-377 -893 -169 -379 -233 -572 -265 -806 -22 -155 -21 -184 8 -218 63 -73 222
-3 505 224 112 90 140 100 167 58 25 -38 14 -141 -20 -199 -30 -51 -173 -187
-291 -276 -102 -77 -240 -146 -330 -165 -89 -19 -109 -19 -203 1 -149 30 -263
115 -322 239 -78 163 -79 341 -4 644 50 202 114 382 275 769 204 487 242 613
209 691 -14 35 -38 45 -83 36 -108 -24 -269 -149 -566 -440 -322 -316 -457
-501 -605 -825 -109 -240 -225 -691 -251 -975 -12 -143 -10 -138 -60 -133 -87
10 -280 131 -325 203 -25 40 -26 100 -5 262 67 516 257 1044 711 1965 101 205
182 373 181 374 -1 2 -230 -85 -507 -192 -278 -108 -509 -196 -514 -197 -18
-4 -37 87 -32 150 8 99 72 198 155 243 18 9 873 342 1059 412 52 19 54 21 93
106 176 376 354 810 421 1027 24 77 47 145 51 152 10 17 66 -1 162 -50z"/>
</g>
</svg>
