<svg version="1.0" xmlns="http://www.w3.org/2000/svg" width="933.333" height="933.333" viewBox="0 0 700 700"><path d="M428.5 4.6c-15 2.1-19.2 2.8-27 4.9-4.9 1.3-25.1 8.3-44.9 15.5l-35.8 13h-73.2c-60.9 0-74.7.3-82.6 1.5C104.3 49.4 55.4 95 41.5 154.9c-1.2 4.8-2.8 8.1-6.8 13.5-20.1 26.9-30 56.5-30.1 90.1-.1 25.9 1.7 33.5 19.8 82.5l13.1 35.5.6 78.5c.6 86.8.2 81.6 7.5 104 11 34 35.9 64.6 67.8 83.2 9.3 5.5 25.7 12.1 38 15.4 8.8 2.3 11.1 3.4 19.5 9.5 17.4 12.5 37.8 21.3 60.1 26 8.2 1.7 14 2.2 27 2.3 26.6.1 33.8-1.6 83-19.8l35.5-13.1 78.5-.6c75.4-.5 78.9-.6 87.5-2.6 19.1-4.5 37.5-12.4 52.2-22.2 31.6-21.3 53-51.5 62.9-88.6 2.3-8.6 3.5-11.1 9-18.8 27.3-37.9 35.9-84.9 23.8-129-1-3.4-7.6-22.2-14.8-41.7l-13.1-35.5-.6-78.5c-.6-86.2-.2-81.3-7.1-103-11.7-37.4-40.5-70.6-76.3-88.4-10.7-5.3-25-10.5-35-12.6-3-.7-6.9-2.6-10-4.9-19.7-15.1-43.2-25.5-67-29.6-8.9-1.6-32.2-2.7-38-1.9zm-35 105.7c14.4 7.5 25.5 21.7 25.5 32.8 0 6.3-2.2 11.9-15 39.1-6 12.6-10.4 22.8-9.8 22.8.5 0 19.6-7.2 42.4-16 22.7-8.8 41.8-16 42.3-16 1.2 0 3.1 7.9 3.1 12.7 0 9-5.1 19-12.2 23.9-2.2 1.6-25.5 11.2-51.7 21.4l-47.6 18.5-6.7 13c-5 9.6-36.5 78.5-39.7 86.9-.2.6 6.5-5.9 15-14.5 28.8-29.2 51.9-45.5 75.6-53.5 6.1-2.1 9.9-2.7 17.3-2.8 26.8-.3 40.9 11.1 41.2 33.4.1 6.3-.4 9-3.4 17-9.9 26.3-16 40.8-37.7 89.3-16.9 37.9-23.3 57.2-26.5 80.6-2.2 15.5-2.1 18.4.8 21.8 6.3 7.3 22.2.3 50.5-22.4 11.2-9 14-10 16.7-5.8 2.5 3.8 1.4 14.1-2 19.9-3 5.1-17.3 18.7-29.1 27.6-10.2 7.7-24 14.6-33 16.5-8.9 1.9-10.9 1.9-20.3-.1-14.9-3-26.3-11.5-32.2-23.9-7.8-16.3-7.9-34.1-.4-64.4 5-20.2 11.4-38.2 27.5-76.9 20.4-48.7 24.2-61.3 20.9-69.1-1.4-3.5-3.8-4.5-8.3-3.6-10.8 2.4-26.9 14.9-56.6 44-32.2 31.6-45.7 50.1-60.5 82.5-10.9 24-22.5 69.1-25.1 97.5-1.2 14.3-1 13.8-6 13.3-8.7-1-28-13.1-32.5-20.3-2.5-4-2.6-10-.5-26.2 6.7-51.6 25.7-104.4 71.1-196.5 10.1-20.5 18.2-37.3 18.1-37.4-.1-.2-23 8.5-50.7 19.2-27.8 10.8-50.9 19.6-51.4 19.7-1.8.4-3.7-8.7-3.2-15 .8-9.9 7.2-19.8 15.5-24.3 1.8-.9 87.3-34.2 105.9-41.2 5.2-1.9 5.4-2.1 9.3-10.6 17.6-37.6 35.4-81 42.1-102.7 2.4-7.7 4.7-14.5 5.1-15.2 1-1.7 6.6.1 16.2 5z"/></svg>