<svg width="300" height="301" xmlns="http://www.w3.org/2000/svg" xmlns:xlink="http://www.w3.org/1999/xlink"><defs><linearGradient x1="0%" y1="0%" x2="100%" y2="100%" id="a"><stop stop-color="#3E70D3" offset="0%"/><stop stop-color="#093DA4" offset="100%"/></linearGradient><linearGradient x1="50%" y1="0%" x2="50%" y2="99.59%" id="f"><stop stop-color="#8AADFF" offset="0%"/><stop stop-color="#3A6BCC" offset="100%"/></linearGradient><path id="b" d="M.25.3h148.92v137.736H.25z"/><path id="d" d="M0 .104h148.92v137.737H0z"/></defs><g transform="translate(0 .297)" fill="none" fill-rule="evenodd"><path d="m54.55 56.21 127.855-34.488c23.94-6.458 48.581 7.714 55.039 31.654l.038.144 34.393 129.213c6.362 23.904-7.81 48.452-31.693 54.894l-127.855 34.488c-23.94 6.457-48.581-7.715-55.039-31.654a44.918 44.918 0 0 1-.039-.145L22.857 111.104c-6.363-23.905 7.81-48.452 31.693-54.895z" stroke="#093377" stroke-width="2.857" opacity=".1"/><rect fill="#1F273B" x="40.579" y="39.417" width="213.574" height="215.002" rx="44.896"/><path d="m97.496 43.516 99.762.333c29.12.097 52.702 23.68 52.8 52.8l.332 99.762c.098 29.258-23.542 53.055-52.8 53.153h-.353l-99.762-.333c-29.12-.097-52.702-23.68-52.8-52.8l-.333-99.761c-.098-29.259 23.542-53.056 52.8-53.154h.354z" fill="url(#a)" transform="rotate(45 147.366 146.54)"/><g transform="translate(104.864 103.125)"><mask id="c" fill="#fff"><use xlink:href="#b"/></mask><path d="M85.347.3h49.64c7.833 0 14.183 6.392 14.183 14.277v85.667c0 7.886-6.35 14.278-14.183 14.278h-17.729c-1.958 0-3.545 1.598-3.545 3.57v16.368c0 3.18-3.82 4.772-6.053 2.524l-21.275-21.417a3.534 3.534 0 0 0-2.507-1.046H14.432C6.6 114.521.25 108.13.25 100.244V62.772L85.347.3z" fill="#40CF9B" mask="url(#c)"/></g><g transform="translate(41.29 53.348)"><mask id="e" fill="#fff"><use xlink:href="#d"/></mask><path d="M134.737.104H14.183C6.35.104 0 6.497 0 14.382v85.667c0 7.885 6.35 14.277 14.182 14.277h17.729c1.959 0 3.545 1.598 3.545 3.57v16.368c0 3.18 3.82 4.773 6.054 2.524l21.274-21.417a3.534 3.534 0 0 1 2.507-1.045h69.446c7.833 0 14.183-6.392 14.183-14.277V14.382c0-7.885-6.35-14.278-14.183-14.278" fill="#FAFCFF" mask="url(#e)"/></g><path d="M140.63 187.932c.627-3.892 4.269-6.535 8.135-5.905 3.865.632 6.491 4.297 5.864 8.189-.626 3.892-4.268 6.535-8.134 5.904-3.865-.631-6.49-4.297-5.864-8.188" fill="#F9F5F3"/><path d="M79.454 88.173c2.77 2.788 2.77 7.307 0 10.095a7.057 7.057 0 0 1-10.027 0c-2.77-2.788-2.77-7.307 0-10.095a7.057 7.057 0 0 1 10.027 0zm-3.5-73.425c10.521.731 19.002 9.27 19.728 19.861.633 9.24-4.65 17.808-13.144 21.32-.59.244-.988.887-.988 1.6v7.14c.001 3.942-3.173 7.139-7.09 7.139s-7.092-3.197-7.092-7.14V57.53c0-6.54 3.84-12.352 9.783-14.808 2.833-1.172 4.594-4.037 4.382-7.13-.237-3.463-3.116-6.362-6.555-6.6a7.045 7.045 0 0 0-5.355 1.9 7.091 7.091 0 0 0-2.255 5.221c0 3.943-3.174 7.139-7.091 7.139-3.917 0-7.092-3.196-7.092-7.139 0-5.914 2.464-11.621 6.76-15.659a21.282 21.282 0 0 1 16.009-5.706z" fill="url(#f)" transform="translate(41.29 53.034)"/><path d="M204.59 187.529c.902-3.837 4.721-6.211 8.532-5.305 3.81.907 6.17 4.753 5.27 8.589-.902 3.836-4.72 6.21-8.532 5.304-3.81-.907-6.17-4.752-5.27-8.588m-32.054.405c.627-3.892 4.268-6.535 8.134-5.904 3.866.631 6.492 4.297 5.865 8.189-.627 3.891-4.268 6.534-8.134 5.904-3.866-.632-6.491-4.297-5.865-8.189" fill="#F9F5F3"/><path d="m93.881 168.72-17.133 17.248v1.645c0 3.18 3.82 4.773 6.053 2.524l21.274-21.417a3.534 3.534 0 0 1 2.508-1.046H96.388c-.94 0-1.842.376-2.507 1.046m82.147-115.268h-10.194c7.833 0 14.183 6.393 14.183 14.278v85.667c0 7.886-6.35 14.277-14.182 14.277h10.193c7.834 0 14.183-6.392 14.183-14.277V67.73c0-7.885-6.35-14.278-14.183-14.278" fill="#E2EDFB"/><path d="M208.383 221.216v14.724l4.141 4.169c2.234 2.248 6.053.656 6.053-2.524v-16.369c0-1.971 1.588-3.57 3.546-3.57h-10.195c-1.958 0-3.545 1.599-3.545 3.57m31.468-117.792h-10.194c7.833 0 14.183 6.393 14.183 14.278v85.667c0 7.886-6.35 14.277-14.183 14.277h10.194c7.833 0 14.183-6.392 14.183-14.277v-85.667c0-7.885-6.35-14.278-14.183-14.278" fill="#39BA8B"/><path d="m88.418 6.371 8.531 8.588a4.104 4.104 0 0 1 0 5.784l-8.53 8.588a4.104 4.104 0 0 1-5.824 0l-8.53-8.588a4.104 4.104 0 0 1 0-5.784l8.53-8.588a4.104 4.104 0 0 1 5.823 0z" fill="#8AADFF"/><path d="m111.802 2.828 4.156 4.183c.794.8.794 2.092 0 2.892l-4.156 4.183a2.052 2.052 0 0 1-2.911 0l-4.156-4.183a2.052 2.052 0 0 1 0-2.892l4.156-4.183a2.052 2.052 0 0 1 2.911 0z" fill="#1F273B"/><path d="m185.841 280.324 4.156 4.183c.794.8.794 2.092 0 2.892l-4.156 4.183a2.052 2.052 0 0 1-2.911 0l-4.156-4.183a2.052 2.052 0 0 1 0-2.892l4.156-4.183a2.052 2.052 0 0 1 2.911 0z" fill="#8AADFF"/><path d="m30.644 230.157 4.156 4.183c.794.8.794 2.092 0 2.892l-4.156 4.183a2.052 2.052 0 0 1-2.911 0l-4.156-4.183a2.052 2.052 0 0 1 0-2.892l4.156-4.183a2.052 2.052 0 0 1 2.911 0z" fill="#39BA8B"/><path d="m217.986 273.834 8.531 8.588a4.104 4.104 0 0 1 0 5.784l-8.53 8.588a4.104 4.104 0 0 1-5.824 0l-8.53-8.588a4.104 4.104 0 0 1 0-5.784l8.53-8.588a4.104 4.104 0 0 1 5.823 0z" fill-opacity=".5" fill="#39BA8B"/><rect fill-opacity=".5" fill="#39BA8B" x="270.637" y="78.833" width="28.921" height="29.115" rx="7.035"/><rect fill="#1F273B" y="203.536" width="22.781" height="22.934" rx="5.541"/></g></svg>