<svg width="740" height="700" xmlns="http://www.w3.org/2000/svg"><defs><linearGradient x1="50%" y1="118.75%" x2="50%" y2="88.411%" id="a"><stop stop-color="#D1EFE7" offset="0%"/><stop stop-color="#97EFE7" offset="53%"/><stop stop-color="#3CCBE3" offset="100%"/></linearGradient><linearGradient x1="50.045%" y1="99.707%" x2="50.045%" y2="29.825%" id="b"><stop stop-color="#D1EFE7" offset="0%"/><stop stop-color="#97EFE7" offset="53%"/><stop stop-color="#3CCBE3" offset="100%"/></linearGradient><linearGradient x1="44.984%" y1="39.694%" x2="61.147%" y2="72.7%" id="c"><stop stop-color="#D1EFE7" offset="0%"/><stop stop-color="#97EFE7" offset="53%"/><stop stop-color="#3CCBE3" offset="100%"/></linearGradient><linearGradient x1="49.579%" y1="50.828%" x2="39.205%" y2="-18.358%" id="d"><stop stop-color="#D1EFE7" offset="0%"/><stop stop-color="#97EFE7" offset="53%"/><stop stop-color="#3CCBE3" offset="100%"/></linearGradient><linearGradient x1="50.286%" y1="73.578%" x2="50.286%" y2="20.065%" id="e"><stop stop-color="#D1EFE7" offset="0%"/><stop stop-color="#97EFE7" offset="53%"/><stop stop-color="#3CCBE3" offset="100%"/></linearGradient><linearGradient x1="77.224%" y1="172.004%" x2="14.501%" y2="-124.254%" id="f"><stop stop-color="#D1EFE7" offset="0%"/><stop stop-color="#97EFE7" offset="53%"/><stop stop-color="#3CCBE3" offset="100%"/></linearGradient><linearGradient x1="59.78%" y1="84.106%" x2="-40.026%" y2="-183.082%" id="g"><stop stop-color="#D1EFE7" offset="0%"/><stop stop-color="#97EFE7" offset="53%"/><stop stop-color="#3CCBE3" offset="100%"/></linearGradient><linearGradient x1="111%" y1="-234.5%" x2="678%" y2="-2909.5%" id="h"><stop stop-color="#FFF" offset="7%"/><stop stop-color="#D1D3D4" offset="79%"/></linearGradient><linearGradient x1="49.532%" y1="65.667%" x2="93.621%" y2="-120.873%" id="i"><stop stop-color="#D1EFE7" offset="0%"/><stop stop-color="#97EFE7" offset="53%"/><stop stop-color="#3CCBE3" offset="100%"/></linearGradient><linearGradient x1="50.049%" y1="87.831%" x2="50.049%" y2="14.735%" id="j"><stop stop-color="#D1EFE7" offset="0%"/><stop stop-color="#97EFE7" offset="53%"/><stop stop-color="#3CCBE3" offset="100%"/></linearGradient><linearGradient x1="49.275%" y1="156.444%" x2="49.275%" y2="28.444%" id="k"><stop stop-color="#FFF" stop-opacity="0" offset="0%"/><stop offset="100%"/></linearGradient><linearGradient x1="22.67%" y1="64.57%" x2="61.981%" y2="40.646%" id="l"><stop stop-color="#3DB6D3" offset="0%"/><stop stop-color="#3D6FD3" offset="50%"/><stop stop-color="#252784" offset="100%"/></linearGradient><linearGradient x1="-10.776%" y1="92.892%" x2="52.255%" y2="49.678%" id="m"><stop stop-color="#3DB6D3" offset="0%"/><stop stop-color="#3D6FD3" offset="50%"/><stop stop-color="#252784" offset="100%"/></linearGradient><linearGradient x1="6.939%" y1="134.965%" x2="88.571%" y2="-2.645%" id="n"><stop stop-color="#7FF1A4" offset="0%"/><stop stop-color="#2FBCA4" offset="52%"/><stop stop-color="#2F7DA4" offset="100%"/></linearGradient><linearGradient x1=".015%" y1="49.977%" x2="99.968%" y2="49.977%" id="o"><stop stop-color="#182EBD" offset="0%"/><stop stop-color="#0D1226" offset="58%"/></linearGradient><linearGradient x1="27.025%" y1="82.241%" x2="82.052%" y2="5.3%" id="p"><stop stop-color="#182EBD" offset="0%"/><stop stop-color="#0D1226" offset="58%"/></linearGradient><linearGradient x1="142.634%" y1="-31.027%" x2="21.088%" y2="82.646%" id="q"><stop stop-color="#F9D5C5" offset="0%"/><stop stop-color="#F78E6B" offset="100%"/></linearGradient><linearGradient x1="143.589%" y1="46.258%" x2="-35.648%" y2="54.404%" id="r"><stop stop-color="#13BEB0" offset="0%"/><stop stop-color="#136690" offset="50%"/><stop stop-color="#0D1226" offset="92%"/></linearGradient><linearGradient x1="127.282%" y1="69.231%" x2="-2.056%" y2="38.866%" id="s"><stop stop-color="#13BEB0" offset="0%"/><stop stop-color="#136690" offset="50%"/><stop stop-color="#0D1226" offset="92%"/></linearGradient><linearGradient x1="106.173%" y1="77.138%" x2="-8.479%" y2="21.375%" id="t"><stop stop-color="#13BEB0" offset="0%"/><stop stop-color="#136690" offset="50%"/><stop stop-color="#0D1226" offset="92%"/></linearGradient><linearGradient x1="98.209%" y1="63.866%" x2="15.917%" y2="40.651%" id="u"><stop stop-color="#13BEB0" offset="0%"/><stop stop-color="#136690" offset="50%"/><stop stop-color="#0D1226" offset="92%"/></linearGradient><linearGradient x1="63.603%" y1=".162%" x2="35.071%" y2="113.558%" id="v"><stop stop-color="#13BEB0" offset="0%"/><stop stop-color="#136690" offset="50%"/><stop stop-color="#0D1226" offset="92%"/></linearGradient><linearGradient x1="89.492%" y1="81.957%" x2="2.734%" y2=".508%" id="w"><stop stop-color="#F9D5C5" offset="0%"/><stop stop-color="#F78E6B" offset="100%"/></linearGradient><linearGradient x1="-27.82%" y1="134.908%" x2="106.203%" y2="7.031%" id="x"><stop stop-color="#F9D5C5" offset="0%"/><stop stop-color="#F78E6B" offset="100%"/></linearGradient><linearGradient x1="274.138%" y1="417.529%" x2="94.54%" y2="122.989%" id="y"><stop stop-color="#182EBD" offset="0%"/><stop stop-color="#0D1226" offset="58%"/></linearGradient><linearGradient x1="106.25%" y1="233.554%" x2="-17.188%" y2="-169.965%" id="z"><stop stop-color="#7FF1A4" offset="0%"/><stop stop-color="#2FBCA4" offset="52%"/><stop stop-color="#2F7DA4" offset="100%"/></linearGradient><linearGradient x1="126.975%" y1="99.422%" x2="1.869%" y2="8.381%" id="A"><stop stop-color="#F9D5C5" offset="0%"/><stop stop-color="#F78E6B" offset="100%"/></linearGradient><linearGradient x1="72.135%" y1="156.656%" x2="41.782%" y2="-8.45%" id="B"><stop stop-color="#F9D5C5" offset="0%"/><stop stop-color="#F78E6B" offset="100%"/></linearGradient><linearGradient x1="111.466%" y1="167.592%" x2="13.583%" y2="-17.518%" id="C"><stop stop-color="#182EBD" offset="0%"/><stop stop-color="#0D1226" offset="58%"/></linearGradient><linearGradient x1="137.5%" y1="174.769%" x2="42.226%" y2="47.43%" id="D"><stop stop-color="#182EBD" offset="0%"/><stop stop-color="#0D1226" offset="58%"/></linearGradient><linearGradient x1="12.054%" y1="102.952%" x2="84.086%" y2="-14.205%" id="E"><stop stop-color="#F9D5C5" offset="0%"/><stop stop-color="#F78E6B" offset="100%"/></linearGradient><linearGradient x1="35.019%" y1="45.094%" x2="121.345%" y2="95.88%" id="F"><stop stop-color="#13BEB0" offset="0%"/><stop stop-color="#136690" offset="50%"/><stop stop-color="#0D1226" offset="92%"/></linearGradient><linearGradient x1="26.928%" y1="31.804%" x2="122.849%" y2="115.927%" id="G"><stop stop-color="#13BEB0" offset="0%"/><stop stop-color="#136690" offset="50%"/><stop stop-color="#0D1226" offset="92%"/></linearGradient><linearGradient x1="1.301%" y1="43.646%" x2="123.808%" y2="67%" id="H"><stop stop-color="#13BEB0" offset="0%"/><stop stop-color="#136690" offset="50%"/><stop stop-color="#0D1226" offset="92%"/></linearGradient><linearGradient x1="84.392%" y1="7.477%" x2="-53.264%" y2="211.571%" id="I"><stop stop-color="#13BEB0" offset="0%"/><stop stop-color="#136690" offset="50%"/><stop stop-color="#0D1226" offset="92%"/></linearGradient><linearGradient x1="68.224%" y1="96.161%" x2="210.28%" y2="430.769%" id="J"><stop stop-color="#13BEB0" offset="0%"/><stop stop-color="#136690" offset="50%"/><stop stop-color="#0D1226" offset="92%"/></linearGradient><linearGradient x1="-508.607%" y1="167.882%" x2="-152.607%" y2="92.882%" id="K"><stop stop-color="#F9D5C5" offset="0%"/><stop stop-color="#F78E6B" offset="100%"/></linearGradient><linearGradient x1="0%" y1="50.471%" x2="100.155%" y2="50.471%" id="L"><stop stop-color="#F9D5C5" offset="0%"/><stop stop-color="#F78E6B" offset="100%"/></linearGradient><linearGradient x1="-293.585%" y1="139.132%" x2="-99.245%" y2="89.84%" id="M"><stop stop-color="#F9D5C5" offset="0%"/><stop stop-color="#F78E6B" offset="100%"/></linearGradient><linearGradient x1="157.297%" y1="75.229%" x2="-55.676%" y2="16.352%" id="N"><stop stop-color="#7FF1A4" offset="0%"/><stop stop-color="#2FBCA4" offset="52%"/><stop stop-color="#2F7DA4" offset="100%"/></linearGradient><linearGradient x1="310.054%" y1="120.745%" x2="-98.641%" y2="2.45%" id="O"><stop stop-color="#7FF1A4" offset="0%"/><stop stop-color="#2FBCA4" offset="52%"/><stop stop-color="#2F7DA4" offset="100%"/></linearGradient><linearGradient x1="50.013%" y1="87.819%" x2="50.013%" y2="14.732%" id="P"><stop stop-color="#D1EFE7" offset="0%"/><stop stop-color="#97EFE7" offset="53%"/><stop stop-color="#3CCBE3" offset="100%"/></linearGradient><linearGradient x1="48.561%" y1="159.111%" x2="48.561%" y2="24%" id="Q"><stop stop-color="#FFF" stop-opacity="0" offset="0%"/><stop offset="100%"/></linearGradient><linearGradient x1="-3.872%" y1="77.904%" x2="109.885%" y2="19.931%" id="R"><stop stop-color="#182EBD" offset="0%"/><stop stop-color="#0D1226" offset="58%"/></linearGradient><linearGradient x1="1.614%" y1="103.914%" x2="63.66%" y2="37.093%" id="S"><stop stop-color="#7FF1A4" offset="0%"/><stop stop-color="#2FBCA4" offset="52%"/><stop stop-color="#2F7DA4" offset="100%"/></linearGradient><linearGradient x1="28.832%" y1="197.646%" x2="44.17%" y2="91.814%" id="T"><stop stop-color="#7FF1A4" offset="0%"/><stop stop-color="#2FBCA4" offset="52%"/><stop stop-color="#2F7DA4" offset="100%"/></linearGradient><linearGradient x1="21.422%" y1="-13.508%" x2="-81.16%" y2="-248.457%" id="U"><stop stop-color="#13BEB0" offset="0%"/><stop stop-color="#136690" offset="50%"/><stop stop-color="#0D1226" offset="92%"/></linearGradient><linearGradient x1="34.452%" y1="53.61%" x2="57.246%" y2="48.316%" id="V"><stop stop-color="#3DB6D3" offset="0%"/><stop stop-color="#3D6FD3" offset="50%"/><stop stop-color="#252784" offset="100%"/></linearGradient><linearGradient x1="82.438%" y1="171.408%" x2="54.764%" y2="71.44%" id="W"><stop stop-color="#3DB6D3" offset="0%"/><stop stop-color="#3D6FD3" offset="50%"/><stop stop-color="#252784" offset="100%"/></linearGradient><linearGradient x1="53.195%" y1="-6.446%" x2="43.614%" y2="173.036%" id="X"><stop stop-color="#7FF1A4" offset="0%"/><stop stop-color="#2FBCA4" offset="52%"/><stop stop-color="#2F7DA4" offset="100%"/></linearGradient><linearGradient x1="49.475%" y1="-6.43%" x2="50.687%" y2="130.969%" id="Y"><stop stop-color="#7FF1A4" offset="0%"/><stop stop-color="#2FBCA4" offset="52%"/><stop stop-color="#2F7DA4" offset="100%"/></linearGradient><linearGradient x1="47.448%" y1="-9.577%" x2="55.48%" y2="116.394%" id="Z"><stop stop-color="#7FF1A4" offset="0%"/><stop stop-color="#2FBCA4" offset="52%"/><stop stop-color="#2F7DA4" offset="100%"/></linearGradient><linearGradient x1="58.999%" y1="-11.079%" x2="27.476%" y2="184.252%" id="aa"><stop stop-color="#7FF1A4" offset="0%"/><stop stop-color="#2FBCA4" offset="52%"/><stop stop-color="#2F7DA4" offset="100%"/></linearGradient><linearGradient x1="61.509%" y1="-7.759%" x2="25.775%" y2="127.553%" id="ab"><stop stop-color="#7FF1A4" offset="0%"/><stop stop-color="#2FBCA4" offset="52%"/><stop stop-color="#2F7DA4" offset="100%"/></linearGradient><linearGradient x1="70.44%" y1="-16.013%" x2="31.586%" y2="96.569%" id="ac"><stop stop-color="#7FF1A4" offset="0%"/><stop stop-color="#2FBCA4" offset="52%"/><stop stop-color="#2F7DA4" offset="100%"/></linearGradient><linearGradient x1="45.202%" y1="-9.45%" x2="60.823%" y2="180.423%" id="ad"><stop stop-color="#7FF1A4" offset="0%"/><stop stop-color="#2FBCA4" offset="52%"/><stop stop-color="#2F7DA4" offset="100%"/></linearGradient><linearGradient x1="43.109%" y1="-6.87%" x2="64.736%" y2="127.645%" id="ae"><stop stop-color="#7FF1A4" offset="0%"/><stop stop-color="#2FBCA4" offset="52%"/><stop stop-color="#2F7DA4" offset="100%"/></linearGradient><linearGradient x1="44.88%" y1="-1.132%" x2="68.414%" y2="114.094%" id="af"><stop stop-color="#7FF1A4" offset="0%"/><stop stop-color="#2FBCA4" offset="52%"/><stop stop-color="#2F7DA4" offset="100%"/></linearGradient><linearGradient x1="50.076%" y1="354.03%" x2="50.076%" y2="-100.402%" id="ag"><stop stop-color="#D1EFE7" offset="0%"/><stop stop-color="#97EFE7" offset="53%"/><stop stop-color="#3CCBE3" offset="100%"/></linearGradient></defs><g fill="none" fill-rule="evenodd"><rect fill="#1A3B2F" x="89.67" y="68.67" width="562.66" height="562.66" rx="136.402"/><rect stroke="#7FA8F8" stroke-width="4" transform="rotate(15 371 350)" x="105" y="84" width="532" height="532" rx="136.402"/><rect fill="#39BA8B" transform="rotate(-20 370.805 349.805)" x="98" y="77" width="545.61" height="545.61" rx="136.402"/><g transform="translate(125 104)"><circle fill="url(#a)" fill-rule="nonzero" cx="245.822" cy="245.614" r="245.614"/><circle fill="url(#a)" fill-rule="nonzero" cx="245.822" cy="245.614" r="245.614"/><circle fill="url(#a)" fill-rule="nonzero" cx="245.822" cy="245.614" r="245.614"/><path d="M.91 263.158c0 2.982 0 5.965.701 8.772 0 1.579 0 3.158.614 4.737.614 1.579.702 5.438 1.14 8.158.44 2.719.615 3.245.878 4.824.263 1.58.965 5.263 1.491 7.895.526 2.631.702 3.158 1.053 4.737.35 1.579 1.228 5.263 1.93 7.807l1.228 4.473a155.64 155.64 0 0 0 2.456 7.895l1.403 4.035c.936 2.749 1.93 5.468 2.983 8.158l1.403 3.509a279.83 279.83 0 0 0 3.684 8.772l1.228 2.72a235.722 235.722 0 0 0 4.65 9.473l.877 1.666a246.842 246.842 0 0 0 55.087 69.036h324.562a246.842 246.842 0 0 0 55-69.562l.877-1.667a177.945 177.945 0 0 0 4.65-9.473l1.227-2.72a197.075 197.075 0 0 0 3.684-8.771l1.404-3.51a192.336 192.336 0 0 0 2.982-8.157l1.404-4.035a204.054 204.054 0 0 0 2.456-7.895l1.228-4.474c.702-2.543 1.316-5.175 1.93-7.807.614-2.631.79-3.158 1.053-4.736.263-1.58 1.052-5.264 1.49-7.895.44-2.632.615-3.246.878-4.825.263-1.579.79-5.438 1.14-8.158.351-2.719 0-3.158.614-4.736 0-2.983.527-5.965.702-8.772v-17.369C485.344 113.771 377.047 10.106 245.434 10.2 113.821 10.294 5.674 114.114.208 245.614v13.246c0 1.315.614 2.719.701 4.298z" fill="url(#b)" fill-rule="nonzero"/><path d="M491.436 245.614c0-12.658-.965-25.297-2.895-37.807l-2.193.877-415.526 209.21A228.869 228.869 0 0 0 83.716 430h324.562a245.002 245.002 0 0 0 83.158-184.386z" fill="url(#c)" fill-rule="nonzero"/><path d="M331.348 475.877a245.088 245.088 0 0 0 61.404-33.684V48.947a245.088 245.088 0 0 0-61.404-33.684v460.614z" fill="url(#d)" fill-rule="nonzero"/><path d="M286.348 487.807a243.684 243.684 0 0 0 61.404-18.86V22.281a243.684 243.684 0 0 0-61.404-18.86v484.386z" fill="url(#e)" fill-rule="nonzero"/><path d="M490.997 230.877a27.895 27.895 0 0 1-4.912 6.842 28.07 28.07 0 0 0-8.246 19.825 7.632 7.632 0 0 0 12.106 6.052l.789-.526c0-5.79.702-11.579.702-17.544s0-9.737-.439-14.649z" fill="url(#f)" fill-rule="nonzero"/><path d="M18.98 151.316c16.403-15.965 26.315-23.597 24.561-13.684-7.895 39.561 87.105 24.386 87.72 56.842l31.578-3.597s46.842-108.42-38.07-159.21A246.491 246.491 0 0 0 18.98 151.316z" fill="url(#g)" fill-rule="nonzero"/><path d="M131.787 194.474v-1.492 1.492z" fill="url(#h)" fill-rule="nonzero"/><path d="M138.366 171.579c-25.264-5.702-.527-9.65-7.544-64.474-7.018-54.824-95.965 30-95.965 30 6.579-5 9.912-5.526 8.772.527-7.456 37.456 77.456 25.79 87.193 52.193.965-9.211 31.842-12.72 7.544-18.246z" fill="url(#i)" fill-rule="nonzero"/><path d="M323.629 382.105v-38.509a6.053 6.053 0 1 0-12.106 0v38.51a23.772 23.772 0 0 0 11.404 20.175l68.246 41.228a227.205 227.205 0 0 0 10.263-7.895l-72.193-43.86a11.579 11.579 0 0 1-5.614-9.649z" fill="url(#j)" fill-rule="nonzero"/><path d="M311.611 343.596v16.755h12.106v-16.755a5.965 5.965 0 0 0-.79-2.982h-10.526a5.965 5.965 0 0 0-.79 2.982z" fill="url(#k)" fill-rule="nonzero" opacity=".49" style="mix-blend-mode:color-burn"/><path d="M182.225 415C155.383 404.912 52.05 302.895 59.418 193.509c2.28-32.983-20.438-46.491-44.561-8.772A243.158 243.158 0 0 0 3.19 206.228C-14.789 316.976 44.566 425.83 147.4 470.702c0-5.088 9.211-11.404 35.088-19.123 64.562-19.561 22.457-28.07-.263-36.579z" fill="url(#l)" fill-rule="nonzero"/><path d="M182.225 415C155.383 404.912 52.05 302.895 59.418 193.509a53.947 53.947 0 0 0-.877-14.825l-2.28.79s-1.053-11.842-10.352-10.878c-9.298.965-65 119.737-15.087 186.667 49.912 66.93 96.491 53.86 102.28 71.404 5.176 15.701 54.299 2.456 70.176-4.035-6.316-2.72-14.474-5.176-21.053-7.632z" fill="url(#m)" fill-rule="nonzero"/><path d="m215.383 304.825-2.193 1.49s0-6.315 10.351-4.648" fill="#1B1C37" fill-rule="nonzero"/><path d="M178.102 467.018a40.35 40.35 0 0 1-7.543 12.368 251.975 251.975 0 0 0 18.596 5.175 20.614 20.614 0 0 1 2.895-17.543h-13.948z" fill="url(#n)" fill-rule="nonzero"/><path d="M150.734 212.72a35.088 35.088 0 0 1-11.403-4.387c-6.053-3.596 18.684-7.982 18.684-7.982v14.298l-4.65 7.369" fill="#E2A07A" fill-rule="nonzero"/><path d="M101.523 345.35s127.193-19.736 141.229 6.054c14.035 25.789-50.614 115.701-50.614 115.701h-14.036l31.93-89.386s-68.947 38.334-118.07 12.106C42.84 363.596 45.646 274.737 45.646 274.737" fill="url(#o)" fill-rule="nonzero"/><path d="M280.91 488.772c-17.544-39.123-78.07-144.65-216.58-152.193L45.998 301.49s-16.93 56.404 44.65 95.877C125.733 420 206.347 427.72 206.347 427.72l55.702 62.895a306.672 306.672 0 0 0 18.86-1.842z" fill="url(#p)" fill-rule="nonzero"/><path d="M219.506 304.561s11.316-5.877 18.684-8.772c7.369-2.894 16.053 5.878 18.246 8.772 2.193 2.895 14.649 17.544 5.526 14.65a89.21 89.21 0 0 0-16.14-3.422s-8.772 7.72-26.316 1.14" fill="url(#q)" fill-rule="nonzero"/><path d="M111.962 211.14a576.228 576.228 0 0 1 34.035 51.404c8.772 17.544 4.737-49.825 4.737-49.825s9.561.877 12.456-2.28c0 0 17.544 85.35 2.544 87.193a443.684 443.684 0 0 1-60.263-3.334" fill="url(#r)" fill-rule="nonzero"/><path d="M150.822 277.632c8.772-2.193-.702-6.843 0-16.316-.877 4.561-2.369 5.965-4.737 1.228a576.228 576.228 0 0 0-34.035-51.404l-3.948 51.14 2.895 21.755 12.807 12.105c7.807.702 17.105 1.404 25.263 1.667l6.404-9.825s-13.07-8.157-4.65-10.35z" fill="url(#s)" fill-rule="nonzero"/><path d="M150.734 212.72a391.053 391.053 0 0 1 .526 44.912c2.369-13.51 11.93-47.193 11.93-47.193-2.895 3.07-12.456 2.28-12.456 2.28z" fill="url(#t)" fill-rule="nonzero"/><path d="M69.155 184.825s37.193 7.017 47.018 35.087c10.526 29.913 1.666 48.421 1.666 48.421" fill="url(#u)" fill-rule="nonzero"/><ellipse fill="#FFF" fill-rule="nonzero" transform="rotate(-87.97 116.906 233.375)" cx="116.906" cy="233.375" rx="2.368" ry="1.842"/><path d="M63.015 181.404s41.14 22.456 45.877 31.403c4.737 8.947.614 17.544 4.649 24.474s-57.72-26.316-57.72-26.316L44.507 193.42l-4.561-7.544 4.561-7.544H54.77" fill="url(#v)" fill-rule="nonzero"/><path d="M73.98 173.772a65.702 65.702 0 0 0-15.351 35.702s38.772 12.105 56.316 33.245c0 0-13.597-23.07-9.386-32.631 4.21-9.562-24.562-36.404-24.562-36.404" fill="url(#w)" fill-rule="nonzero"/><path d="M58.804 206.228c11.58 4.298 37.895 13.07 35.877 6.667-2.456-8.334 10.79-2.369 10.79-2.369l-7.28-17.544a180.79 180.79 0 0 0-17.545-18.947h-6.93a69.298 69.298 0 0 0-14.912 32.193z" fill="url(#x)" fill-rule="nonzero"/><circle fill="url(#y)" fill-rule="nonzero" cx="76.523" cy="130.263" r="15.263"/><ellipse fill="url(#z)" fill-rule="nonzero" cx="85.12" cy="137.719" rx="11.228" ry="10.789"/><path d="M127.664 149.123a13.684 13.684 0 0 0-9.562-10.263c-16.49-5.176-33.508 10.087-43.86 21.842-10.35 11.754 13.773 34.386 29.65 32.807a24.65 24.65 0 0 0 17.544-15 10.614 10.614 0 0 0 5.526-2.895c7.369-7.193.702-26.491.702-26.491z" fill="url(#A)" fill-rule="nonzero"/><path d="M126.699 146.14a13.333 13.333 0 0 0-8.772-7.544 25.088 25.088 0 0 0-15.965.615l-2.456 2.894-10.263 13.246 3.509 25.79 6.579 8.771a64.298 64.298 0 0 0 0-10.263l4.122-1.93a8.158 8.158 0 0 0 4.737-7.456v-2.28a8.07 8.07 0 0 1 2.369-5.702l15.964-15.965.176-.176z" fill="url(#B)" fill-rule="nonzero"/><path d="M122.138 178.421s-14.825-1.14-19.737 8.158c-4.913 9.298-11.492-23.947-11.492-23.947l-4.386 2.982a39.21 39.21 0 0 0 0 28.947c8.772 19.035 35.088 20.702 38.685 10.264a47.456 47.456 0 0 0-3.07-26.404z" fill="url(#C)" fill-rule="nonzero"/><path d="M86.523 165.526s3.948-7.982-2.017-10.614c-5.965-2.631-11.491 8.772-5.877 14.299l-4.562 4.56a43.864 43.864 0 0 1-4.737-20 28.51 28.51 0 0 1 18.597-25.613c15.646-4.5 32.225 3.155 38.947 17.982 0 0-15.175-5.614-17.543-2.105-2.369 3.509-2.895 15.614-10.527 15.176-7.631-.44-8.772 1.228-7.193 6.228" fill="url(#D)" fill-rule="nonzero"/><path d="M119.77 173.772c-4.475-5.088-3.071 5.175 2.368 4.65a10.614 10.614 0 0 0 5.438-2.808c-.526.439-3.684 2.72-7.807-1.842z" fill="url(#E)" fill-rule="nonzero"/><path d="M36.874 215s-8.772-33.596 9.913-27.018c18.684 6.58 51.93 16.93 68.158 52.018s-22.807 69.65 2.193 92.632-65 32.105-78.948 11.14C3.102 289.474 36.874 215 36.874 215z" fill="url(#F)" fill-rule="nonzero"/><ellipse fill="#FFF" fill-rule="nonzero" transform="rotate(-30 104.864 236.694)" cx="104.864" cy="236.694" rx="2.368" ry="2.982"/><path d="M104.857 236.842s4.824 3.597 5 20.877" stroke="#282A49" stroke-width="2.193" stroke-linecap="round"/><path d="M116.874 233.333s5.79 15.614-7.105 20" stroke="#282A49" stroke-width="2.193" stroke-linecap="round"/><path d="m105.47 311.754-42.455-97.543c-8.772-4.123-20.439 1.052-27.983 5.438-6.579 17.018-26.316 78.07 3.421 124.21 4.474 6.843 17.018 10.44 31.053 11.492-8.772-1.053-20-5-20.526-11.053-.527-6.052 19.736 5.527 9.736-24.123-10-29.649 46.755-8.42 46.755-8.42z" fill="url(#G)" fill-rule="nonzero"/><path d="M33.804 232.018a24.912 24.912 0 0 1 33.684-16.404 77.544 77.544 0 0 1 27.369 22.018c32.368 37.719 94.649 78.947 125.877 65.614a9.386 9.386 0 0 1 4.298-.702c4.299 0 11.667 2.105 7.632 12.105-5.526 13.684-97.018 16.404-153.246-14.123-44.824-24.298-50.35-51.228-45.614-68.508z" fill="url(#H)" fill-rule="nonzero"/><path d="M71.436 262.456c0-6.228 7.456-16.052 5-20.702a70.877 70.877 0 0 1-9.386-17.543c-3.07-9.562 11.316-2.544 11.316-2.544l-6.316-4.035a47.193 47.193 0 0 0-4.65-2.281 24.912 24.912 0 0 0-33.684 16.403c-4.736 17.544.79 43.86 45.615 68.51a170.965 170.965 0 0 0 32.017 13.07c-26.053-9.387-39.912-45.088-39.912-50.878z" fill="url(#I)" fill-rule="nonzero"/><path d="M223.98 306.404s8.772 2.982 1.403 13.508a6.228 6.228 0 0 0 4.65-.877 9.65 9.65 0 0 0 1.666-14.649" fill="#1B1C37" fill-rule="nonzero"/><path d="M44.067 181.842c3.597-6.579 18.772-.438 18.772-.438s-27.719-16.667-28.158 17.543l17.544-8.772s-10.79-2.982-8.158-8.333z" fill="url(#J)" fill-rule="nonzero"/><path d="M83.804 161.228a2.72 2.72 0 0 0-5.088 1.053c0 4.824 2.72 3.596 2.632 5.526-.088 1.93 3.772-2.632 2.983-5.526-.159-.36-.334-.71-.527-1.053z" fill="url(#K)" fill-rule="nonzero"/><path d="M146.611 209.561s4.123-.965 2.807-3.157c-1.316-2.193-4.21-13.158-.877-15a34.21 34.21 0 0 1 19.386 0c3.596.877 5.614 5 2.018 7.368-3.597 2.368-2.72 5.877-5.264 10.263a11.316 11.316 0 0 1-18.07.526z" fill="url(#L)" fill-rule="nonzero"/><path d="M164.681 209.298c2.544-4.386 1.667-7.894 5.264-10.263-2.457 1.491-6.755 2.105-5.614 0 1.14-2.105-1.053-8.246-1.053-8.246l-15.439 10.965a21.667 21.667 0 0 0 1.667 4.825c1.316 2.193-2.807 3.158-2.807 3.158a11.316 11.316 0 0 0 17.982-.439z" fill="url(#M)" fill-rule="nonzero"/><path d="M163.19 190.965a42.895 42.895 0 0 0-16.14-1.579 42.895 42.895 0 0 0-16.14 1.579c0 8.772 7.28 20.263 16.228 20.263 8.947 0 16.228-11.316 16.228-20.263h-.176z" fill="url(#N)" fill-rule="nonzero"/><path d="M147.05 196.579c0-4.035 16.14-5.702 16.14-5.702a42.895 42.895 0 0 0-16.14-1.579 42.895 42.895 0 0 0-16.14 1.58c0 8.771 7.28 20.262 16.228 20.262 7.719-1.842 0-10.526-.088-14.561z" fill="url(#O)" fill-rule="nonzero"/><path d="m215.12 303.596 7.368-2.543a4.65 4.65 0 0 1 2.807 0l6.404 1.842a1.228 1.228 0 0 1 0 2.368l-7.456 2.632a4.035 4.035 0 0 1-2.807 0l-6.404-2.456a.922.922 0 1 1 .088-1.843z" fill="#1B1C37" fill-rule="nonzero"/><path d="m353.804 441.404-81.666-49.474a11.579 11.579 0 0 1-5.615-9.912v-38.422a6.053 6.053 0 1 0-12.105 0v38.51a23.772 23.772 0 0 0 11.404 20.175l81.754 49.386a5.263 5.263 0 0 1 .965 8.158l-15 15.263c9.43-3.58 18.628-7.74 27.544-12.456a17.544 17.544 0 0 0-7.018-21.228h-.263z" fill="url(#P)" fill-rule="nonzero"/><path d="M254.594 343.596v16.755h12.105v-16.755a5.965 5.965 0 0 0-.79-2.982h-10.614a5.965 5.965 0 0 0-.701 2.982z" fill="url(#Q)" fill-rule="nonzero" opacity=".49" style="mix-blend-mode:color-burn"/><path d="M105.47 361.404h1.843a1.577 1.577 0 0 1 1.228 1.315c.79 4.386 3.07 21.053-5.877 27.281a1.579 1.579 0 0 1-1.228 0l-2.544-.614a1.579 1.579 0 0 1-.79-2.632 27.544 27.544 0 0 0 5.527-24.122 1.579 1.579 0 0 1 1.842-1.228z" fill="url(#R)" fill-rule="nonzero"/><rect fill="#3D6FD3" fill-rule="nonzero" x="185.471" y="328.509" width="303.246" height="19.737" rx="7.544"/><path d="M416.787 228.772h-65.702a4.035 4.035 0 0 0-3.772 2.544l-35.088 83.596a4.65 4.65 0 0 1-4.298 2.895h-61.404a8.772 8.772 0 0 0-7.368 3.947 4.386 4.386 0 0 0 3.684 6.843h131.053a7.72 7.72 0 0 0 7.105-4.65l39.562-89.473a4.035 4.035 0 0 0-3.772-5.702z" fill="url(#S)" fill-rule="nonzero"/><path d="M420.559 234.474a4.035 4.035 0 0 0-3.685-5.702h-57.017l-41.228 97.28a4.65 4.65 0 0 1-2.369 2.457h57.632a7.72 7.72 0 0 0 7.105-4.65l39.562-89.385z" fill="url(#T)" fill-rule="nonzero"/><path d="m65.822 232.368-9.825 1.58a4.65 4.65 0 0 0-3.596 2.894l-3.51 9.298a4.65 4.65 0 0 0 .79 4.562l6.316 7.72a4.65 4.65 0 0 0 4.386 1.666l10-1.58a4.65 4.65 0 0 0 3.597-2.894l3.508-9.298a4.65 4.65 0 0 0-.79-4.562l-6.315-7.719a4.65 4.65 0 0 0-4.561-1.667z" fill="url(#U)" fill-rule="nonzero"/><path d="M120.822 315.79c-1.291-.44-2.61-.79-3.948-1.053l3.948 1.052z" fill="#F4F4F4" fill-rule="nonzero"/><rect fill="url(#V)" fill-rule="nonzero" x="185.471" y="328.509" width="303.246" height="19.737" rx="7.544"/><path d="M486.348 330.702a7.544 7.544 0 0 0-5.263-2.106h-35.088a8.772 8.772 0 0 1 5.263 7.544v4.562a7.544 7.544 0 0 1-7.544 7.544h38.947l1.404-.439 1.316-.702h.614a7.544 7.544 0 0 0 2.72-5.877v-4.561a7.72 7.72 0 0 0-2.369-5.965z" fill="url(#W)" fill-rule="nonzero"/><circle fill="#E4E4EA" fill-rule="nonzero" cx="245.295" cy="338.421" r="2.193"/><circle fill="#E4E4EA" fill-rule="nonzero" cx="260.471" cy="338.421" r="2.193"/><circle fill="#E4E4EA" fill-rule="nonzero" cx="275.734" cy="338.421" r="2.193"/><path d="m403.716 192.544-2.368 5.263a6.93 6.93 0 0 0 0 5.965l1.404 2.807a5.175 5.175 0 0 1-.965 6.053l-2.895 2.894a17.982 17.982 0 0 0-5.176 15.176 8.158 8.158 0 0 0 4.65 6.316 7.632 7.632 0 0 1 3.772 10.087l-1.492 3.158a29.386 29.386 0 0 0-2.631 10.614 26.842 26.842 0 0 0 3.684 15.088l5.439 8.772 9.736 4.386 10.176-18.334a33.246 33.246 0 0 0-.527-33.07 12.368 12.368 0 0 1 1.492-14.649l1.403-1.579a17.544 17.544 0 0 0 4.562-10.965v-2.719a7.368 7.368 0 0 0-5.702-7.544l-4.474-1.052a3.947 3.947 0 0 1-3.07-4.65l1.228-5.877a15.526 15.526 0 0 0-6.667-16.14 8.246 8.246 0 0 0-12.105 3.509 12.807 12.807 0 0 0-.702 8.772l1.14 4.386c.45 1.06.481 2.25.088 3.333z" fill="url(#X)" fill-rule="nonzero"/><path d="M426.787 238.158a12.368 12.368 0 0 1 1.49-14.65l1.404-1.578a17.544 17.544 0 0 0 4.562-10.965v-2.72a7.368 7.368 0 0 0-5.702-7.543l-4.474-1.053a3.947 3.947 0 0 1-3.07-4.649l1.228-5.877a15.526 15.526 0 0 0-6.666-16.14 3.333 3.333 0 0 0-5.088 3.245l2.017 15a19.65 19.65 0 0 1 0 4.65l-.79 8.157a7.895 7.895 0 0 0 2.194 6.228 9.386 9.386 0 0 1 1.316 11.491 27.632 27.632 0 0 0-2.72 22.632c.752 2.44.961 5.014.614 7.544l-2.456 16.93.79 18.158 5.702 2.543 10.175-18.333a33.246 33.246 0 0 0-.526-33.07z" fill="url(#Y)" fill-rule="nonzero"/><path d="M412.488 190.79c.383 2.143.588 4.314.614 6.49a63.245 63.245 0 0 1-.701 6.492 55 55 0 0 0-.702 6.403c.103 2.105.426 4.192.965 6.229l1.316 6.315 1.14 5.527 1.667-2.983c.877-1.491 1.579-2.982 2.544-4.386a34.561 34.561 0 0 1 3.07-4.123l3.333-3.86-3.158 4.036a34.21 34.21 0 0 0-2.807 4.21c-.79 1.492-1.491 2.983-2.28 4.562l-2.106 4.21c.458 1.901.751 3.838.877 5.79a25.58 25.58 0 0 1-.614 6.666l-1.49 6.316v1.755c.613-1.053 1.14-2.106 1.841-3.158a25.526 25.526 0 0 1 2.28-2.983l2.457-2.807-2.28 2.983c-.777.97-1.48 1.996-2.106 3.07-.614 1.052-1.14 2.193-1.667 3.333l-1.052 2.193-.439 1.93a60.439 60.439 0 0 0-1.228 6.316 45.438 45.438 0 0 0 0 6.403v19.474c0-4.298-.702-8.772-1.053-12.895v-6.491a46.579 46.579 0 0 1 0-6.579v-1.667l-.614-2.982c0-1.228-.438-2.456-.79-3.684a25.175 25.175 0 0 0-1.227-3.509l-1.667-3.772 1.667 3.333a25.526 25.526 0 0 1 1.403 3.51c0 1.227.614 2.455.965 3.596v1.14c0-.965 0-1.93.614-2.807l1.228-6.14 1.404-6.316a23.86 23.86 0 0 0 0-2.807l-3.333-3.334c-1.228-1.228-2.369-2.456-3.597-3.508a34.21 34.21 0 0 0-4.035-3.07l-4.21-2.807 4.385 2.543c1.473.86 2.88 1.828 4.211 2.895 1.316 1.053 2.544 2.28 3.86 3.333l2.894 2.544v-2.105a38.158 38.158 0 0 0-.877-6.316l-.702-6.228-1.228-6.403c0-1.053 0-2.106-.614-3.246a18.86 18.86 0 0 1 0-3.333 55.32 55.32 0 0 1 .965-6.492c0-2.105.79-4.21.965-6.403a39.21 39.21 0 0 0 0-6.404l-.79-6.578.702 6.578z" fill="url(#Z)" fill-rule="nonzero"/><path d="M438.804 252.105v3.334a3.947 3.947 0 0 1-1.491 3.07l-1.404 1.14a2.982 2.982 0 0 0-.877 3.333l.79 2.193a10.35 10.35 0 0 1-.877 8.772 4.65 4.65 0 0 1-3.948 2.193 4.386 4.386 0 0 0-4.386 4.386v2.018c.006 2.1-.38 4.182-1.14 6.14a15.35 15.35 0 0 1-5.526 7.018l-5 3.509h-6.14l-.966-12.018a19.035 19.035 0 0 1 8.07-17.105 7.105 7.105 0 0 0 2.72-7.983v-1.14a10.088 10.088 0 0 1 0-6.842l.526-1.404a4.21 4.21 0 0 1 4.737-2.544l2.631.527a2.28 2.28 0 0 0 2.72-1.755l.79-3.333a8.772 8.772 0 0 1 7.28-6.842 4.737 4.737 0 0 1 5.439 4.65 7.28 7.28 0 0 1-1.667 4.648l-1.667 2.018a2.632 2.632 0 0 0-.614 2.017z" fill="url(#aa)" fill-rule="nonzero"/><path d="M415.997 270.439a7.105 7.105 0 0 0 2.72-7.983v-1.14a10.088 10.088 0 0 1 0-6.755l.526-1.403a4.21 4.21 0 0 1 4.737-2.544l2.631.526a2.28 2.28 0 0 0 2.72-1.754l.701-3.772a8.772 8.772 0 0 1 7.281-6.842 1.93 1.93 0 0 1 1.93 2.895l-4.65 7.28a11.228 11.228 0 0 0-1.14 2.369l-1.579 4.473a4.474 4.474 0 0 1-2.631 2.72 5.35 5.35 0 0 0-3.421 5.702 15.79 15.79 0 0 1-3.86 12.456 9.825 9.825 0 0 0-2.105 3.772l-2.72 9.386-4.649 9.736h-3.596l-.965-12.017a19.035 19.035 0 0 1 8.07-17.105z" fill="url(#ab)" fill-rule="nonzero"/><path d="M434.506 249.035a22.72 22.72 0 0 0-1.842 3.246 36.228 36.228 0 0 0-1.14 3.596 31.491 31.491 0 0 1-1.14 3.509 17.544 17.544 0 0 1-1.93 3.07l-2.194 2.983-1.842 2.631v-4.824a19.824 19.824 0 0 0-.614-2.895l-.79-2.807.702 2.807c.219.952.365 1.92.44 2.895v5.614a19.48 19.48 0 0 0-1.843 2.807 14.65 14.65 0 0 0-1.228 3.596l-.702 3.684v.965-2.105a14.65 14.65 0 0 0-.438-2.105l-.614-2.018.526 2.105c.05.701.05 1.405 0 2.106v4.649a34.561 34.561 0 0 1-.79 3.596 26.316 26.316 0 0 1-1.315 3.421l-1.667 3.334-3.246 6.666 3.597-6.49 1.754-3.246a26.316 26.316 0 0 0 1.404-3.51v-.964l.965-1.404 1.228-1.754 1.49-1.579 1.58-1.491-1.667 1.403-1.579 1.492-1.403 1.666v.527-1.58l.79-3.596.789-3.596c.114-.535.26-1.062.438-1.58l2.544-.964 2.72-.965 2.806-.614 2.895-.439h-2.895l-2.894.527-2.807.877-2.106.701.527-1.052a21.842 21.842 0 0 1 1.93-3.07l2.105-3.07 2.105-3.07 1.053-1.492c.34-.529.634-1.087.877-1.667a31.667 31.667 0 0 0 1.053-3.596c0-1.228.614-2.369 1.052-3.509a22.456 22.456 0 0 1 1.667-3.333l1.754-3.246-2.105 3.158z" fill="url(#ac)" fill-rule="nonzero"/><path d="M380.295 239.561v4.035a4.912 4.912 0 0 0 1.404 3.948l1.579 1.579a3.684 3.684 0 0 1 .702 4.21l-1.316 2.544a12.72 12.72 0 0 0 0 11.316 5.702 5.702 0 0 0 4.561 3.158 5.35 5.35 0 0 1 4.825 5.877v2.456a20.702 20.702 0 0 0 .614 7.632 18.947 18.947 0 0 0 5.877 9.298l5.702 4.912 7.456.79 2.72-14.562a23.421 23.421 0 0 0-7.72-21.93 8.772 8.772 0 0 1-2.983-10l.615-1.315a12.368 12.368 0 0 0 .614-8.772l-.527-1.842a5.175 5.175 0 0 0-5.526-3.772h-3.246a2.807 2.807 0 0 1-3.07-2.456l-.526-4.21a10.965 10.965 0 0 0-8.07-9.3 5.79 5.79 0 0 0-7.281 5 8.772 8.772 0 0 0 1.491 5.966l1.755 2.631c.552.828.683 1.869.35 2.807z" fill="url(#ad)" fill-rule="nonzero"/><path d="M405.91 264.912a8.772 8.772 0 0 1-2.194-10.087l.615-1.316a12.368 12.368 0 0 0 .614-8.772l-.527-1.842a5.175 5.175 0 0 0-5.526-3.772h-3.246a2.807 2.807 0 0 1-3.07-2.456l-.526-4.21a10.965 10.965 0 0 0-8.07-9.3 2.368 2.368 0 0 0-2.72 3.334l4.913 10.351c.5.975.883 2.005 1.14 3.07l1.316 5.614a5.526 5.526 0 0 0 2.894 3.685 6.579 6.579 0 0 1 3.422 7.368 19.474 19.474 0 0 0 3.157 15.79 12.105 12.105 0 0 1 2.106 4.912l1.842 12.193 4.561 11.93 4.386.438 2.72-14.561a23.421 23.421 0 0 0-7.808-22.369z" fill="url(#ae)" fill-rule="nonzero"/><path d="M386.173 236.842a27.982 27.982 0 0 1 1.842 4.21c.398 1.474.72 2.968.965 4.474.236 1.48.558 2.944.965 4.386a21.228 21.228 0 0 0 2.017 3.948l2.28 3.947 1.93 3.421.44-2.368c0-1.14 0-2.369.701-3.51.295-1.166.676-2.31 1.14-3.42l1.404-3.334-1.228 3.422a24.035 24.035 0 0 0-.965 3.42c0 1.14 0 2.369-.526 3.51l-.44 3.245a24.035 24.035 0 0 1 1.843 3.684 18.07 18.07 0 0 1 1.053 4.562v5.789c0-.79 0-1.667.526-2.456.227-.87.52-1.72.877-2.544l1.053-2.456-.877 2.456c-.298.83-.532 1.68-.702 2.544v5.789c.096 1.5.272 2.993.526 4.474a32.018 32.018 0 0 0 1.14 4.386l1.58 4.298c1.052 2.895 2.105 5.702 3.07 8.772a224.871 224.871 0 0 1-3.597-8.772l-1.754-4.21c-.54-1.43-.98-2.895-1.316-4.386v-1.14l-1.316-2.281-1.316-2.28c-.472-.741-1-1.445-1.579-2.106l-1.754-2.018 1.842 1.93a17.544 17.544 0 0 1 1.755 2.018l1.49 2.193.44.701v-2.017l-.44-4.562-.438-4.561c.04-.672.04-1.346 0-2.018l-3.86-1.228-3.245-1.579a24.035 24.035 0 0 0-3.333-1.14l-3.421-.877 3.508.702c1.192.233 2.365.556 3.51.965l3.332 1.403 2.457 1.053-.439-1.404a26.93 26.93 0 0 0-2.018-4.035l-2.193-3.947-2.193-3.509-1.14-2.018a13.246 13.246 0 0 1-.877-2.193 38.948 38.948 0 0 1-.79-4.561c0-1.491 0-2.982-.789-4.474a27.632 27.632 0 0 0-1.14-4.298l-1.755-4.21 1.755 4.21z" fill="url(#af)" fill-rule="nonzero"/><path d="M378.278 301.754a64.65 64.65 0 0 0 5.702 22.807 5.527 5.527 0 0 0 5.175 3.51h40.877a5.527 5.527 0 0 0 5.176-3.51 64.65 64.65 0 0 0 5.79-23.245 81.585 81.585 0 0 0-.878-12.018 5.527 5.527 0 0 0-5.526-4.737h-50a5.527 5.527 0 0 0-5.527 4.737 81.579 81.579 0 0 0-.79 12.456z" fill="url(#ag)" fill-rule="nonzero"/></g><rect fill-opacity=".5" fill="#39BA8B" y="158" width="40" height="40" rx="9.697"/><rect fill-opacity=".5" fill="#165CFF" transform="rotate(30 33 250)" x="23" y="240" width="20" height="20" rx="4.848"/><rect fill-opacity=".5" fill="#165CFF" transform="rotate(45 711 330)" x="691" y="310" width="40" height="40" rx="9.697"/><rect fill-opacity=".5" fill="#39BA8B" x="691" y="534" width="20" height="20" rx="4.848"/></g></svg>