<svg width="86" height="86" xmlns="http://www.w3.org/2000/svg"><defs><linearGradient x1="100%" y1="26.655%" x2="23.69%" y2="60.846%" id="a"><stop stop-color="#5B84E7" offset="0%"/><stop stop-color="#2B67F8" offset="100%"/></linearGradient><linearGradient x1="68.951%" y1="36.581%" x2="28.78%" y2="61.119%" id="b"><stop stop-color="#3669E7" offset="0%"/><stop stop-color="#2966F9" offset="100%"/></linearGradient><linearGradient x1="96.545%" y1="29.617%" x2="1.123%" y2="70.565%" id="c"><stop stop-color="#1250D5" offset="0%"/><stop stop-color="#053EB5" offset="100%"/></linearGradient></defs><g fill="none" fill-rule="evenodd"><rect fill="#1F273B" transform="rotate(45 43 43)" x="13" y="13" width="60" height="60" rx="16"/><path fill="#042659" d="m21.683 57.177 19.419-8.247-2.175-7.475-16.666 5.851z"/><path d="m69.697.086-66.4 12.143c-4.115.752-4.486 6.507-.502 7.781l17.043 5.45a4.311 4.311 0 0 1 2.805 2.83l5.635 18.191c1.374 4.435 7.13 5.56 10.072 1.969L73.164 5.968c2.146-2.619-.137-6.491-3.467-5.882" fill="url(#a)" transform="translate(3 19.123)"/><path d="M28.635 7.595 3.296 12.229c-4.114.752-4.485 6.507-.5 7.781l17.042 5.45a4.311 4.311 0 0 1 2.805 2.83l5.635 18.19c1.374 4.436 7.13 5.56 10.072 1.97l18.406-22.46C34.41 27.79 25.467 15.334 28.635 7.594" fill="url(#b)" transform="translate(3 19.123)"/><path d="M74.6 21.226 19.976 43.668l-.646 11.949c-.091 1.674 2.1 2.38 3.004.966l4.141-6.481.002.004 49.68-29.634-1.557.754z" fill="#5B84E7"/><path d="M71.6 2.104 59.353 7.135c-17.03 11.158-30.96 16.891-42.61 21.698l-.413 7.66c-.091 1.676 2.1 2.38 3.004.968l4.141-6.482L71.6 2.104z" fill="url(#c)" transform="translate(3 19.123)"/></g></svg>