<svg width="80" height="80" xmlns="http://www.w3.org/2000/svg" xmlns:xlink="http://www.w3.org/1999/xlink"><defs><linearGradient x1="50%" y1="0%" x2="50%" y2="100%" id="b"><stop stop-color="#70A8EB" offset="0%"/><stop stop-color="#3D6FD3" offset="100%"/></linearGradient><path id="a" d="M0 .567h29.4v52.9H0z"/></defs><g fill="none" fill-rule="evenodd"><rect fill="#1F273B" transform="rotate(45 40 40)" x="11.93" y="11.93" width="56.14" height="56.14" rx="14.035"/><path d="M61.337 33.55 46.451 18.662l9.464-9.465c.254-.254.652-.267.89-.03l14.027 14.028c.237.237.224.635-.03.889l-9.465 9.464z" fill="#CCD5E1"/><path d="M60.345 32.557 47.443 19.655l8.518-8.518c.229-.228.58-.247.786-.042l12.158 12.158c.205.205.186.557-.042.786l-8.518 8.518z" fill="#FBFCFD"/><path d="M58.856 17.174a.702.702 0 0 1 0 .993l-3.97 3.97a.702.702 0 1 1-.992-.993l3.97-3.97a.702.702 0 0 1 .992 0zm3.97 3.97a.702.702 0 0 1 0 .992l-3.97 3.97a.702.702 0 0 1-.992-.992l3.97-3.97a.702.702 0 0 1 .992 0z" fill="#CCD5E1"/><g transform="rotate(45 3.842 60.75)"><mask id="c" fill="#fff"><use xlink:href="#a"/></mask><path d="M6.381 51.93C2.857 51.93 0 49.132 0 45.68V.625C0 .28.285 0 .638 0h28.198c.352 0 .638.28.638.625V45.68c0 3.451-2.858 6.249-6.382 6.249H6.382z" fill="url(#b)" mask="url(#c)"/></g><path d="M44.42 19.609 60.39 35.58a.637.637 0 0 1 0 .9L30.167 66.705c-1.147 1.146-3.23.922-4.653-.501L13.796 54.486c-1.423-1.423-1.647-3.506-.5-4.653L43.52 19.61a.637.637 0 0 1 .9 0z" fill="#FFF"/><path d="m56.637 31.826 3.754 3.754a.637.637 0 0 1 0 .9L30.076 66.796a2.807 2.807 0 0 1-3.97 0l-2.22-2.22 32.75-32.75z" fill="#84EBC6"/><g transform="rotate(45 -14.961 64.871)" fill="#4D80DA"><circle cx="1.404" cy="26.667" r="1.404"/><circle cx="1.404" cy="18.246" r="1.404"/><circle cx="1.404" cy="9.825" r="1.404"/><circle cx="1.404" cy="1.404" r="1.404"/></g></g></svg>