<?xml version="1.0" encoding="utf-8"?>
<!-- Generator: Adobe Illustrator 23.0.6, SVG Export Plug-In . SVG Version: 6.00 Build 0)  -->
<svg version="1.1" id="Layer_1" xmlns="http://www.w3.org/2000/svg" x="0px" y="0px"
     viewBox="0 0 390 380" style="enable-background:new 0 0 390 380;" xml:space="preserve">
<style type="text/css">
	.st0{fill:#012335;}
	.st1{opacity:0.2;}
	.st2{fill:#39BA8B;}
	.st3{fill:#0A2840;}
	.st4{fill:#FFFFFF;}
	.st5{opacity:0.15;fill:#FFFFFF;}
	.st6{opacity:0.25;fill:#FFFFFF;}
	.st7{fill:#F7B295;}
	.st8{fill:#F29F87;}
	.st9{fill:#4485B4;}
	.st10{fill:#34739B;}
	.st11{fill:#654258;}
	.st12{fill:#F39680;}
	.st13{fill:#784A43;}
	.st14{opacity:0.2;fill-rule:evenodd;clip-rule:evenodd;fill:#00FF9D;stroke:#FFFFFF;stroke-width:1.0183;stroke-miterlimit:10;}
	.st15{fill-rule:evenodd;clip-rule:evenodd;fill:#39BA8B;fill-opacity:0.5;}
	.st16{fill-rule:evenodd;clip-rule:evenodd;fill:#39BA8B;}
	.st17{fill-rule:evenodd;clip-rule:evenodd;fill:#FEFEFE;}
</style>
<g>
	<g>
		<g>
			<path class="st0" d="M243.48,7.41c14.42,2.42,28.12,7.01,41.1,13.76c4.07,2.12,5.72,5.79,4.74,10.2
				c-0.81,3.67-4.12,6.56-8.05,6.58c-1.72,0.01-3.57-0.5-5.14-1.26C263,30.39,249.25,26.2,234.79,24.42
				c-15.36-1.89-30.54-0.91-45.52,3.05c-3.47,0.92-5.46,3.16-5.59,6.18c-0.19,4.38,3.52,7.48,7.92,6.59
				c3.84-0.78,7.67-1.64,11.52-2.43c32.58,0.18,35.32,29.19,16.98,32.38c-4.24,0.83-8.47,1.69-12.7,2.57
				c-0.71,0.15-1.42,0.39-2.09,0.67c-2.37,1.01-3.6,3.42-3.05,5.87c0.54,2.41,2.77,4.12,5.29,3.98c0.85-0.05,1.7-0.28,2.54-0.51
				c22.36-6.01,44.87-6.39,67.37-1.16c50.27,11.68,89.29,49.45,103.03,99.41c3.08,11.2,4.63,22.61,4.8,34.22
				c0.08,5.61-3.68,9.81-8.83,9.84c-5.17,0.03-9.1-4.03-9.18-9.58c-0.15-9.93-1.47-19.7-4.05-29.29c-0.98-3.65-3.79-5.74-7.12-5.44
				c-4.15,0.37-6.79,4.24-5.83,8.58c0.62,2.8,1.34,5.58,1.88,8.4c0.86,4.5-1.24,8.01-5.11,8.78c-3.98,0.79-7.16-1.78-8.23-6.23
				c-1.24-5.19-2.62-10.35-4.23-15.43c-1.29-4.05-5.02-5.8-8.68-4.47c-3.54,1.28-5.13,5.11-3.79,9.1c0.57,1.71,1.19,3.41,1.66,5.15
				c0.72,2.66-0.54,5.07-2.91,5.78c-2.42,0.72-4.74-0.53-5.67-3.11c-0.52-1.44-8.2,8.94-7.32,14.2c2.7,16.09,2.65,32.24-0.46,48.24
				c-6.5,33.43-21.62,62.11-48.4,83.6c-25.84,20.73-55.26,32.31-88.74,32.03c-6.17-0.05-12.35-0.67-18.49-1.37
				c-5.55-0.63-8.84-5-8.11-10.15c0.73-5.2,5.23-8.39,10.76-7.68c15.82,2.03,31.47,1.1,46.91-2.96c4.08-1.07,6.23-4.27,5.37-7.98
				c-0.86-3.75-4.41-5.79-8.51-4.88c-2.79,0.62-5.57,1.32-8.38,1.86c-4.41,0.84-7.96-1.35-8.7-5.24c-0.73-3.88,1.84-7.1,6.15-8.13
				c5.1-1.22,10.19-2.55,15.2-4.11c4.22-1.32,6.08-5.01,4.78-8.71c-1.28-3.66-5.08-5.25-9.21-3.86c-1.58,0.53-3.15,1.08-4.75,1.54
				c-2.88,0.83-5.35-0.36-6.09-2.89c-0.75-2.54-11.5-11.63-18.67-10.33c-52.64,9.57-106.44-12.57-137.45-56.36
				C14.43,220.6,5.86,194.35,5.3,165.46c-0.11-5.51,3.57-9.67,8.64-9.82c5.22-0.16,9.28,3.97,9.37,9.6
				c0.15,9.86,1.48,19.56,3.99,29.1c0.79,2.98,2.5,5.01,5.61,5.53c4.62,0.78,8.41-3.35,7.45-8.13c-0.6-3.01-1.41-5.98-1.97-9
				c-0.81-4.33,1.37-7.83,5.18-8.56c3.93-0.75,7.11,1.76,8.16,6.08c1.25,5.18,15.49,0.9,17.83,0.1c2.43-0.84,4.66,0.26,5.79,2.86
				c1.3,2.97,3.41,4.06,6.16,3.17c2.72-0.88,3.99-3.31,3.26-6.42c-3.4-14.33-4.66-28.87-3.78-43.55c1.3-21.54,6.88-41.98,18-60.48
				C125.92,31.1,165.65,7.42,217.86,5.46c8.52-0.32,17.1,0.9,25.65,1.4C243.5,7.05,243.49,7.23,243.48,7.41z"/>
		</g>
		<g class="st1">
			<g>
				<path class="st2" d="M344.1,203.72c0.02,11.67-1.75,23.07-5.31,34.18c-1.12,3.49-3.76,5.27-7.34,5.08
					c-2.97-0.15-5.67-2.37-6.21-5.46c-0.23-1.35-0.08-2.88,0.3-4.21c3.19-11.18,4.65-22.56,4.12-34.18
					c-0.56-12.34-3.34-24.17-8.41-35.44c-1.17-2.61-3.19-3.88-5.57-3.58c-3.45,0.43-5.38,3.76-4.1,7.11
					c1.12,2.92,2.3,5.82,3.42,8.75c0.63,1.63,0.52,3.25-0.33,4.77c-1.15,2.04-2.96,3.05-5.27,2.86c-2.52-0.2-4.05-1.73-5.03-4.03
					c-1.9-4.43-3.84-8.85-5.92-13.2c-1.11-2.31-3.37-3.38-5.46-2.99c-3.41,0.64-5.25,4.23-3.77,7.52c0.54,1.2,1.28,2.32,1.99,3.44
					c3.28,5.19,5.84,10.72,7.48,16.64c0.27,0.97,0.34,2.14,0.07,3.1c-0.43,1.51-1.69,2.27-3.28,2.29c-1.6,0.03-2.86-1.04-3.5-2.74
					c-1.21-3.23-2.45-6.44-3.69-9.66c-0.21-0.54-0.49-1.06-0.8-1.55c-1.11-1.73-3.15-2.38-4.99-1.62c-1.81,0.75-2.85,2.73-2.41,4.7
					c0.15,0.66,0.45,1.3,0.73,1.93c7.66,16.81,10.93,34.48,9.83,52.89c-2.47,41.12-26.81,76.85-64.02,94.28
					c-8.34,3.91-17.05,6.64-26.1,8.31c-4.37,0.81-8.15-1.6-8.86-5.64c-0.71-4.07,1.94-7.7,6.27-8.5c7.74-1.43,15.2-3.77,22.35-7.07
					c2.72-1.26,3.98-3.75,3.31-6.33c-0.84-3.22-4.21-4.78-7.47-3.46c-2.11,0.86-4.18,1.8-6.32,2.59c-3.4,1.27-6.42,0.09-7.54-2.86
					c-1.15-3.03,0.44-5.87,3.78-7.3c3.89-1.66,7.74-3.43,11.49-5.37c3-1.55,3.86-4.72,2.34-7.43c-1.47-2.62-4.67-3.36-7.61-1.78
					c-1.26,0.68-2.51,1.39-3.8,1.99c-1.98,0.92-4.03,0.25-4.9-1.52c-0.89-1.81-0.21-3.8,1.68-4.88c1.06-0.6,2.16-1.13,3.22-1.73
					c2.36-1.34,3.15-3.4,2.12-5.41c-1.03-1.99-3.18-2.54-5.64-1.52c-3.91,1.63-7.77,3.39-11.76,4.79
					c-12.21,4.26-24.84,6.36-37.75,6.03c-26.98-0.69-51.39-8.8-71.72-27.03c-19.62-17.59-32.57-39.23-36.78-65.62
					c-0.78-4.86-1.12-9.81-1.38-14.74c-0.24-4.46,2.74-7.62,6.86-7.73c4.16-0.11,7.24,3,7.42,7.46c0.51,12.73,3.31,24.92,8.52,36.54
					c1.38,3.07,4.16,4.34,6.95,3.17c2.82-1.17,3.94-4.24,2.68-7.34c-0.86-2.12-1.77-4.21-2.56-6.35c-1.24-3.36,0-6.45,2.94-7.54
					c2.94-1.09,5.79,0.51,7.17,3.76c1.63,3.86,3.34,7.69,5.23,11.42c1.59,3.15,4.72,4.13,7.44,2.61c2.69-1.5,3.43-4.7,1.8-7.76
					c-0.62-1.17-1.26-2.34-1.83-3.53c-1.03-2.16-0.42-4.26,1.45-5.18c1.89-0.93,3.85-0.13,4.99,2.02c0.27,0.52,0.52,1.05,0.79,1.56
					c1.46,2.75,3.61,3.71,5.75,2.57c2.2-1.18,2.49-3.4,1.16-6.23c-2.47-5.28-5.13-10.51-7.1-15.99
					c-14.45-40.18-4.28-85.47,25.82-115.68c16.2-16.26,35.57-26.48,58.06-30.75c4.29-0.81,8.02,1.53,8.82,5.5
					c0.82,4.09-1.87,7.83-6.26,8.64c-7.69,1.43-15.09,3.75-22.2,7c-2.23,1.01-3.58,2.63-3.58,5.15c0.01,3.74,3.73,6.17,7.33,4.79
					c2.27-0.87,4.49-1.9,6.77-2.75c3.27-1.21,6.3,0.04,7.37,2.94c1.11,3-0.43,5.83-3.67,7.23c-3.88,1.67-7.74,3.43-11.51,5.35
					c-3.09,1.58-4,4.78-2.45,7.53c1.47,2.6,4.7,3.34,7.62,1.74c1.21-0.66,2.41-1.33,3.66-1.92c2.01-0.96,4.02-0.39,4.96,1.35
					c0.98,1.8,0.41,3.7-1.47,4.94c-2.15,1.41-2.72,3.22-1.66,5.27c1.05,2.03,3.12,2.7,5.44,1.71c10.74-4.58,21.94-7.5,33.52-8.74
					c17-1.83,33.71-0.14,49.63,6.16c38.6,15.28,62.36,43.42,70.81,84.26c1.38,6.67,1.57,13.58,2.3,20.38
					C344.39,203.69,344.25,203.7,344.1,203.72z"/>
				<path class="st2" d="M246.91,68.59c-0.27-0.05-0.85-0.12-1.4-0.28c-13.72-4.04-27.4-4.09-41.08,0.23
					c-3.58,1.13-6.69-1.2-6.45-4.69c0.13-2,1.41-3.43,3.78-4.19c7.2-2.32,14.59-3.48,22.15-3.56c8.15-0.09,16.12,1.02,23.9,3.48
					c0.4,0.13,0.81,0.24,1.2,0.4c2.18,0.9,3.3,2.9,2.87,5.09C251.48,67.14,249.53,68.61,246.91,68.59z"/>
				<path class="st2" d="M58.18,154.89c0,1.11,0.02,2.23,0,3.34c-0.06,3.61-2.8,6.28-6.41,6.26c-3.51-0.02-6.21-2.7-6.27-6.25
					c-0.03-2.23-0.04-4.46,0-6.69c0.06-3.52,2.81-6.18,6.34-6.18c3.53,0,6.27,2.65,6.35,6.17C58.2,152.67,58.18,153.78,58.18,154.89
					z"/>
				<path class="st2" d="M318.8,201.47c-0.17,2.61-0.27,4.73-0.46,6.84c-0.22,2.61-2.19,4.18-4.93,4.02
					c-2.45-0.14-4.06-2.02-4.07-4.55c-0.01-4.34-0.08-8.67-0.2-13.01c-0.07-2.52,1.34-4.39,3.73-4.72c2.65-0.36,4.85,1.09,5.21,3.67
					C318.46,196.44,318.6,199.2,318.8,201.47z"/>
			</g>
		</g>
		<g>
			<g>
				<path class="st3" d="M189.4,251.48c-4.77,0.01-9.44-0.72-13.98-2.19c-1.43-0.46-2.16-1.55-2.08-3.03
					c0.06-1.23,0.97-2.34,2.23-2.56c0.55-0.1,1.18-0.03,1.72,0.12c4.57,1.32,9.23,1.92,13.98,1.7c5.05-0.23,9.89-1.38,14.49-3.47
					c1.07-0.48,1.59-1.32,1.47-2.3c-0.18-1.42-1.54-2.22-2.91-1.69c-1.2,0.46-2.38,0.95-3.58,1.41c-0.67,0.26-1.33,0.22-1.95-0.14
					c-0.83-0.48-1.25-1.22-1.17-2.17c0.08-1.04,0.71-1.67,1.65-2.07c1.81-0.78,3.62-1.58,5.4-2.44c0.95-0.46,1.38-1.39,1.22-2.25
					c-0.26-1.4-1.73-2.16-3.08-1.56c-0.49,0.22-0.95,0.53-1.41,0.82c-2.12,1.35-4.38,2.41-6.81,3.08c-0.4,0.11-0.88,0.14-1.27,0.03
					c-0.62-0.18-0.93-0.7-0.94-1.35c-0.01-0.66,0.42-1.18,1.12-1.44c1.32-0.5,2.64-1.01,3.95-1.52c0.22-0.09,0.44-0.2,0.64-0.33
					c0.71-0.46,0.98-1.3,0.66-2.06c-0.31-0.75-1.12-1.18-1.92-0.99c-0.27,0.06-0.53,0.18-0.79,0.3c-6.88,3.16-14.1,4.51-21.63,4.05
					c-16.82-1.02-31.44-11.05-38.57-26.39c-1.6-3.44-2.72-7.03-3.4-10.76c-0.33-1.8,0.65-3.36,2.31-3.65
					c1.66-0.29,3.15,0.8,3.48,2.58c0.59,3.19,1.54,6.26,2.89,9.21c0.51,1.12,1.53,1.64,2.59,1.36c1.32-0.34,1.96-1.73,1.41-3.08
					c-0.35-0.87-0.74-1.73-1.06-2.6c-0.52-1.4-0.04-2.65,1.17-3.11c1.24-0.47,2.4,0.18,2.99,1.56c0.68,1.6,1.4,3.19,2.2,4.74
					c0.63,1.24,1.93,1.59,3.04,0.97c1.07-0.61,1.38-1.92,0.73-3.14c-0.28-0.52-0.57-1.03-0.81-1.57c-0.38-0.82-0.1-1.66,0.62-2.02
					c0.74-0.37,1.56-0.09,2,0.69c0.25,0.44,0.46,0.89,0.71,1.33c0.55,0.97,1.39,1.3,2.21,0.87c0.81-0.42,1.04-1.31,0.62-2.32
					c-0.67-1.61-1.39-3.2-1.96-4.85c-1.74-5.03-2.6-10.24-2.46-15.56c0.28-11.12,3.6-21.18,11.06-29.57
					c7.2-8.09,16.05-13.42,26.84-15.16c1.99-0.32,4.01-0.46,6.03-0.57c1.82-0.1,3.12,1.13,3.16,2.83c0.05,1.71-1.23,2.99-3.05,3.06
					c-5.21,0.21-10.19,1.36-14.95,3.51c-1.26,0.57-1.77,1.71-1.3,2.86c0.48,1.16,1.73,1.62,3,1.11c0.87-0.35,1.72-0.73,2.6-1.06
					c1.37-0.51,2.64,0,3.08,1.21c0.45,1.21-0.21,2.39-1.54,2.96c-1.58,0.67-3.14,1.38-4.67,2.15c-1.29,0.65-1.69,1.95-1.07,3.07
					c0.61,1.11,1.92,1.41,3.18,0.74c0.48-0.26,0.96-0.52,1.44-0.76c0.88-0.43,1.74-0.17,2.12,0.6c0.38,0.78,0.05,1.59-0.83,2.06
					c-0.21,0.11-0.43,0.21-0.64,0.33c-1.13,0.6-1.52,1.49-1.05,2.37c0.48,0.91,1.39,1.03,2.55,0.48c2.16-1.02,4.3-2.11,6.54-2.93
					c16.44-5.96,34.96-1.76,47.32,10.64c6.65,6.68,10.83,14.66,12.58,23.94c0.33,1.77-0.63,3.31-2.25,3.64
					c-1.67,0.34-3.2-0.77-3.54-2.58c-0.58-3.17-1.54-6.22-2.86-9.15c-0.41-0.92-1.08-1.48-2.11-1.47c-1.53,0-2.53,1.54-1.96,3.02
					c0.36,0.94,0.78,1.85,1.12,2.79c0.49,1.35-0.02,2.6-1.2,3.04c-1.23,0.46-2.39-0.18-2.96-1.51c-0.69-1.6-1.4-3.19-2.19-4.74
					c-0.65-1.27-1.96-1.65-3.08-1.01c-1.06,0.61-1.36,1.94-0.71,3.14c0.27,0.5,0.54,0.99,0.79,1.51c0.39,0.83,0.16,1.66-0.55,2.05
					c-0.74,0.4-1.51,0.17-2.02-0.6c-0.58-0.89-1.32-1.12-2.15-0.68c-0.83,0.43-1.11,1.28-0.7,2.24c1.87,4.43,3.07,9.04,3.58,13.82
					c0.75,7.01,0.06,13.9-2.52,20.46c-6.25,15.91-17.76,25.7-34.47,29.19c-2.73,0.57-5.56,0.65-8.34,0.95
					C189.41,251.6,189.41,251.54,189.4,251.48z"/>
				<path class="st3" d="M244.67,211.41c0.02-0.11,0.05-0.35,0.12-0.58c1.65-5.65,1.67-11.29-0.1-16.93
					c-0.46-1.48,0.49-2.76,1.92-2.66c0.82,0.06,1.4,0.58,1.72,1.56c0.95,2.97,1.42,6.01,1.46,9.13c0.04,3.36-0.42,6.65-1.43,9.85
					c-0.05,0.17-0.1,0.34-0.16,0.5c-0.37,0.9-1.19,1.36-2.08,1.18C245.27,213.3,244.66,212.49,244.67,211.41z"/>
				<path class="st3" d="M209.37,133.62c-0.46,0-0.91,0.01-1.37,0c-1.48-0.03-2.57-1.16-2.56-2.64c0.01-1.45,1.1-2.56,2.56-2.58
					c0.91-0.01,1.82-0.02,2.74,0c1.44,0.02,2.53,1.16,2.53,2.61c0,1.46-1.08,2.58-2.52,2.62
					C210.28,133.63,209.83,133.62,209.37,133.62z"/>
				<path class="st3" d="M190.32,241.05c-1.07-0.07-1.93-0.11-2.8-0.19c-1.07-0.09-1.71-0.9-1.65-2.03
					c0.06-1.01,0.83-1.67,1.86-1.68c1.77-0.01,3.55-0.03,5.32-0.08c1.03-0.03,1.8,0.55,1.93,1.54c0.15,1.09-0.45,2-1.5,2.15
					C192.38,240.91,191.25,240.97,190.32,241.05z"/>
			</g>
		</g>
		<g>
			<ellipse class="st2" cx="127.77" cy="113.27" rx="1.99" ry="2"/>
			<ellipse class="st4" cx="118.31" cy="82.41" rx="1.99" ry="2"/>
			<ellipse class="st5" cx="171.12" cy="37.08" rx="1.49" ry="1.5"/>
			<ellipse class="st4" cx="221.74" cy="8.47" rx="0.99" ry="1"/>
			<ellipse class="st5" cx="173.94" cy="78.57" rx="2.53" ry="2.54"/>
			<ellipse class="st4" cx="135.88" cy="94.96" rx="0.99" ry="1"/>
			<ellipse class="st4" cx="107.17" cy="145.89" rx="1.49" ry="1.5"/>
			<ellipse class="st2" cx="173.65" cy="137.75" rx="0.99" ry="1"/>
			<ellipse class="st6" cx="76.59" cy="221.72" rx="2.53" ry="2.54"/>
			<ellipse class="st4" cx="32.65" cy="224.26" rx="1.49" ry="1.5"/>
			<ellipse class="st6" cx="27.59" cy="253.62" rx="2.53" ry="2.54"/>
			<ellipse class="st2" cx="94.43" cy="304.15" rx="2.53" ry="2.54"/>
			<ellipse class="st4" cx="70.75" cy="264.34" rx="2.53" ry="2.54"/>
			<ellipse class="st4" cx="100.98" cy="253.62" rx="1.49" ry="1.5"/>
			<ellipse class="st5" cx="130.82" cy="274.25" rx="2.53" ry="2.54"/>
			<ellipse class="st4" cx="133.35" cy="188.73" rx="1.49" ry="1.5"/>
			<ellipse class="st4" cx="186.83" cy="100.04" rx="1.49" ry="1.5"/>
			<ellipse class="st4" cx="135.88" cy="45.06" rx="0.99" ry="1"/>
			<ellipse class="st5" cx="79.12" cy="66.08" rx="2.53" ry="2.54"/>
			<ellipse class="st2" cx="79.12" cy="110.73" rx="1.49" ry="1.5"/>
			<ellipse class="st6" cx="34.15" cy="146.93" rx="1.52" ry="1.53"/>
			<ellipse class="st4" cx="83.8" cy="171.02" rx="1.99" ry="2"/>
			<ellipse class="st2" cx="65.68" cy="191.27" rx="1.99" ry="2"/>
			<ellipse class="st4" cx="140.26" cy="157.3" rx="1.49" ry="1.5"/>
			<ellipse class="st4" cx="144.94" cy="217.59" rx="1.99" ry="2"/>
			<ellipse class="st5" cx="159.3" cy="251.07" rx="1.49" ry="1.5"/>
			<ellipse class="st6" cx="168.59" cy="215.05" rx="2.53" ry="2.54"/>
			<ellipse class="st4" cx="173.03" cy="173.56" rx="0.99" ry="1"/>
			<circle class="st4" cx="126.82" cy="237.84" r="0.5"/>
		</g>
		<g>
			<ellipse class="st2" cx="263.11" cy="246.16" rx="1.99" ry="2"/>
			<ellipse class="st4" cx="272.56" cy="277.02" rx="1.99" ry="2"/>
			<ellipse class="st5" cx="219.76" cy="322.36" rx="1.49" ry="1.5"/>
			<ellipse class="st4" cx="169.14" cy="350.97" rx="0.99" ry="1"/>
			<ellipse class="st5" cx="216.94" cy="280.87" rx="2.53" ry="2.54"/>
			<ellipse class="st4" cx="255" cy="264.48" rx="0.99" ry="1"/>
			<ellipse class="st4" cx="283.71" cy="213.54" rx="1.49" ry="1.5"/>
			<ellipse class="st2" cx="217.23" cy="221.68" rx="0.99" ry="1"/>
			<ellipse class="st6" cx="314.29" cy="137.71" rx="2.53" ry="2.54"/>
			<ellipse class="st4" cx="358.22" cy="135.17" rx="1.49" ry="1.5"/>
			<ellipse class="st2" cx="305.12" cy="68.62" rx="2.53" ry="2.54"/>
			<ellipse class="st4" cx="320.13" cy="95.1" rx="2.53" ry="2.54"/>
			<ellipse class="st4" cx="289.9" cy="105.82" rx="1.49" ry="1.5"/>
			<ellipse class="st5" cx="260.06" cy="85.19" rx="2.53" ry="2.54"/>
			<ellipse class="st4" cx="257.53" cy="170.71" rx="1.49" ry="1.5"/>
			<ellipse class="st4" cx="204.05" cy="259.39" rx="1.49" ry="1.5"/>
			<ellipse class="st4" cx="255" cy="314.38" rx="0.99" ry="1"/>
			<ellipse class="st5" cx="311.76" cy="293.35" rx="2.53" ry="2.54"/>
			<ellipse class="st2" cx="311.76" cy="248.7" rx="1.49" ry="1.5"/>
			<ellipse class="st6" cx="338.52" cy="211.61" rx="2.53" ry="2.54"/>
			<ellipse class="st4" cx="307.07" cy="188.42" rx="1.99" ry="2"/>
			<ellipse class="st2" cx="325.19" cy="168.16" rx="1.99" ry="2"/>
			<ellipse class="st4" cx="250.62" cy="202.13" rx="1.49" ry="1.5"/>
			<ellipse class="st4" cx="245.93" cy="141.84" rx="1.99" ry="2"/>
			<ellipse class="st5" cx="231.58" cy="108.36" rx="1.49" ry="1.5"/>
			<ellipse class="st6" cx="222.29" cy="144.38" rx="2.53" ry="2.54"/>
			<ellipse class="st4" cx="217.84" cy="185.87" rx="0.99" ry="1"/>
			<circle class="st4" cx="264.06" cy="121.59" r="0.5"/>
		</g>
	</g>
	<g>
		<g>
			<path class="st2" d="M183.75,106.97c0,0-12.91,5.58-20.1,31.44s-5.59,34.91-5.59,34.91l13.11,2.29l2.5-11.45L183.75,106.97z"/>
			<path class="st7" d="M150.07,187.07l8-13.74l13.11,2.29c0,0-10.43,10.4-10.16,11.26L150.07,187.07z"/>
			<g>
				<path class="st7" d="M155.66,178.68c0,0-8.97,2.16-13.59,1.08c0,0-1-0.44-1.68,0.92s0.46,3.25,5.86,4.66l-11.18,13.64
					c0,0-0.66,0.8,0.58,1.79c1.23,0.99,1.67,0.07,1.67,0.07l8.42-8.17l-6.97,11.6c0,0-0.4,0.87,0.56,1.44
					c0.96,0.57,1.57-0.36,1.57-0.36l7.28-8.82l-3.2,10.31c0,0-0.06,0.78,0.81,1c0.87,0.23,1.18-0.64,1.18-0.64l5.07-9.64l-1.39,8.01
					c0,0,0.39,1.45,1.45,1.02s0.99-1.07,0.99-1.07l2.67-7.15c0,0,5.7-7.47,6.22-8.39c0.53-0.92,2.09-5.28,0.49-6.86
					C160.86,181.55,157.72,178.24,155.66,178.68z"/>
				<path class="st8" d="M145.66,186.05c0,0,5.17,3,8.95-0.53c0,0,0.91-0.73,0.38-1.22c-0.53-0.49-1.4,0.35-1.4,0.35
					s-3.21,2.25-7.35,0.69L145.66,186.05z"/>
			</g>
			<polygon class="st8" points="161.06,181.76 171.18,175.62 163.02,184.15 			"/>
		</g>
		<g>
			<path class="st2" d="M206.84,106.97c0,0,12.91,5.58,20.1,31.44s5.59,34.91,5.59,34.91l-13.11,2.29l-2.5-11.45L206.84,106.97z"/>
			<path class="st7" d="M240.53,187.07l-8-13.74l-13.11,2.29c0,0,10.43,10.4,10.16,11.26L240.53,187.07z"/>
			<g>
				<path class="st7" d="M234.94,178.68c0,0,8.97,2.16,13.59,1.08c0,0,1-0.44,1.68,0.92s-0.46,3.25-5.86,4.66l11.18,13.64
					c0,0,0.66,0.8-0.58,1.79s-1.67,0.07-1.67,0.07l-8.42-8.17l6.97,11.6c0,0,0.4,0.87-0.56,1.44c-0.96,0.57-1.57-0.36-1.57-0.36
					l-7.28-8.82l3.2,10.31c0,0,0.06,0.78-0.81,1c-0.87,0.23-1.18-0.64-1.18-0.64l-5.07-9.64l1.39,8.01c0,0-0.39,1.45-1.45,1.02
					s-0.99-1.07-0.99-1.07l-2.67-7.15c0,0-5.7-7.47-6.22-8.39c-0.53-0.92-2.09-5.28-0.49-6.86
					C229.74,181.55,232.87,178.24,234.94,178.68z"/>
				<path class="st8" d="M244.93,186.05c0,0-5.17,3-8.95-0.53c0,0-0.91-0.73-0.38-1.22c0.53-0.49,1.4,0.35,1.4,0.35
					s3.21,2.25,7.35,0.69L244.93,186.05z"/>
			</g>
			<polygon class="st8" points="229.53,181.76 219.41,175.62 227.57,184.15 			"/>
		</g>
		<path class="st4" d="M210.26,331.51c0,0,11.96,3.48,18.6,9.89c6.64,6.41,6.47,8.92,5.88,9.85s-6.26,3.14-13.62,0.64
			s-20.77-11.72-21.15-14.22c-0.38-2.51,0.2-4.78,0.65-4.98S210.26,331.51,210.26,331.51z"/>
		<path class="st2" d="M228.86,341.4c0,0-4.23,5.99-4.65,6.07c-0.42,0.08-3.3-0.81-3.98-1.06c-0.68-0.25-16.58-7.94-17.3-10.66
			c-0.72-2.72,7.31-4.24,7.32-4.24h0C210.26,331.51,222.22,334.99,228.86,341.4L228.86,341.4z"/>
		<path class="st4" d="M180.67,331.51c0,0-11.96,3.48-18.6,9.89s-6.47,8.92-5.88,9.85s6.26,3.14,13.62,0.64
			c7.36-2.51,20.77-11.72,21.15-14.22c0.38-2.51-0.2-4.78-0.65-4.98S180.67,331.51,180.67,331.51z"/>
		<path class="st2" d="M162.07,341.4c0,0,4.23,5.99,4.65,6.07c0.42,0.08,3.3-0.81,3.98-1.06c0.68-0.25,16.58-7.94,17.3-10.66
			c0.72-2.72-7.31-4.24-7.32-4.24h0C180.67,331.51,168.71,334.99,162.07,341.4L162.07,341.4z"/>
		<path class="st9" d="M171.29,197.45l24.09,2.77l24.09-2.77c0,0-2.48,18.9-2.09,21.96c0.4,3.06-0.93,55.59-0.93,56.92
			c0,1.33-6.09,54.39-6.09,54.39s-0.4,6.52-5.3,5.85c-4.9-0.66-4.77-5.19-4.64-7.45c0,0,1.72-53.2,1.99-54.66
			c0.26-1.46-4.5-53.15-5.56-53.9c-1.06-0.76-1.88-0.76-2.94,0c-1.06,0.76-5.83,52.44-5.56,53.9c0.26,1.46,1.99,54.66,1.99,54.66
			c0.13,2.26,0.26,6.78-4.64,7.45c-4.9,0.66-5.3-5.85-5.3-5.85s-6.09-53.06-6.09-54.39c0-1.33-1.32-53.86-0.93-56.92
			C173.77,216.35,171.29,197.45,171.29,197.45z"/>
		<g>
			<path class="st10" d="M180.38,201.1c0,0,0.5,4.19-6.87,7.23C173.51,208.33,182.73,207.81,180.38,201.1z"/>
			<path class="st10" d="M210.21,201.1c0,0-0.5,4.19,6.87,7.23C217.08,208.33,207.86,207.81,210.21,201.1z"/>
		</g>
		<path class="st10" d="M219.47,197.45c0,0-0.25,1.91-0.58,4.6c-0.32,0.06-0.65,0.1-0.99,0.1c0,0-10.76,0.97-22.52,0.97
			s-22.61-0.97-22.61-0.97c-0.31,0-0.6-0.03-0.9-0.08c-0.33-2.71-0.58-4.62-0.58-4.62l24.09,2.77L219.47,197.45z"/>
		<path class="st4" d="M186.05,105.34h18.81c0,0,7.6,3.92,8.97,14.44c1.13,8.65,6.43,56.89,7.91,73.74c0.28,3.12-2.17,5.81-5.3,5.81
			c0,0-10.07,0.91-21.07,0.91c-11,0-21.16-0.91-21.16-0.91c-3.09,0-5.5-2.67-5.2-5.76c1.65-16.9,7.42-65.66,7.98-73.79
			C177.68,109.91,186.05,105.34,186.05,105.34z"/>
		<g>
			<path class="st7" d="M193.72,115.87h3.47c4.24,0,7.67-3.43,7.67-7.67v-9.27h-18.81v9.27
				C186.05,112.43,189.48,115.87,193.72,115.87z"/>
			<path class="st8" d="M204.86,99.34c0,0-3.01,8.06-9.1,8.06s-9.72-7.9-9.72-7.9L204.86,99.34z"/>
			<path class="st11" d="M173.05,63.34c0,0-2.62-14.01-2.21-16.13c0.41-2.11,0.76-1.61,1.09-3.02c0.32-1.41-2.62-2.11-2.71-9.16
				c-0.08-7.05-0.24-7.35,0.79-7.25s31.93,3.02,35.44,3.02s10.03,1.51,10.43,7.65c0,0,4.15,2.22,3.88,8.86s-1.19,16.03-1.19,16.03
				H173.05z"/>
			<path class="st7" d="M204.71,43.75c0,0-9.46,10.07-26.45,4.92c0,0-1.71-1.53-1.82,1.47c-0.11,3,0,12.96,0,12.96
				s-6.39-0.34-6.73,2.75c-0.34,3.09-1.71,10.19,2.51,12.82c4.22,2.63,4.1,0,4.1,0l0.46,8.01c0,0,0.23,2.86,2.05,4.69
				s9.92,13.39,16.53,13.39c6.61,0,17.79-14.42,17.79-14.42s1.48-2.63,1.6-4.81c0.11-2.17,0-5.72,0-5.72s7.07,0.23,7.98-6.64
				c0.91-6.87-1.71-10.42-7.64-10.3l-0.11-9.27c0,0,0.34-5.15-1.82-6.98C210.98,44.78,206.46,42.25,204.71,43.75z"/>
			<ellipse class="st12" cx="208.85" cy="75.2" rx="2.91" ry="2.92"/>
			<ellipse class="st12" cx="182.37" cy="75.61" rx="2.91" ry="2.92"/>
			<path class="st4" d="M188.69,85.58c0,0,1.6,2.72,6.46,2.72s6.18-2.72,6.18-2.72H188.69z"/>
			<path class="st4" d="M187.57,70.17L187.57,70.17c0.84,0,1.52-0.68,1.52-1.52v-2.09c0-0.84-0.68-1.52-1.52-1.52l0,0
				c-0.84,0-1.52,0.68-1.52,1.52v2.09C186.05,69.49,186.73,70.17,187.57,70.17z"/>
			<path class="st13" d="M187.57,70.36L187.57,70.36c0.84,0,1.52-0.68,1.52-1.52v-0.01c0-0.84-0.68-1.52-1.52-1.52l0,0
				c-0.84,0-1.52,0.68-1.52,1.52v0.01C186.05,69.67,186.73,70.36,187.57,70.36z"/>
			<path class="st4" d="M203.64,70.17L203.64,70.17c0.84,0,1.52-0.68,1.52-1.52v-2.09c0-0.84-0.68-1.52-1.52-1.52l0,0
				c-0.84,0-1.52,0.68-1.52,1.52v2.09C202.11,69.49,202.8,70.17,203.64,70.17z"/>
			<path class="st13" d="M189.9,62.42V59.4c0,0-3.46-1.41-6.14,1.01v2.94C183.75,63.34,186.69,61.11,189.9,62.42z"/>
			<path class="st13" d="M200.7,62.42V59.4c0,0,3.46-1.41,6.14,1.01v2.94C206.84,63.34,203.91,61.11,200.7,62.42z"/>
			<path class="st13" d="M203.64,70.36L203.64,70.36c0.84,0,1.52-0.68,1.52-1.52v-0.01c0-0.84-0.68-1.52-1.52-1.52l0,0
				c-0.84,0-1.52,0.68-1.52,1.52v0.01C202.11,69.67,202.8,70.36,203.64,70.36z"/>
		</g>
	</g>
	<ellipse class="st14" cx="195.38" cy="175.62" rx="50.82" ry="51.01"/>
	<ellipse class="st14" cx="195.38" cy="175.62" rx="40.65" ry="40.81"/>
	<ellipse class="st14" cx="195.38" cy="175.62" rx="30.49" ry="30.61"/>
	<ellipse class="st14" cx="195.38" cy="175.62" rx="20.33" ry="20.41"/>
	<g id="Page-1_5_">
		<g id="Artboard-Copy-4_5_" transform="translate(-152.000000, -46.000000)">
			<g id="Group-2-Copy_5_" transform="translate(147.000000, 41.000000)">
				<g id="Group_5_">
					<path id="Rectangle_9_" class="st15" d="M192,164.08h16.97c4.41,0,7.99,3.59,7.99,8.02v17.04c0,4.43-3.58,8.02-7.99,8.02H192
						c-4.41,0-7.99-3.59-7.99-8.02V172.1C184.01,167.67,187.59,164.08,192,164.08z"/>
					<path class="st16" d="M187.52,168.29l15.01-5.48c4.15-1.51,8.73,0.63,10.24,4.79l5.46,15.07c1.51,4.16-0.63,8.76-4.77,10.28
						l-15.01,5.48c-4.15,1.51-8.73-0.63-10.24-4.79l-5.46-15.07C181.24,174.41,183.37,169.8,187.52,168.29z"/>
					<path id="Fill-13_5_" class="st17" d="M200.47,179.22c0.48-0.46,0.97-0.87,1.49-1.23c0.52-0.37,1.04-0.66,1.58-0.89
						c0.54-0.23,1.25-0.46,2.34-0.15c1.35,0.39,1.19,1.94,1.12,2.15c-0.5,1.35-0.95,2.48-1.37,3.4c-0.42,0.92-0.78,1.74-1.1,2.47
						c-0.32,0.72-0.58,1.42-0.77,2.08c-0.2,0.66-0.33,1.41-0.39,2.24c0,0.06,0.01,0.13,0.03,0.21c0.02,0.08,0.06,0.15,0.13,0.21
						c0.07,0.06,0.17,0.09,0.31,0.09c0.14,0,0.32-0.05,0.54-0.15c0.57-0.28,1.26-0.76,2.07-1.46c0.4-0.35,0.62-0.18,0.68,0.16
						c0.05,0.33-0.07,0.82-0.35,1.12c-0.57,0.59-1.17,1.1-1.8,1.53c-0.63,0.43-1.25,0.64-1.84,0.64c-0.34,0-0.67-0.06-1-0.18
						c-0.33-0.12-0.61-0.3-0.85-0.53c-0.24-0.24-0.43-0.54-0.57-0.92c-0.14-0.38-0.2-0.82-0.18-1.34c0.02-0.51,0.09-1.03,0.21-1.53
						c0.12-0.51,0.27-1.04,0.46-1.6c0.19-0.56,0.42-1.18,0.7-1.84c0.28-0.66,0.58-1.4,0.92-2.21c0.22-0.51,0.39-0.99,0.51-1.41
						c0.12-0.43,0.14-0.74,0.06-0.94c-0.08-0.2-0.29-0.23-0.62-0.1c-0.34,0.13-0.85,0.49-1.55,1.08c-0.75,0.69-1.43,1.35-2.02,1.96
						c-0.01,0.01-0.01,0.01-0.02,0.02c-1.31,1.35-2.27,3-2.85,4.79c-0.08,0.26-0.17,0.53-0.24,0.79c-0.35,1.2-0.57,2.45-0.67,3.76
						c0,0.14-0.11,0.18-0.33,0.12c-0.22-0.06-0.46-0.16-0.73-0.31c-0.27-0.15-0.51-0.32-0.73-0.52c-0.22-0.2-0.34-0.38-0.36-0.54
						c0.06-1.21,0.26-2.43,0.61-3.66c0.35-1.23,0.78-2.47,1.31-3.71c0.53-1.25,1.1-2.49,1.71-3.73c0.4-0.81,0.8-1.61,1.19-2.42
						l-5.42,2.11l-0.05-0.13c-0.33-0.84,0.09-1.78,0.93-2.1l5.68-2.21c0.16-0.35,0.32-0.69,0.48-1.04c0.32-0.7,0.62-1.39,0.91-2.07
						c0.29-0.67,0.54-1.32,0.76-1.93c0.22-0.61,0.4-1.18,0.54-1.69c0.2-0.1,1.11,0.36,1.4,0.61c0.3,0.25,0.54,0.54,0.71,0.88
						c0.18,0.34,0.21,0.66,0.09,0.98c-0.08,0.24-0.23,0.6-0.46,1.08c-0.23,0.49-0.49,1.04-0.79,1.65c-0.02,0.05-0.05,0.1-0.07,0.15
						l4.54-1.76l0.05,0.13c0.33,0.84-0.09,1.78-0.93,2.1l-4.86,1.89c-0.25,0.48-0.49,0.95-0.72,1.41l-1.73,3.89
						C199.55,180.14,199.99,179.68,200.47,179.22"/>
				</g>
			</g>
		</g>
	</g>
</g>
</svg>
