<?xml version="1.0" encoding="UTF-8"?>
<svg width="74px" height="74px" viewBox="0 0 74 74" version="1.1" xmlns="http://www.w3.org/2000/svg">
    <!-- Generator: Sketch 57.1 (83088) - https://sketch.com -->
    <title>Group 2 Copy@3x</title>
    <desc>Created with Sketch.</desc>
    <g id="Page-1" stroke="none" stroke-width="1" fill="none" fill-rule="evenodd">
        <g id="Artboard-Copy-4" transform="translate(-152.000000, -46.000000)">
            <g id="Group-2-Copy" transform="translate(147.000000, 41.000000)">
                <g id="Group">
                    <rect id="Rectangle" fill-opacity="0.5" fill="#39BA8B" x="9" y="9" width="66" height="66" rx="16"></rect>
                    <rect id="Rectangle" fill="#39BA8B" transform="translate(42.000000, 42.000000) rotate(-20.000000) translate(-42.000000, -42.000000) " x="10" y="10" width="64" height="64" rx="16"></rect>
                    <path d="M41.9601438,39.2132598 C42.9136206,38.3045423 43.9061533,37.4845419 44.9398647,36.7524138 C45.971878,36.0211306 47.0251174,35.4284152 48.0978848,34.9734227 C49.1702277,34.5192751 50.6008673,34.0541435 52.7756942,34.6768538 C55.4786266,35.4512282 55.1678764,38.5411214 55.0095297,38.9762582 C54.0161479,41.6652342 53.1030008,43.9279452 52.2688148,45.7656586 C51.4346288,47.6037944 50.6989319,49.2450626 50.0642713,50.6877732 C49.4283372,52.1313288 48.9112692,53.5144721 48.5147656,54.8388932 C48.1174128,56.1637366 47.8593034,57.6550305 47.7400127,59.3153095 C47.7400127,59.4340215 47.7595407,59.5734343 47.7998703,59.7305905 C47.8389263,59.889014 47.9285005,60.0271594 48.0681683,60.145449 C48.206987,60.2645835 48.4154274,60.3237283 48.6934894,60.3237283 C48.9711269,60.3237283 49.32815,60.2252945 49.7662568,60.0271594 C50.9179854,59.4737331 52.2989558,58.5058707 53.9074702,57.1214599 C54.7119396,56.4298882 55.1589615,56.7708158 55.2633939,57.432815 C55.3674018,58.0952368 55.1292449,59.0783078 54.5629324,59.6714457 C53.4307319,60.8572989 52.2289097,61.8758568 50.9578904,62.7254296 C49.6860221,63.5758473 48.4553325,64 47.2632743,64 C46.5874351,64 45.9226334,63.8817104 45.2671713,63.6442863 C44.6117091,63.4072846 44.0458211,63.0511484 43.5690827,62.5771451 C43.0923444,62.1027194 42.7140952,61.4901482 42.4368822,60.7390093 C42.1583957,59.9887153 42.0395295,59.098586 42.0794346,58.0703115 C42.1184906,57.0428818 42.2577339,56.0243239 42.4967398,55.0163276 C42.7344722,54.0083312 43.0418262,52.9411901 43.4196509,51.8144816 C43.7970511,50.6877732 44.2636009,49.462631 44.8201495,48.1377875 C45.3762734,46.8133665 45.991406,45.3415059 46.6676698,43.719671 C47.104503,42.6926638 47.4419981,41.7539514 47.6810041,40.9035337 C47.9187365,40.0535384 47.9577925,39.4312507 47.7998703,39.035403 C47.6406745,38.6408227 47.2229447,38.5711163 46.548379,38.8279737 C45.8725398,39.0852536 44.8396775,39.8063977 43.449792,40.9918284 C41.9397668,42.3766616 40.5893619,43.6812269 39.3977283,44.9063692 C39.3862662,44.9181981 39.373955,44.930872 39.3620684,44.9431234 C36.7423423,47.6435059 34.8158609,50.9336466 33.6560664,54.5051475 C33.4862576,55.0290014 33.3245146,55.5553901 33.1708376,56.0838912 C32.4754704,58.4762983 32.0284486,60.9760109 31.8301967,63.5851415 C31.8301967,63.8622771 31.6111433,63.9412777 31.1747346,63.8221431 C30.7370522,63.7038535 30.2509744,63.4960018 29.714803,63.1998554 C29.1786315,62.9032864 28.6917046,62.5577118 28.2548713,62.1622866 C27.8180381,61.7672839 27.5798812,61.4115701 27.5399761,61.0943005 C27.6588423,58.6837275 28.065959,56.2524538 28.7613262,53.8004795 C29.4558445,51.350195 30.33036,48.8787873 31.3831749,46.3883688 C32.4351408,43.8979503 33.5775298,41.4172485 34.8094931,38.9462633 C35.6126889,37.3345676 36.4044227,35.7283638 37.1914867,34.1246948 L26.3254183,38.32989 L26.2226839,38.0666957 C25.5697689,36.3967 26.4014077,34.5158954 28.0795437,33.86657 L39.4490954,29.466197 C39.7747039,28.7746253 40.0952181,28.0800964 40.4110626,27.3834552 C41.0461477,25.9804561 41.6519408,24.6061844 42.2284418,23.2619077 C42.8036693,21.9184758 43.3101242,20.6333438 43.7478065,19.4077791 C44.1842153,18.1826368 44.5420875,17.055506 44.8201495,16.0272314 C45.2170776,15.8303637 47.0340324,16.7487979 47.6300614,17.2430795 C48.2260905,17.7377835 48.7024043,18.3207822 49.060701,18.9924981 C49.4177241,19.665059 49.4775818,20.3173416 49.2390003,20.949346 C49.0798045,21.4237718 48.7716015,22.1453383 48.3156647,23.1140457 C47.8584543,24.082753 47.3320469,25.1794665 46.7364424,26.4046088 C46.6888959,26.5026202 46.6383777,26.6040112 46.5895577,26.7028675 L55.6747558,23.1867093 L55.7774902,23.4503261 C56.4299807,25.1203217 55.5987664,27.0007039 53.9206304,27.6500292 L44.1833663,31.4183978 C43.6849773,32.3790784 43.200173,33.3228604 42.7438117,34.2320004 L39.2788621,42.0006697 C40.1126235,41.0518181 41.0066671,40.1232448 41.9601438,39.2132598" id="Fill-13" fill="#FEFEFE"></path>
                </g>
            </g>
        </g>
    </g>
</svg>
