<?xml version="1.0" encoding="UTF-8" standalone="no"?>
<svg
    xmlns:dc="http://purl.org/dc/elements/1.1/"
    xmlns:cc="http://creativecommons.org/ns#"
    xmlns:rdf="http://www.w3.org/1999/02/22-rdf-syntax-ns#"
    xmlns:svg="http://www.w3.org/2000/svg"
    xmlns="http://www.w3.org/2000/svg"
    xmlns:sodipodi="http://sodipodi.sourceforge.net/DTD/sodipodi-0.dtd"
    xmlns:inkscape="http://www.inkscape.org/namespaces/inkscape"
    width="100"
    height="100"
    version="1.1"
    id="svg14"
    sodipodi:docname="button-hardware.svg"
    inkscape:version="0.92.4 5da689c313, 2019-01-14">
    <metadata
        id="metadata20">
        <rdf:RDF>
            <cc:Work
                rdf:about="">
                <dc:format>image/svg+xml</dc:format>
                <dc:type
                    rdf:resource="http://purl.org/dc/dcmitype/StillImage"/>
                <dc:title></dc:title>
            </cc:Work>
        </rdf:RDF>
    </metadata>
    <defs
        id="defs18"/>
    <sodipodi:namedview
        pagecolor="#ffffff"
        bordercolor="#666666"
        borderopacity="1"
        objecttolerance="10"
        gridtolerance="10"
        guidetolerance="10"
        inkscape:pageopacity="0"
        inkscape:pageshadow="2"
        inkscape:window-width="1289"
        inkscape:window-height="840"
        id="namedview16"
        showgrid="false"
        inkscape:zoom="3.025641"
        inkscape:cx="39"
        inkscape:cy="39"
        inkscape:window-x="326"
        inkscape:window-y="259"
        inkscape:window-maximized="0"
        inkscape:current-layer="svg14"/>
    <g
        id="g12"
        style="fill:none;fill-rule:evenodd"
        transform="translate(11.181623,10.99991)">
        <path
            d="M 36.903,16.93 60.377,40.386 26.67,75.012 21.343,73.658 6.372,59.069 l -1.96,-7.75 1.96,-4.494 z m 5,2.107 L 59.108,37.401 73.442,21.618 54.987,4.133 Z"
            id="path2"
            inkscape:connector-curvature="0"
            style="fill:#ffffff"/>
        <path
            d="M 76.152,20.194 57.258,1.638 A 2.227,2.227 0 0 0 54.141,1.635 L 39.97,15.502 38.378,13.912 A 2.227,2.227 0 0 0 35.221,13.92 L 4.082,45.398 C -0.26,49.74 -0.275,56.773 4.071,61.13 l 12.243,12.585 0.021,0.022 a 11.128,11.128 0 0 0 15.745,0 L 63.57,42.249 c 0.87,-0.87 0.87,-2.279 0,-3.148 l -1.574,-1.575 14.17,-14.169 a 2.227,2.227 0 0 0 -0.014,-3.163 z m -47.22,50.394 a 6.676,6.676 0 0 1 -9.438,0.01 L 7.254,58.015 7.231,57.993 A 6.675,6.675 0 0 1 7.24,48.538 L 36.812,18.643 58.847,40.675 28.93,70.588 Z M 58.847,34.378 43.119,18.65 55.695,6.345 71.43,21.797 58.848,34.377 Z"
            id="path4"
            inkscape:connector-curvature="0"
            style="fill:#003945;fill-rule:nonzero;stroke:#003945"/>
        <path
            d="m 17.69,48.656 17.99,-17.99 a 1,1 0 0 1 1.414,0 l 9.691,9.692 a 1,1 0 0 1 0,1.414 l -17.989,17.99 a 4,4 0 0 1 -5.657,0 l -5.449,-5.45 a 4,4 0 0 1 0,-5.656 z"
            id="path6"
            inkscape:connector-curvature="0"
            style="fill:#05c0a5;stroke:#003945;stroke-width:3.79999995"/>
        <path
            d="m 25.601,51.687 1.127,-1.208 m 4.656,-4.574 4.508,-4.832"
            id="path8"
            inkscape:connector-curvature="0"
            style="stroke:#003945;stroke-width:3.79999995;stroke-linecap:round"/>
        <path
            d="m 57.936,14.1 a 2.42,2.42 0 0 0 -3.422,0 l -3.421,3.422 a 2.42,2.42 0 1 0 3.421,3.421 l 3.422,-3.421 a 2.42,2.42 0 0 0 0,-3.422 z m 5.783,5.783 a 2.42,2.42 0 0 0 -3.422,0 l -3.422,3.421 a 2.42,2.42 0 1 0 3.422,3.422 l 3.422,-3.422 a 2.42,2.42 0 0 0 0,-3.421 z"
            id="path10"
            inkscape:connector-curvature="0"
            style="fill:#003945;fill-rule:nonzero"/>
    </g>
</svg>
