<?xml version="1.0" encoding="UTF-8" standalone="no"?>
<svg
    xmlns:dc="http://purl.org/dc/elements/1.1/"
    xmlns:cc="http://creativecommons.org/ns#"
    xmlns:rdf="http://www.w3.org/1999/02/22-rdf-syntax-ns#"
    xmlns:svg="http://www.w3.org/2000/svg"
    xmlns="http://www.w3.org/2000/svg"
    xmlns:sodipodi="http://sodipodi.sourceforge.net/DTD/sodipodi-0.dtd"
    xmlns:inkscape="http://www.inkscape.org/namespaces/inkscape"
    width="100"
    height="100"
    version="1.1"
    id="svg25"
    sodipodi:docname="button-software.svg"
    inkscape:version="0.92.4 5da689c313, 2019-01-14">
    <metadata
        id="metadata29">
        <rdf:RDF>
            <cc:Work
                rdf:about="">
                <dc:format>image/svg+xml</dc:format>
                <dc:type
                    rdf:resource="http://purl.org/dc/dcmitype/StillImage"/>
                <dc:title></dc:title>
            </cc:Work>
        </rdf:RDF>
    </metadata>
    <sodipodi:namedview
        pagecolor="#ffffff"
        bordercolor="#666666"
        borderopacity="1"
        objecttolerance="10"
        gridtolerance="10"
        guidetolerance="10"
        inkscape:pageopacity="0"
        inkscape:pageshadow="2"
        inkscape:window-width="1631"
        inkscape:window-height="1029"
        id="namedview27"
        showgrid="false"
        inkscape:zoom="2.2692308"
        inkscape:cx="46.5"
        inkscape:cy="52"
        inkscape:window-x="164"
        inkscape:window-y="101"
        inkscape:window-maximized="0"
        inkscape:current-layer="svg25"/>
    <defs
        id="defs15">
        <filter
            x="-0.15100001"
            y="-0.096999995"
            width="1.3010001"
            height="1.234"
            filterUnits="objectBoundingBox"
            id="a">
            <feOffset
                dy="5"
                in="SourceAlpha"
                result="shadowOffsetOuter1"
                id="feOffset2"/>
            <feGaussianBlur
                stdDeviation="9"
                in="shadowOffsetOuter1"
                result="shadowBlurOuter1"
                id="feGaussianBlur4"/>
            <feColorMatrix
                values="0 0 0 0 0.118312129 0 0 0 0 0.461199204 0 0 0 0 0.461840986 0 0 0 0.136379076 0"
                in="shadowBlurOuter1"
                result="shadowMatrixOuter1"
                id="feColorMatrix6"/>
            <feMerge
                id="feMerge12">
                <feMergeNode
                    in="shadowMatrixOuter1"
                    id="feMergeNode8"/>
                <feMergeNode
                    in="SourceGraphic"
                    id="feMergeNode10"/>
            </feMerge>
        </filter>
    </defs>
    <g
        transform="translate(-47.744117,-23.243999)"
        id="g23"
        style="fill:none;fill-rule:evenodd;filter:url(#a)">
        <path
            d="m 72.708,41.426 h 32.397 v 17.601 l 3.934,1.982 13.864,-0.877 v 42.745 H 72.708 Z"
            id="path17"
            inkscape:connector-curvature="0"
            style="fill:#ffffff"/>
        <path
            d="m 123.644,52.55 c 0.69,0.7 1.282,1.65 1.774,2.85 0.493,1.2 0.74,2.3 0.74,3.3 v 43.2 c 0,1 -0.345,1.85 -1.035,2.55 -0.69,0.7 -1.528,1.05 -2.513,1.05 H 72.935 c -0.986,0 -1.823,-0.35 -2.513,-1.05 -0.69,-0.7 -1.035,-1.55 -1.035,-2.55 v -60 c 0,-1 0.345,-1.85 1.035,-2.55 0.69,-0.7 1.527,-1.05 2.513,-1.05 h 33.116 c 0.986,0 2.07,0.25 3.253,0.75 1.183,0.5 2.119,1.1 2.809,1.8 z m -16.41,-9.15 v 14.1 h 13.897 c -0.246,-0.725 -0.517,-1.238 -0.813,-1.537 L 108.749,44.225 c -0.295,-0.3 -0.8,-0.575 -1.515,-0.825 z m 14.193,57.3 V 62.3 H 106.05 c -0.985,0 -1.823,-0.35 -2.513,-1.05 -0.69,-0.7 -1.035,-1.55 -1.035,-2.55 V 43.1 H 74.118 v 57.6 z m -34.3,-33.6 c 0.198,-0.275 0.457,-0.431 0.777,-0.469 0.32,-0.037 0.616,0.044 0.887,0.244 l 1.885,1.425 c 0.27,0.2 0.425,0.462 0.462,0.788 0.037,0.325 -0.043,0.625 -0.24,0.9 l -6.728,9.112 6.727,9.113 c 0.197,0.275 0.277,0.575 0.24,0.9 A 1.098,1.098 0 0 1 90.675,89.9 L 88.79,91.325 A 1.21,1.21 0 0 1 87.903,91.569 1.076,1.076 0 0 1 87.127,91.1 L 78.774,79.813 c -0.345,-0.476 -0.345,-0.95 0,-1.426 L 87.128,67.1 Z m 29.643,11.287 c 0.345,0.475 0.345,0.95 0,1.425 L 108.417,91.1 a 1.076,1.076 0 0 1 -0.776,0.469 1.21,1.21 0 0 1 -0.887,-0.244 L 104.869,89.9 a 1.098,1.098 0 0 1 -0.462,-0.788 1.255,1.255 0 0 1 0.24,-0.9 l 6.727,-9.112 -6.727,-9.113 a 1.255,1.255 0 0 1 -0.24,-0.9 c 0.037,-0.325 0.19,-0.587 0.462,-0.787 l 1.885,-1.425 c 0.27,-0.2 0.566,-0.281 0.887,-0.244 0.32,0.038 0.579,0.194 0.776,0.469 z M 93.854,95.675 a 1.08,1.08 0 0 1 -0.757,-0.488 1.23,1.23 0 0 1 -0.204,-0.9 l 5.101,-31.162 c 0.05,-0.325 0.21,-0.581 0.48,-0.769 a 1.19,1.19 0 0 1 0.888,-0.206 l 2.328,0.375 c 0.32,0.05 0.573,0.212 0.758,0.487 0.184,0.275 0.252,0.575 0.203,0.9 l -5.1,31.163 c -0.05,0.325 -0.21,0.581 -0.481,0.769 a 1.186,1.186 0 0 1 -0.887,0.206 z"
            id="path19"
            inkscape:connector-curvature="0"
            style="fill:#003945;fill-rule:nonzero"/>
        <path
            d="m 107.184,43.374 v 14.135 h 13.948 c 0,-0.436 -0.19,-0.932 -0.57,-1.49 -5.704,-6.164 -11.391,-11.509 -11.91,-11.997 -0.346,-0.325 -0.835,-0.541 -1.468,-0.648 z"
            id="path21"
            inkscape:connector-curvature="0"
            style="fill:#05c0a5"/>
    </g>
</svg>
