<svg width="144" height="46" viewBox="0 0 144 46" fill="none" xmlns="http://www.w3.org/2000/svg">
<path fill-rule="evenodd" clip-rule="evenodd" d="M63.6931 30.4814C62.8668 30.4814 62.0749 30.3766 61.3175 30.167C60.56 29.9574 59.8611 29.636 59.2207 29.2028C58.5803 28.7696 58.0243 28.2508 57.5526 27.6464C57.0809 27.042 56.7108 26.3206 56.4423 25.4821C56.1737 24.6436 56.0394 23.7318 56.0394 22.7466C56.0394 21.8732 56.1462 21.0435 56.3596 20.2574C56.5731 19.4714 56.895 18.7534 57.3254 18.1036C57.7557 17.4538 58.2722 16.8896 58.8747 16.411C59.4772 15.9323 60.1899 15.5603 61.0128 15.2948C61.8356 15.0292 62.7291 14.8965 63.6931 14.8965C64.4024 14.8965 65.1013 14.9943 65.7899 15.1899C66.4785 15.3856 67.1653 15.707 67.8505 16.1542C68.3072 16.4523 68.9149 17.0078 69.6735 17.8206L68.4559 18.8746C67.9286 19.3311 67.1478 19.3366 66.6141 18.8876C66.3073 18.6296 66.036 18.4364 65.8002 18.308C65.1392 17.9481 64.4368 17.7682 63.6931 17.7682C63.3213 17.7682 62.9632 17.8067 62.6189 17.8835C62.2746 17.9604 61.951 18.0739 61.648 18.2241C61.345 18.3744 61.0644 18.556 60.8062 18.7691C60.548 18.9822 60.3173 19.2285 60.1142 19.508C59.911 19.7875 59.7372 20.0932 59.5926 20.4251C59.448 20.757 59.3378 21.1186 59.262 21.5099C59.1863 21.9012 59.1484 22.3134 59.1484 22.7466C59.1484 23.6829 59.3395 24.5214 59.7217 25.262C60.1038 26.0026 60.6409 26.5808 61.333 26.9966C62.025 27.4123 62.8117 27.6202 63.6931 27.6202C64.4437 27.6202 65.1495 27.4455 65.8105 27.0961C66.0448 26.9724 66.313 26.7821 66.6153 26.5254C67.1499 26.0715 67.936 26.0763 68.465 26.5368L69.6735 27.5887C68.6452 28.638 67.7914 29.3384 67.112 29.6901C66.0929 30.2177 64.9532 30.4814 63.6931 30.4814ZM81.655 30.3242L80.9569 28.242C80.7631 27.6639 80.2215 27.2743 79.6118 27.2743H75.8896C75.2799 27.2743 74.7383 27.6639 74.5445 28.242L73.8464 30.3242H70.7374L75.9643 16.0068C76.1687 15.4471 76.7011 15.0747 77.297 15.0747H78.185C78.7803 15.0747 79.3123 15.4463 79.5171 16.0053L84.764 30.3242H81.655ZM76.7118 24.696H78.7744C79.1662 24.696 79.4838 24.3784 79.4838 23.9867C79.4838 23.909 79.471 23.8319 79.446 23.7583L78.0684 19.7067C78.0054 19.5212 77.8039 19.422 77.6184 19.4851C77.5136 19.5207 77.4314 19.6033 77.3963 19.7083L76.0392 23.7614C75.9148 24.1329 76.1151 24.5349 76.4866 24.6593C76.5592 24.6836 76.6353 24.696 76.7118 24.696ZM98.3155 30.3242H94.7933L91.8452 25.7544C91.5839 25.3494 91.135 25.1048 90.653 25.1048H90.5636C90.0873 25.1048 89.7012 25.4909 89.7012 25.9672V30.3242H86.7678V16.4934C86.7678 15.7098 87.403 15.0747 88.1865 15.0747H92.4487C93.3301 15.0747 94.1099 15.2004 94.7882 15.452C95.4664 15.7035 96.0138 16.0599 96.4304 16.521C96.847 16.9822 97.1604 17.5167 97.3704 18.1246C97.5804 18.7325 97.6854 19.4102 97.6854 20.1578C97.6854 20.9544 97.5597 21.6618 97.3084 22.2802C97.0571 22.8986 96.7059 23.4104 96.2549 23.8156C96.1594 23.9014 96.0388 23.9913 95.8932 24.0854C95.235 24.5104 95.046 25.3886 95.471 26.0468C95.4745 26.0522 95.478 26.0575 95.4815 26.0628L98.3155 30.3242ZM89.7012 18.4671V21.7333C89.7012 22.1251 90.0188 22.4427 90.4106 22.4427H91.7876C92.6897 22.4427 93.3852 22.2313 93.8741 21.8086C94.3629 21.3858 94.6074 20.8146 94.6074 20.095C94.6074 19.3753 94.3716 18.8058 93.8999 18.3866C93.4282 17.9674 92.7654 17.7577 91.9116 17.7577H90.4106C90.0188 17.7577 89.7012 18.0753 89.7012 18.4671ZM110.896 23.6113C111.419 24.2785 111.681 25.1118 111.681 26.1109C111.681 26.7258 111.579 27.2883 111.376 27.7983C111.173 28.3084 110.874 28.7521 110.478 29.1294C110.082 29.5067 109.572 29.8002 108.949 30.0098C108.326 30.2194 107.611 30.3242 106.806 30.3242H100.588V16.4934C100.588 15.7098 101.223 15.0747 102.007 15.0747H106.01C107.608 15.0747 108.825 15.3926 109.662 16.0284C110.498 16.6642 110.917 17.5866 110.917 18.7953C110.917 19.2705 110.844 19.7194 110.7 20.1421C110.555 20.5649 110.311 20.9631 109.966 21.3369C109.897 21.4122 109.809 21.4911 109.702 21.5735C109.392 21.8131 109.335 22.2586 109.575 22.5686C109.633 22.6431 109.704 22.7055 109.787 22.752C110.309 23.0481 110.679 23.3345 110.896 23.6113ZM103.511 18.4566V20.6119C103.511 21.0036 103.828 21.3212 104.22 21.3212H105.639C106.052 21.3212 106.424 21.2601 106.754 21.1378C107.085 21.0155 107.358 20.8164 107.575 20.5404C107.792 20.2644 107.901 19.9238 107.901 19.5185C107.901 19.1552 107.818 18.8443 107.653 18.5857C107.487 18.3272 107.219 18.1228 106.847 17.9726C106.475 17.8224 106.007 17.7473 105.442 17.7473H104.22C103.828 17.7473 103.511 18.0649 103.511 18.4566ZM105.907 27.6726C106.444 27.6726 106.911 27.601 107.307 27.4577C107.703 27.3145 108.014 27.0979 108.242 26.8079C108.469 26.5179 108.582 26.1599 108.582 25.7336C108.582 25.1188 108.357 24.6349 107.906 24.282C107.455 23.9292 106.799 23.7528 105.938 23.7528H104.22C103.828 23.7528 103.511 24.0704 103.511 24.4621V26.9632C103.511 27.355 103.828 27.6726 104.22 27.6726H105.907ZM121.008 30.5024C119.886 30.5024 118.848 30.3068 117.894 29.9155C116.94 29.5242 116.131 28.9862 115.467 28.3014C114.802 27.6167 114.282 26.7904 113.907 25.8227C113.532 24.855 113.344 23.8122 113.344 22.6942C113.344 21.5762 113.532 20.5352 113.907 19.5709C114.282 18.6067 114.802 17.7822 115.467 17.0975C116.131 16.4127 116.942 15.8747 117.899 15.4834C118.856 15.0921 119.892 14.8965 121.008 14.8965C122.103 14.8965 123.12 15.0869 124.06 15.4677C125 15.8485 125.807 16.376 126.482 17.0503C127.157 17.7246 127.687 18.5473 128.073 19.5185C128.459 20.4897 128.651 21.5483 128.651 22.6942C128.651 23.8401 128.459 24.9004 128.073 25.8751C127.687 26.8498 127.157 27.6743 126.482 28.3486C125.807 29.0229 125 29.5504 124.06 29.9312C123.12 30.312 122.103 30.5024 121.008 30.5024ZM121.018 27.6935C121.659 27.6935 122.259 27.5678 122.821 27.3162C123.382 27.0647 123.864 26.7188 124.267 26.2786C124.67 25.8384 124.986 25.3074 125.217 24.6856C125.448 24.0637 125.563 23.3999 125.563 22.6942C125.563 21.7509 125.365 20.8985 124.969 20.1369C124.573 19.3753 124.029 18.7814 123.337 18.3551C122.645 17.9289 121.872 17.7158 121.018 17.7158C120.137 17.7158 119.345 17.9377 118.643 18.3814C117.94 18.825 117.398 19.4259 117.016 20.184C116.634 20.9422 116.443 21.7789 116.443 22.6942C116.443 23.6165 116.634 24.4567 117.016 25.2148C117.398 25.9729 117.94 26.5756 118.643 27.0228C119.345 27.47 120.137 27.6935 121.018 27.6935ZM141.025 15.0747H144V30.3242H141.718C141.24 30.3242 140.795 30.0843 140.533 29.6856L135.603 22.1981C135.388 21.8709 134.948 21.7803 134.621 21.9957C134.421 22.1269 134.301 22.3496 134.301 22.5882V30.3242H131.337V15.0747H133.533C134.012 15.0747 134.459 15.3166 134.721 15.718L139.722 23.3802C139.936 23.7083 140.376 23.8007 140.704 23.5866C140.904 23.4556 141.025 23.2322 141.025 22.9925V15.0747Z" fill="#154C8A"/>
<path d="M16.0947 34.7586H8.09333C7.32753 34.7586 6.61893 34.3595 6.23065 33.7095L0.298367 23.7785C-0.0994555 23.1125 -0.0994555 22.2865 0.298367 21.6205L6.23065 11.6895C6.61893 11.0395 7.32753 10.6404 8.09333 10.6404H16.0947C17.5927 10.6404 18.9804 9.8529 19.7486 8.56688L24.2394 1.0491C24.6276 0.399102 25.3363 0 26.1021 0H36.5963C37.3621 0 38.0707 0.399102 38.459 1.0491L44.3913 10.9801C44.7891 11.6461 44.7891 12.4721 44.3913 13.1381L39.9836 20.5169C39.1806 21.8612 39.1806 23.5378 39.9836 24.8822L44.3913 32.2609C44.7891 32.9269 44.7891 33.7529 44.3913 34.4189L38.459 44.3499C38.0707 44.9999 37.3621 45.399 36.5963 45.399H26.1021C25.3363 45.399 24.6276 44.9999 24.2394 44.3499L19.7486 36.8321C18.9804 35.5461 17.5927 34.7586 16.0947 34.7586ZM7.87865 14.5269L3.64131 21.6205C3.24349 22.2865 3.24349 23.1125 3.64131 23.7785L7.87865 30.8721C8.26693 31.5221 8.97554 31.9212 9.74133 31.9212H16.9396C17.7054 31.9212 18.414 31.5221 18.8023 30.8721L23.0396 23.7785C23.4375 23.1125 23.4375 22.2865 23.0396 21.6205L18.8023 14.5269C18.414 13.8769 17.7054 13.4778 16.9396 13.4778H9.74133C8.97554 13.4778 8.26693 13.8769 7.87865 14.5269ZM25.8874 3.88654L21.65 10.9801C21.2522 11.6461 21.2522 12.4721 21.65 13.1381L25.8874 20.2317C26.2756 20.8817 26.9843 21.2808 27.7501 21.2808H34.9483C35.7141 21.2808 36.4227 20.8817 36.811 20.2317L41.0483 13.1381C41.4462 12.4721 41.4462 11.6461 41.0483 10.9801L36.811 3.88654C36.4227 3.23654 35.7141 2.83744 34.9483 2.83744H27.7501C26.9843 2.83744 26.2756 3.23654 25.8874 3.88654ZM25.8874 25.1673L21.65 32.2609C21.2522 32.9269 21.2522 33.7529 21.65 34.4189L25.8874 41.5125C26.2756 42.1625 26.9843 42.5616 27.7501 42.5616H34.9483C35.7141 42.5616 36.4227 42.1625 36.811 41.5125L41.0483 34.4189C41.4462 33.7529 41.4462 32.9269 41.0483 32.2609L36.811 25.1673C36.4227 24.5173 35.7141 24.1182 34.9483 24.1182H27.7501C26.9843 24.1182 26.2756 24.5173 25.8874 25.1673Z" fill="#154C8A"/>
</svg>
