<svg width="26" height="26" viewBox="0 0 26 26" fill="none" xmlns="http://www.w3.org/2000/svg">
<circle cx="13" cy="13" r="13" fill="white" fill-opacity="0.25"/>
<path fill-rule="evenodd" clip-rule="evenodd" d="M17.587 6.99878C17.9775 6.60826 18.6107 6.60826 19.0012 6.99878C19.3917 7.3893 19.3917 8.02247 19.0012 8.41299L14.4142 13L19.0012 17.587C19.3918 17.9775 19.3918 18.6107 19.0012 19.0012C18.6107 19.3918 17.9775 19.3918 17.587 19.0012L13 14.4142L8.41298 19.0012C8.02246 19.3918 7.38929 19.3918 6.99877 19.0012C6.60825 18.6107 6.60825 17.9775 6.99877 17.587L11.5858 13L6.99878 8.41299C6.60826 8.02247 6.60826 7.3893 6.99878 6.99878C7.3893 6.60826 8.02247 6.60826 8.41299 6.99878L13 11.5858L17.587 6.99878Z" fill="white"/>
</svg>
