<svg width="1601" height="1601" viewBox="0 0 1601 1601" fill="none" xmlns="http://www.w3.org/2000/svg">
<circle cx="800.5" cy="800.5" r="800.5" fill="#981BFF"/>
<rect width="939.618" height="1195.05" transform="translate(328.41 200.698)" fill="#981BFF"/>
<g clip-path="url(#clip0_1048_6580)">
<path fill-rule="evenodd" clip-rule="evenodd" d="M991.14 204.253C1011.13 210.725 1024.13 224.667 1020.63 234.625C1019.63 237.612 1016.13 240.6 1012.13 242.094C1045.12 253.048 1088.1 268.483 1130.58 298.357C1152.57 312.299 1190.56 340.679 1218.05 390.968C1231.54 415.864 1238.54 439.265 1242.54 457.688C1255.03 549.801 1205.05 661.83 1200.56 671.788V672.286L1199.06 675.274V675.772C1242.04 746.475 1267.03 829.625 1268.03 918.253V922.734C1268.03 1184.14 1057.61 1395.75 798.219 1395.75C538.824 1395.75 328.41 1184.14 328.41 922.734C328.41 788.299 383.887 667.307 473.351 581.169C438.865 597.102 411.876 605.069 392.384 605.069C362.896 605.069 335.907 597.102 335.907 560.755C335.907 524.408 398.881 481.587 553.818 459.182C561.815 429.307 575.309 390.968 600.299 350.14C616.793 322.755 634.285 300.847 650.279 283.42C655.277 278.441 660.775 273.462 666.272 268.981C709.255 234.625 784.225 220.186 849.698 216.7H852.697H853.196C892.68 215.207 928.166 217.198 951.157 222.177C948.658 218.194 948.158 214.211 949.157 210.725C952.656 200.269 971.648 197.78 991.14 204.253ZM581.807 704.152C552.319 674.776 503.339 679.755 480.848 714.111C468.353 732.533 458.357 751.454 449.86 771.37C447.861 775.353 445.862 779.834 444.363 783.818C427.369 828.131 418.373 874.935 418.373 922.236C418.373 1019.83 455.858 1117.42 530.328 1191.6C636.285 1297.66 789.722 1328.03 923.168 1283.22C977.146 1264.8 1028.13 1234.42 1071.11 1191.6C1145.58 1117.42 1183.06 1019.83 1182.56 923.232C1182.56 878.918 1174.57 834.106 1159.07 791.784C1149.08 764.897 1136.08 739.006 1120.09 714.608C1118.09 711.621 1116.09 708.634 1113.59 706.144C1092.1 682.244 1056.11 678.261 1029.62 696.186C1026.13 698.675 1022.63 701.165 1019.63 704.152L846.699 876.429C821.209 901.822 779.726 901.822 754.237 876.429L661.774 783.818L581.807 704.152ZM1048.62 806.721C1064.11 827.634 1075.61 850.537 1083.6 874.935C1091.6 899.332 1095.6 925.224 1095.6 950.119C1095.6 997.42 1081.6 1044.72 1054.11 1085.55C1043.12 1101.98 1019.63 1103.97 1005.13 1091.03L1004.14 1090.03L880.685 966.55C873.188 959.081 870.19 948.625 871.689 939.165C872.189 933.19 875.188 926.717 879.686 921.738L880.685 920.742L999.637 803.236C1013.63 788.797 1036.62 790.29 1048.62 806.721ZM585.305 796.763C588.804 798.257 591.303 799.751 593.302 801.742L594.302 802.738L717.252 926.219C718.751 927.713 720.25 929.207 720.75 930.701C729.247 943.148 728.247 960.077 717.751 971.031L716.752 972.027L598.3 1089.53C584.306 1103.47 561.315 1101.98 549.32 1086.05C517.333 1043.73 501.839 992.939 501.839 942.65C501.839 916.759 506.337 890.868 514.334 866.47C520.831 845.558 530.827 825.642 543.322 807.219C546.821 802.24 552.319 798.257 557.317 796.265C566.813 792.282 576.309 792.282 585.305 796.763ZM1073.61 312.797C1090.1 340.679 1091.1 376.529 1088.1 403.416C1087.1 416.361 1077.61 450.219 1067.11 485.571L1065.61 490.55C1061.61 503.495 1057.61 516.939 1053.62 529.387C1046.62 552.29 1040.12 572.207 1036.12 584.654C1072.11 600.587 1094.1 618.014 1128.08 632.454C1131.58 633.947 1135.58 635.441 1139.08 636.437L1143.08 637.931C1144.08 638.429 1144.58 638.428 1145.58 638.926C1152.08 641.416 1158.57 643.408 1166.07 645.897C1167.07 643.906 1168.57 640.42 1170.57 635.441C1185.56 598.596 1225.05 486.069 1186.56 419.847C1154.07 364.081 1112.09 332.713 1073.61 312.797ZM543.822 513.951C488.844 504.491 468.853 507.479 443.363 511.96C417.873 516.441 370.892 533.37 370.892 560.755C370.892 588.14 427.369 578.68 452.859 569.717C478.349 560.755 539.324 526.897 548.32 526.897C554.318 526.897 576.809 543.328 600.299 558.763L603.798 561.253C616.293 569.717 628.788 577.186 638.784 582.165C699.759 611.044 756.236 624.487 801.218 627.475C836.203 629.964 864.192 625.483 885.683 621.5C898.678 619.01 912.672 614.031 927.666 605.567C896.679 609.052 869.69 611.044 847.699 611.044C814.712 611.044 759.235 601.085 702.758 583.659C646.281 566.232 598.8 523.412 543.822 513.951ZM687.264 299.353C627.788 340.679 606.297 424.328 599.799 449.223C604.797 447.73 659.775 441.755 735.744 456.194C778.227 462.667 808.215 474.617 831.205 484.077C831.205 484.077 831.205 484.077 831.705 484.077C846.699 490.052 861.693 496.525 876.687 504.491C879.686 505.985 882.685 507.479 885.183 508.972C917.17 524.905 946.659 540.839 966.65 550.797C974.147 554.282 981.145 557.767 988.641 561.751C992.64 563.742 996.638 565.734 1001.14 567.726C1005.63 554.78 1012.13 533.37 1019.63 509.47C1020.63 506.483 1021.63 502.997 1022.63 500.01L1024.13 495.031C1024.63 493.537 1025.13 492.044 1025.63 490.052L1027.13 485.073C1027.63 483.579 1028.13 482.085 1028.63 480.094L1030.12 475.115C1030.62 473.621 1031.12 472.127 1031.62 470.633L1033.12 466.152C1043.12 432.792 1051.12 401.424 1052.12 389.474C1054.11 361.094 1053.12 322.257 1034.12 295.37C925.667 229.646 767.731 243.587 687.264 299.353ZM775.728 312.797C779.227 314.788 781.726 318.771 782.225 322.257C785.224 331.717 789.222 341.675 795.72 349.642L797.219 351.136L816.711 372.048L842.701 365.575C853.196 362.587 862.693 356.613 871.189 349.144C873.188 347.152 877.187 344.663 881.685 344.663C889.682 344.165 897.179 348.148 900.177 355.617C903.676 366.073 898.178 377.027 887.682 379.516C885.683 380.014 882.685 380.014 879.686 379.516C869.19 377.525 858.194 376.031 847.199 378.52L845.2 379.018L828.207 383.002C836.203 390.968 847.199 397.441 857.695 400.926C860.693 402.42 864.192 404.412 866.691 408.395C870.19 414.868 870.19 423.83 865.192 429.805C858.694 437.772 845.7 438.767 838.203 430.303C836.203 428.311 834.704 425.822 833.704 422.834C830.706 412.378 826.707 402.42 819.71 394.951L818.211 393.458L811.713 386.985L802.717 388.977C791.721 391.964 781.726 397.939 772.729 405.408C770.73 406.901 768.231 408.395 765.232 408.893C754.736 410.885 744.241 404.412 742.741 393.458C742.242 385.989 746.24 378.023 753.737 375.035C758.235 373.541 761.734 373.541 765.732 374.537C776.228 377.525 786.224 379.018 796.719 376.529L798.719 376.031L800.718 375.533L788.223 362.09C780.226 354.123 770.23 348.148 759.235 344.165C756.236 343.667 754.237 342.173 751.738 339.684C744.241 332.215 745.24 319.767 753.737 313.295C760.234 307.32 769.73 308.315 775.728 312.797Z" fill="white"/>
</g>
<defs>
<clipPath id="clip0_1048_6580">
<rect width="939.618" height="1195.05" fill="white" transform="translate(328.41 200.698)"/>
</clipPath>
</defs>
</svg>
