<svg width="24" height="24" xmlns="http://www.w3.org/2000/svg"><defs><linearGradient x1="50%" y1="0%" x2="50%" y2="100%" id="a"><stop stop-color="#F1F1F1" offset="0%"/><stop stop-color="#E0E0E0" offset="100%"/></linearGradient><linearGradient x1="100%" y1="9.767%" x2="50%" y2="29.362%" id="b"><stop stop-color="#F5F5F5" offset="0%"/><stop stop-color="#DFDFDF" offset="100%"/></linearGradient><linearGradient x1="50%" y1="0%" x2="50%" y2="100%" id="c"><stop stop-color="#E0E0E0" offset="0%"/><stop stop-color="#AAA" offset="100%"/></linearGradient><linearGradient x1="50%" y1="-124.641%" x2="50%" y2="231.343%" id="d"><stop stop-color="#CCC" offset="0%"/><stop stop-color="#AAA" offset="100%"/></linearGradient></defs><g fill="none" fill-rule="evenodd"><path d="M12 23.998C5.374 23.998.002 18.626.002 12 .002 5.374 5.374.002 12 .002 18.627.002 23.998 5.374 23.998 12c0 6.626-5.371 11.998-11.998 11.998z" fill="url(#a)"/><path d="M18.857 12a6.857 6.857 0 1 1-13.714 0 6.857 6.857 0 0 1 13.714 0" fill="#FFF"/><path d="M7.979 12.202v5.344a6.818 6.818 0 0 0 8.052-.008v-7.413l-4.888 3.125-3.164-1.048z" fill="#F6F6F6"/><path d="M.812 10.292v4.678c0 .247.292.379.477.215l4.555-4.028a.495.495 0 0 0-.328-.865H.812z" fill="url(#b)"/><path d="M.243 9.609c-.393 1.93-.29 3.783.17 5.49.09.33.491.453.745.226l2.365-2.117A8.584 8.584 0 0 1 3.428 12a8.572 8.572 0 0 1 8.977-8.562c4.365.2 7.957 3.792 8.157 8.157A8.572 8.572 0 0 1 12 20.571a8.544 8.544 0 0 1-6.852-3.434.873.873 0 0 0-1.284-.14l-1.265 1.13a.878.878 0 0 0-.108 1.19 11.984 11.984 0 0 0 10.753 4.62c5.812-.585 10.42-5.432 10.738-11.264C24.376 5.444 18.37-.487 11.116.032 5.797.412 1.304 4.383.243 9.609z" fill="url(#c)"/><path d="m15.714 9.36-.288-.288a1.082 1.082 0 0 0-1.53 0l-2.985 2.984-.807-.806a1.082 1.082 0 0 0-1.53 0l-.288.288a1.083 1.083 0 0 0 0 1.53l1.57 1.569.001.003.288.288c.212.212.49.318.766.317.277 0 .554-.105.766-.317l.287-.288.003-.003 3.747-3.747a1.083 1.083 0 0 0 0-1.53" fill="url(#d)"/><path d="M12 3.705a1 1 0 1 0 0 2.002 1 1 0 0 0 0-2.002m0 14.589a1 1 0 1 0 0 2.002 1 1 0 0 0 0-2.002M19.295 11a1 1 0 1 0 0 2 1 1 0 0 0 0-2" stroke="#E0E0E0" stroke-width=".5" fill="#FFF"/></g></svg>