<svg width="28" height="24" xmlns="http://www.w3.org/2000/svg"><defs><linearGradient x1="50%" y1="0%" x2="50%" y2="100%" id="a"><stop stop-color="#5C81E8" offset="0%"/><stop stop-color="#2966F8" offset="100%"/></linearGradient><linearGradient x1="30.636%" y1=".664%" x2="30.636%" y2="100%" id="b"><stop stop-color="#114DCC" offset="0%"/><stop stop-color="#093376" offset="100%"/></linearGradient></defs><g fill="none" fill-rule="evenodd"><path d="M5.956 7.828A2.042 2.042 0 0 0 3.914 9.87v11.572c0 1.128.915 2.042 2.042 2.042h19.4a2.042 2.042 0 0 0 2.042-2.042V9.87a2.042 2.042 0 0 0-2.042-2.042h-19.4z" fill="#A1BAF0"/><path d="M5.956 7.828A2.042 2.042 0 0 0 3.914 9.87v11.572c0 1.128.915 2.042 2.042 2.042h17.528v-4.69a1.59 1.59 0 0 1 .854-1.416 2.028 2.028 0 0 0 1.103-1.807V7.913l-.085-.085h-19.4z" fill="#7D9DEA"/><path d="M2.042 0A2.042 2.042 0 0 0 0 2.042v11.572c0 1.128.914 2.042 2.042 2.042h19.4a2.042 2.042 0 0 0 2.042-2.042V2.042A2.042 2.042 0 0 0 21.442 0h-19.4z" fill="url(#a)"/><path d="M5.956 7.828A2.042 2.042 0 0 0 3.914 9.87v5.786h17.528a2.042 2.042 0 0 0 2.042-2.042V7.828H5.956z" fill-opacity=".5" fill="url(#b)"/><path d="M6.85 7.828a4.892 4.892 0 1 0 9.785 0 4.893 4.893 0 0 0-9.785 0" fill="#FFF"/><path d="M6.85 7.828a4.893 4.893 0 0 0 9.784 0H6.85z" fill="#E7EEFB"/><path d="M1.996 3.477a1.481 1.481 0 0 0 2.962 0 1.48 1.48 0 1 0-2.962 0m16.595 8.741a1.48 1.48 0 0 0 2.962 0 1.48 1.48 0 1 0-2.962 0" fill="#FFF"/></g></svg>