<svg width="30" height="24" xmlns="http://www.w3.org/2000/svg"><defs><linearGradient x1="50%" y1="0%" x2="50%" y2="100%" id="a"><stop stop-color="#86AAFD" offset="0%"/><stop stop-color="#4171D0" offset="100%"/></linearGradient></defs><path d="M994.456 431.798a6.04 6.04 0 0 0 2.706-3.348 12.408 12.408 0 0 1-3.9 1.466 6.208 6.208 0 0 0-4.493-1.916c-3.405 0-6.146 2.721-6.146 6.057 0 .48.041.942.143 1.381a17.5 17.5 0 0 1-12.677-6.334 6.025 6.025 0 0 0-.842 3.06c0 2.098 1.097 3.957 2.732 5.034a6.147 6.147 0 0 1-2.779-.746v.066c0 2.943 2.132 5.387 4.928 5.95-.501.135-1.047.2-1.613.2a5.52 5.52 0 0 1-1.164-.104 6.197 6.197 0 0 0 5.746 4.219 12.481 12.481 0 0 1-7.625 2.583c-.505 0-.988-.023-1.472-.084 2.724 1.73 5.953 2.718 9.435 2.718 11.318 0 17.505-9.23 17.505-17.232 0-.268-.01-.526-.023-.783a12.167 12.167 0 0 0 3.083-3.144 12.98 12.98 0 0 1-3.544.957z" transform="translate(-968 -428)" fill="url(#a)" fill-rule="evenodd"/></svg>