<svg width="24" height="25" xmlns="http://www.w3.org/2000/svg" xmlns:xlink="http://www.w3.org/1999/xlink"><defs><linearGradient x1="50%" y1="2.505%" x2="50%" y2="100%" id="b"><stop stop-color="#DEDEDE" offset="0%"/><stop stop-color="#ACACAC" offset="100%"/></linearGradient><linearGradient x1="16.029%" y1="24.316%" x2="83.971%" y2="100%" id="d"><stop stop-color="#ACACAC" offset="0%"/><stop stop-color="#D6D6D6" offset="100%"/></linearGradient><path id="a" d="M0 0h23.329v23.329H0z"/></defs><g fill="none" fill-rule="evenodd"><mask id="c" fill="#fff"><use xlink:href="#a"/></mask><path d="M23.329 13.757V9.571a1.07 1.07 0 0 0-1.07-1.07h-.33c-.437 0-.826-.266-.993-.669l-.005-.013a1.076 1.076 0 0 1 .228-1.176l.233-.233a1.07 1.07 0 0 0 0-1.514l-2.96-2.96a1.07 1.07 0 0 0-1.513 0l-.234.234a1.076 1.076 0 0 1-1.175.228l-.014-.006a1.075 1.075 0 0 1-.668-.992v-.33c0-.591-.48-1.07-1.07-1.07H9.57A1.07 1.07 0 0 0 8.5 1.07v.33c0 .436-.266.826-.669.992l-.013.006c-.403.167-.867.08-1.176-.228l-.233-.234a1.07 1.07 0 0 0-1.514 0l-2.96 2.96a1.07 1.07 0 0 0 0 1.514l.234.233c.309.309.395.773.228 1.176l-.006.013a1.075 1.075 0 0 1-.992.67h-.33A1.07 1.07 0 0 0 0 9.571v4.185c0 .591.479 1.07 1.07 1.07h.33c.436 0 .826.266.992.67l.006.013c.167.403.08.867-.228 1.175l-.234.234a1.07 1.07 0 0 0 0 1.513l2.96 2.96a1.07 1.07 0 0 0 1.514 0l.233-.233a1.076 1.076 0 0 1 1.176-.228l.013.005c.403.167.67.556.67.992v.33c0 .592.478 1.07 1.07 1.07h4.185a1.07 1.07 0 0 0 1.07-1.07v-.33c0-.436.266-.825.67-.992l.013-.005a1.073 1.073 0 0 1 1.175.228l.234.233a1.07 1.07 0 0 0 1.513 0l2.96-2.96a1.07 1.07 0 0 0 0-1.513l-.233-.234a1.076 1.076 0 0 1-.228-1.175l.005-.014c.167-.403.556-.669.992-.669h.33a1.07 1.07 0 0 0 1.07-1.07" fill="url(#b)" mask="url(#c)"/><path d="M11.664 3.543a8.12 8.12 0 1 1 0 16.242 8.12 8.12 0 0 1 0-16.242" fill="#FFF"/><path d="M14.683 23.79c.142-.796.214-1.604.214-2.413v-5.524H8.432v5.524c0 .81.071 1.617.214 2.414.12.676.72 1.169 1.422 1.169h3.193c.701 0 1.301-.493 1.422-1.17" fill="#DBDBDB"/><path d="m8.432 17.564 6.267 6.133c.131-.767.198-1.542.198-2.32v-5.524H8.432v1.711z" fill="url(#d)"/><path d="M18.356 11.664a6.692 6.692 0 0 1-6.692 6.692 6.686 6.686 0 0 1-6.691-6.68A6.683 6.683 0 0 1 7.775 6.22a.459.459 0 0 1 .726.372v4.416c0 .538.287 1.034.752 1.303l1.66.958a1.504 1.504 0 0 0 1.503 0l1.66-.958c.465-.27.752-.765.752-1.303V6.59c0-.371.42-.59.722-.374a6.683 6.683 0 0 1 2.806 5.448" fill="#DBDBDB"/><path d="M6.712 12.228c0 .84.449 1.618 1.177 2.038l2.598 1.5a2.352 2.352 0 0 0 2.354 0l2.599-1.5a2.354 2.354 0 0 0 1.176-2.038V7.165a6.723 6.723 0 0 0-1.066-.949.458.458 0 0 0-.722.375v4.416c0 .538-.287 1.034-.752 1.303l-1.66.958a1.503 1.503 0 0 1-1.504 0l-1.66-.958a1.503 1.503 0 0 1-.751-1.303V6.591a.459.459 0 0 0-.726-.372 6.732 6.732 0 0 0-1.063.946v5.063z" fill="#EEE"/></g></svg>