<svg width="20" height="20" xmlns="http://www.w3.org/2000/svg" xmlns:xlink="http://www.w3.org/1999/xlink"><defs><linearGradient x1="50%" y1="0%" x2="50%" y2="100%" id="a"><stop stop-color="#5D81E7" offset="0%"/><stop stop-color="#2966F9" offset="100%"/></linearGradient><path d="M3.839 6.996a.608.608 0 0 1-.504-.183L.182 3.575a.65.65 0 0 1 .003-.904.61.61 0 0 1 .88-.003l2.726 2.798L8.931.188a.616.616 0 0 1 .886-.001.653.653 0 0 1-.002.909L4.251 6.809a.619.619 0 0 1-.412.187z" id="b"/></defs><g fill="none" fill-rule="evenodd"><circle fill="url(#a)" cx="10" cy="10" r="10"/><use stroke="#FFF" stroke-width=".833" fill="#FFF" xlink:href="#b" transform="translate(5 7)"/></g></svg>