<svg width="26" height="24" viewBox="0 0 26 24" fill="none" xmlns="http://www.w3.org/2000/svg">
<path d="M2.64188 7.7175C2.64188 8.77025 1.78846 9.62367 0.735718 9.62367C0.329412 9.62367 0 9.29426 0 8.88795V4.38188C0 3.97553 0.329412 3.64612 0.735718 3.64612C1.78846 3.64612 2.64188 4.49954 2.64188 5.55228V7.7175Z" fill="url(#paint0_linear_135_130)"/>
<path d="M2.64188 18.4477C2.64188 19.5005 1.78846 20.3539 0.735718 20.3539C0.329412 20.3539 0 20.0245 0 19.6181V15.112C0 14.7057 0.329412 14.3763 0.735718 14.3763C1.78846 14.3763 2.64188 15.2297 2.64188 16.2825V18.4477Z" fill="url(#paint1_linear_135_130)"/>
<rect x="1.32001" y="0.660007" width="24.68" height="22.68" rx="4" fill="url(#paint2_linear_135_130)"/>
<path d="M11.5265 15.05L8.67349 17.903C8.29052 18.2855 7.66982 18.2855 7.28689 17.903C6.90437 17.52 6.90437 16.8993 7.28689 16.5164L10.1399 13.6634C10.4808 14.2319 10.9581 14.7091 11.5265 15.05Z" fill="white"/>
<path d="M20.19 5.98019C20.19 6.23109 20.0941 6.48203 19.903 6.67349L17.05 9.52652C16.7091 8.95806 16.2319 8.48083 15.6634 8.13992L18.5164 5.28689C18.8994 4.90437 19.5201 4.90437 19.903 5.28689C20.0941 5.4784 20.19 5.72929 20.19 5.98019Z" fill="white"/>
<path d="M8.67349 5.28689L11.5265 8.13992C10.9581 8.48083 10.4808 8.95806 10.1399 9.52652L7.28689 6.67349C6.90437 6.29052 6.90437 5.66982 7.28689 5.28689C7.66986 4.90437 8.29056 4.90437 8.67349 5.28689Z" fill="white"/>
<path d="M19.903 17.903C19.7116 18.0941 19.4606 18.19 19.2097 18.19C18.9588 18.19 18.7079 18.0941 18.5164 17.903L15.6634 15.05C16.2319 14.7091 16.7091 14.2318 17.05 13.6634L19.903 16.5164C20.2855 16.8994 20.2855 17.5201 19.903 17.903Z" fill="white"/>
<path d="M13.595 6.43705C10.7462 6.43705 8.43701 8.74622 8.43701 11.595C8.43701 14.4438 10.7462 16.7529 13.595 16.7529C16.4437 16.7529 18.7529 14.4438 18.7529 11.595C18.7529 8.74622 16.4437 6.43705 13.595 6.43705ZM13.595 14.1432C12.1876 14.1432 11.0468 13.0024 11.0468 11.595C11.0468 10.1876 12.1876 9.04682 13.595 9.04682C15.0024 9.04682 16.1431 10.1876 16.1431 11.595C16.1431 13.0024 15.0024 14.1432 13.595 14.1432Z" fill="white"/>
<path d="M13.595 15.6215C15.8188 15.6215 17.6215 13.8188 17.6215 11.595C17.6215 9.37117 15.8188 7.56849 13.595 7.56849C11.3712 7.56849 9.56848 9.37117 9.56848 11.595C9.56848 13.8188 11.3712 15.6215 13.595 15.6215ZM13.595 9.04677C15.0024 9.04677 16.1432 10.1875 16.1432 11.5949C16.1432 13.0024 15.0024 14.1431 13.595 14.1431C12.1876 14.1431 11.0468 13.0024 11.0468 11.5949C11.0468 10.1875 12.1876 9.04677 13.595 9.04677Z" fill="#B8B8B8"/>
<defs>
<linearGradient id="paint0_linear_135_130" x1="0" y1="3.64612" x2="4.35424" y2="5.41967" gradientUnits="userSpaceOnUse">
<stop stop-color="#DEDEDE"/>
<stop offset="1" stop-color="#B4B4B4"/>
</linearGradient>
<linearGradient id="paint1_linear_135_130" x1="0" y1="14.3763" x2="4.35424" y2="16.1499" gradientUnits="userSpaceOnUse">
<stop stop-color="#DEDEDE"/>
<stop offset="1" stop-color="#B4B4B4"/>
</linearGradient>
<linearGradient id="paint2_linear_135_130" x1="1.32001" y1="0.660007" x2="24.9646" y2="24.3725" gradientUnits="userSpaceOnUse">
<stop stop-color="#DEDEDE"/>
<stop offset="1" stop-color="#B4B4B4"/>
</linearGradient>
</defs>
</svg>
