<?xml version="1.0" encoding="UTF-8" standalone="no"?>
<svg
   xmlns:dc="http://purl.org/dc/elements/1.1/"
   xmlns:cc="http://creativecommons.org/ns#"
   xmlns:rdf="http://www.w3.org/1999/02/22-rdf-syntax-ns#"
   xmlns:svg="http://www.w3.org/2000/svg"
   xmlns="http://www.w3.org/2000/svg"
   xmlns:sodipodi="http://sodipodi.sourceforge.net/DTD/sodipodi-0.dtd"
   xmlns:inkscape="http://www.inkscape.org/namespaces/inkscape"
   width="28"
   height="28"
   version="1.1"
   id="svg6"
   sodipodi:docname="icon-hbar-outline2.svg"
   style="fill:none"
   inkscape:version="0.92.4 5da689c313, 2019-01-14">
  <metadata
     id="metadata12">
    <rdf:RDF>
      <cc:Work
         rdf:about="">
        <dc:format>image/svg+xml</dc:format>
        <dc:type
           rdf:resource="http://purl.org/dc/dcmitype/StillImage" />
        <dc:title />
      </cc:Work>
    </rdf:RDF>
  </metadata>
  <defs
     id="defs10" />
  <sodipodi:namedview
     pagecolor="#ffffff"
     bordercolor="#666666"
     borderopacity="1"
     objecttolerance="10"
     gridtolerance="10"
     guidetolerance="10"
     inkscape:pageopacity="0"
     inkscape:pageshadow="2"
     inkscape:window-width="1276"
     inkscape:window-height="1377"
     id="namedview8"
     showgrid="false"
     units="in"
     fit-margin-top="0"
     fit-margin-left="0"
     fit-margin-right="0"
     fit-margin-bottom="0"
     inkscape:zoom="15.225806"
     inkscape:cx="5.0817241"
     inkscape:cy="15.998299"
     inkscape:window-x="0"
     inkscape:window-y="61"
     inkscape:window-maximized="0"
     inkscape:current-layer="text967" />
  <g
     style="fill:none;fill-rule:evenodd"
     id="g6">
    <path
       style="stroke:#3bc1aa;stroke-opacity:1"
       inkscape:connector-curvature="0"
       d="M 27,14 C 27,21.18 21.18,27 14,27 6.82,27 1,21.18 1,14 1,6.82 6.82,1 14,1 21.18,1 27,6.82 27,14"
       id="path2-0" />
  </g>
  <g
     aria-label="â„"
     style="font-style:normal;font-weight:normal;font-size:40px;line-height:1.25;font-family:sans-serif;letter-spacing:0px;word-spacing:0px;fill:#3bc1aa;fill-opacity:1;stroke:none"
     id="text967">
    <path
       d="m 8.2933333,22.360001 h 1.5466666 l 0.6400001,-2.16 c 0.693333,-2.32 1.44,-3.973334 2.373333,-5.28 C 14,13.266667 16,11.906668 17.28,11.906668 c 0.373333,0 0.693333,0.24 0.693333,0.533333 0,0.293333 -0.186667,1.066666 -0.48,2.133333 l -1.68,5.626667 c -0.106667,0.4 -0.16,0.773333 -0.16,1.2 0,0.8 0.48,1.333333 1.2,1.333333 0.826667,0 1.44,-0.426667 2.853333,-1.973333 l -0.4,-0.773334 c -1.04,1.093334 -1.386666,1.36 -1.653333,1.36 -0.16,0 -0.266667,-0.106666 -0.266667,-0.24 0,-0.106666 0.02667,-0.266666 0.08,-0.453333 l 1.946667,-7.253333 c 0.08,-0.24 0.106667,-0.533333 0.106667,-0.773333 0,-1.386667 -0.72,-2.106667 -2.08,-2.106667 -1.52,0 -2.906667,0.746667 -4.773333,2.56 L 13.573333,10.386668 17.52,8.6000009 18.053333,7.400001 13.92,9.2133343 l 1.146666,-3.9466666 -3.679999,0.5866666 -0.4,0.7733334 c 0.426666,-0.16 0.64,-0.2133334 0.906666,-0.2133334 0.746667,0 1.04,0.2133334 1.04,0.72 0,0.32 -0.08,0.8 -0.24,1.28 l -0.506666,1.5199999 -3.4133337,1.4666668 -0.1866667,1.04 3.3600004,-1.44 z"
       style="font-style:normal;font-variant:normal;font-weight:normal;font-stretch:normal;font-size:26.66666603px;font-family:'Nimbus Mono PS';-inkscape-font-specification:'Nimbus Mono PS';fill:#3bc1aa;fill-opacity:1"
       id="path815" />
  </g>
</svg>
