<svg width="24" height="24" xmlns="http://www.w3.org/2000/svg" xmlns:xlink="http://www.w3.org/1999/xlink"><defs><path id="a" d="M0 .024h4.844V4.86H0z"/></defs><g fill="none" fill-rule="evenodd"><path d="M21.845 1.137c-1.552-1.512-4.144-1.525-5.71.014L14.69 2.595a.652.652 0 0 0 0 .945l2.376 2.376 2.403 2.39c.257.27.689.27.945 0l1.431-1.431a4.041 4.041 0 0 0 0-5.738" fill="#5B84E7"/><path d="m21.845 6.875-1.43 1.43a.653.653 0 0 1-.946 0l-2.403-2.389 4.78-4.779a4.041 4.041 0 0 1 0 5.738" fill="#4376F0"/><g transform="translate(0 18.18)"><mask id="b" fill="#fff"><use xlink:href="#a"/></mask><path d="m4.642 2.604-1.2-1.202L2.251.228A.66.66 0 0 0 1.16.444L.984.862.106 2.995c-.216.5-.094 1.067.284 1.458v.014a1.33 1.33 0 0 0 1.472.283l2.146-.877.419-.176a.664.664 0 0 0 .215-1.093" fill="#2F68F1" mask="url(#b)"/></g><path d="m8.477 20.217-4.05 1.66-.419.176-1.525-1.512-1.499-1.499.176-.418 1.674-4.063a.664.664 0 0 1 1.093-.217l2.376 2.377 2.39 2.402c.337.338.229.932-.216 1.094" fill="#E2EDFB"/><path d="M4.642 20.784a.664.664 0 0 1-.215 1.093l-.419.176-2.146.877a1.33 1.33 0 0 1-1.472-.283v-.014l3.051-3.05 1.201 1.201z" fill="#063FB7"/><path d="M8.692 19.123c.338.338.23.932-.215 1.094l-4.05 1.66-.419.176-1.526-1.512 3.821-3.82 2.39 2.402z" fill="#C5C9F7"/><path d="m18.51 9.278-2.402-2.403-2.376-2.376a.676.676 0 0 0-.945 0l-9.805 9.845v.014l2.849 2.848 2.861 2.862 9.819-9.845a.652.652 0 0 0 0-.945" fill="#2F68F1"/><path d="M18.51 9.278c.27.243.27.702 0 .945l-9.818 9.845-2.861-2.862L16.108 6.875l2.403 2.403z" fill="#063FB7"/><path fill="#C5C9F7" d="m18.025 4.958-2.862-2.849L12.3 4.971l5.737 5.738L20.9 7.833z"/><path fill="#A8AFF1" d="m20.9 7.833-2.862 2.876-2.875-2.876 2.862-2.875z"/></g></svg>