<svg width="25" height="24" xmlns="http://www.w3.org/2000/svg"><defs><linearGradient x1="50%" y1="0%" x2="50%" y2="100%" id="a"><stop stop-color="#82A7FA" offset="0%"/><stop stop-color="#4675D4" offset="99.94%"/></linearGradient></defs><path d="M12.238 0C5.48 0 0 5.501 0 12.288a12.287 12.287 0 0 0 8.371 11.66c.612.112.836-.267.836-.593 0-.292-.01-1.065-.017-2.09-3.404.742-4.123-1.647-4.123-1.647-.555-1.42-1.359-1.798-1.359-1.798-1.112-.762.083-.747.083-.747 1.229.088 1.874 1.267 1.874 1.267 1.092 1.877 2.866 1.336 3.563 1.02.11-.793.427-1.335.777-1.642-2.717-.311-5.574-1.365-5.574-6.073 0-1.341.477-2.438 1.26-3.298-.127-.31-.546-1.56.12-3.25 0 0 1.028-.331 3.365 1.258a11.677 11.677 0 0 1 3.065-.413c1.038.006 2.086.14 3.064.415 2.336-1.59 3.363-1.26 3.363-1.26.667 1.693.247 2.941.122 3.252.785.86 1.258 1.956 1.258 3.298 0 4.72-2.861 5.758-5.588 6.063.44.38.831 1.129.831 2.275 0 1.643-.015 2.968-.015 3.37 0 .33.22.712.841.59a12.288 12.288 0 0 0 8.361-11.657C24.478 5.501 18.998 0 12.238 0" fill="url(#a)" fill-rule="evenodd"/></svg>