<?xml version="1.0" encoding="UTF-8" standalone="no"?>
<!-- Created with Inkscape (http://www.inkscape.org/) -->

<svg
    xmlns:dc="http://purl.org/dc/elements/1.1/"
    xmlns:cc="http://creativecommons.org/ns#"
    xmlns:rdf="http://www.w3.org/1999/02/22-rdf-syntax-ns#"
    xmlns:sodipodi="http://sodipodi.sourceforge.net/DTD/sodipodi-0.dtd"
    xmlns:inkscape="http://www.inkscape.org/namespaces/inkscape"
    xmlns="http://www.w3.org/2000/svg"
    width="250.40166mm"
    height="250.34874mm"
    viewBox="0 0 250.40166 250.34874"
    version="1.1"
    id="svg8"
    inkscape:version="0.92.4 5da689c313, 2019-01-14"
    sodipodi:docname="icon-hbar-outline2.svg">
    <defs
        id="defs2"/>
    <sodipodi:namedview
        id="base"
        pagecolor="#ffffff"
        bordercolor="#666666"
        borderopacity="1.0"
        inkscape:pageopacity="0.0"
        inkscape:pageshadow="2"
        inkscape:zoom="0.35"
        inkscape:cx="-24.249527"
        inkscape:cy="471.97442"
        inkscape:document-units="mm"
        inkscape:current-layer="g3999"
        showgrid="false"
        fit-margin-top="0"
        fit-margin-left="0"
        fit-margin-right="0"
        fit-margin-bottom="0"
        inkscape:window-width="1276"
        inkscape:window-height="701"
        inkscape:window-x="2"
        inkscape:window-y="737"
        inkscape:window-maximized="1"/>
    <metadata
        id="metadata5">
        <rdf:RDF>
            <cc:Work
                rdf:about="">
                <dc:format>image/svg+xml</dc:format>
                <dc:type
                    rdf:resource="http://purl.org/dc/dcmitype/StillImage"/>
                <dc:title></dc:title>
            </cc:Work>
        </rdf:RDF>
    </metadata>
    <g
        inkscape:label="Layer 1"
        inkscape:groupmode="layer"
        id="layer1"
        transform="translate(19.367499,6.5791354)">
        <g
            id="g3999"
            transform="matrix(0.26458333,0,0,0.26458333,-27.252082,-14.569552)">
            <path
                id="path3986"
                d="m 652.4,648.3 c -9.1,14.9 -20,27.4 -32.8,37.4 -12.8,10 -24.3,15 -34.5,15 -5.7,0 -9.9,-1.5 -12.8,-4.5 -2.8,-3 -4.3,-7.5 -4.3,-13.3 0,-5.4 7.2,-25.2 21.7,-59.5 l 37.5,-87.8 c 16.7,-39.4 25.1,-64.4 25.1,-74.9 0,-13.3 -4.7,-23.2 -14,-29.7 -9.4,-6.5 -23.6,-9.8 -42.6,-9.8 -42,0 -88.5,25.4 -139.6,76.3 L 501.5,374.9 636.3,339.5 628.8,311 514,341.2 552.8,236.4 h -10.6 c -21.9,7.5 -55.3,11.7 -100.4,12.6 l -5.1,14.7 h 13.6 c 15,0 24.5,1.2 28.3,3.5 3.8,2.3 5.7,6.2 5.7,11.5 0,3.7 -4.3,17 -12.8,39.9 l -13.8,37.3 -100,26.2 7.5,28.5 80.1,-21 -123.2,333.3 h 50.6 L 405,636.5 c 13.9,-38.3 25.2,-66.1 33.8,-83.6 8.7,-17.5 22.3,-36.2 41.1,-56.2 18.7,-19.9 36.7,-34.2 54,-42.7 17.3,-8.5 32.3,-12.8 45.1,-12.8 7.9,0 13.8,1.5 17.7,4.4 3.8,2.9 5.8,7.3 5.8,13.1 0,9.6 -8.4,32.9 -25.1,70 l -36.2,80.8 c -15.9,35.7 -23.8,60.6 -23.8,74.5 0,13.1 4.7,23.6 14,31.5 9.4,7.9 20.6,11.9 33.6,11.9 17.9,0 36.7,-7.2 56.6,-21.7 19.9,-14.5 37,-33.6 51.5,-57.4 z"
                inkscape:connector-curvature="0"
                style="stroke:none;stroke-opacity:1;fill:#3bc1aa;fill-opacity:1"/>
            <path
                id="path3988"
                d="M 503,976.4 C 439.1,976.4 377.2,963.9 318.8,939.2 262.5,915.4 211.9,881.3 168.4,837.8 125,794.4 90.8,743.8 67,687.4 42.3,629.1 29.8,567.1 29.8,503.2 29.8,439.3 42.3,377.4 67,319 90.8,262.7 124.9,212.1 168.4,168.6 211.8,125.2 262.4,91 318.8,67.2 c 58.4,-24.5 120.3,-37 184.2,-37 63.9,0 125.8,12.5 184.2,37.2 56.3,23.8 106.9,57.9 150.4,101.4 43.4,43.4 77.6,94 101.4,150.4 24.7,58.3 37.2,120.3 37.2,184.2 0,63.9 -12.5,125.8 -37.2,184.2 -23.8,56.3 -57.9,106.9 -101.4,150.4 -43.4,43.4 -94,77.6 -150.4,101.4 -58.4,24.5 -120.4,37 -184.2,37 m 0,-919.5 c -60.3,0 -118.7,11.8 -173.8,35.1 -53.2,22.5 -100.9,54.7 -141.9,95.7 -41,41 -73.2,88.7 -95.7,141.9 -23.3,55 -35.1,113.5 -35.1,173.8 0,60.3 11.8,118.7 35.1,173.8 22.5,53.2 54.7,100.9 95.7,141.9 41,41 88.7,73.2 141.9,95.7 55,23.3 113.5,35.1 173.8,35.1 60.3,0 118.7,-11.8 173.8,-35.1 53.2,-22.5 100.9,-54.7 141.9,-95.7 41,-41 73.2,-88.7 95.7,-141.9 23.3,-55 35.1,-113.5 35.1,-173.8 0,-60.3 -11.8,-118.7 -35.1,-173.8 C 891.9,276.4 859.7,228.7 818.7,187.7 777.7,146.7 730,114.5 676.8,92 621.7,68.7 563.3,56.9 503,56.9"
                inkscape:connector-curvature="0"
                style="fill:#3bc1aa;fill-opacity:1"/>
        </g>
    </g>
</svg>
