<svg width="20" height="26" xmlns="http://www.w3.org/2000/svg"><defs><linearGradient x1="50%" y1="0%" x2="50%" y2="100%" id="a"><stop stop-color="#5A80EA" offset="0%"/><stop stop-color="#2D69F7" offset="100%"/></linearGradient></defs><g fill="none" fill-rule="evenodd"><path fill="#C7D8FB" d="M7.032 15.344H13V10.23H7.032z"/><path d="M7.032 11.821a5.094 5.094 0 0 0 5.967 0V10.23H7.032v1.592z" fill="#B5C9F1"/><path d="m18.63 25.574.335-8.387A2.557 2.557 0 0 0 17.33 14.7l-3.88-1.331a.343.343 0 0 0-.416.155 3.41 3.41 0 0 1-6.036 0 .343.343 0 0 0-.415-.155l-3.88 1.33a2.557 2.557 0 0 0-1.635 2.49l.336 8.386h17.225z" fill="url(#a)"/><path d="M4.902 19.176 1.45 15.743a2.55 2.55 0 0 0-.383 1.444l.335 8.387h3.499v-6.398zm10.229 0 3.45-3.433c.263.424.405.922.384 1.444l-.336 8.387h-3.498v-6.398z" fill="#2D68F6"/><path d="M14.705 5.967V4.69a4.689 4.689 0 0 0-9.377 0v1.278h-.015a.833.833 0 0 0-.144.016c-.415.08-.694.476-.694.899v.309c0 .407.26.792.658.885.09.02.176.026.26.02a.415.415 0 0 1 .435.346 4.26 4.26 0 0 0 4.188 3.492 4.26 4.26 0 0 0 4.188-3.492.414.414 0 0 1 .413-.344h.087a.852.852 0 0 0 .853-.852V6.82a.852.852 0 0 0-.852-.853" fill="#C7D8FB"/><path d="M7.459 7.672v-3.41A4.685 4.685 0 0 1 10.185.008C10.129.006 10.073 0 10.016 0a4.689 4.689 0 0 0-4.688 4.689v1.278h-.015a.833.833 0 0 0-.144.016c-.415.08-.694.476-.694.899v.309c0 .407.26.792.658.885.09.02.176.026.26.02a.415.415 0 0 1 .435.346 4.26 4.26 0 0 0 4.188 3.492c.057 0 .114-.005.17-.007A4.685 4.685 0 0 1 7.46 7.672" fill="#B5C9F1"/><path d="M19.18 26H.426a.426.426 0 1 1 0-.852H19.18a.426.426 0 1 1 0 .852" fill="#9CB1DD"/><path d="M14.54 25.148H5.066a.852.852 0 0 1-.85-.803l-.327-5.54a.852.852 0 0 1 .851-.903h10.126c.49 0 .88.413.851.902l-.326 5.541a.852.852 0 0 1-.85.803" fill="#C7D8FB"/><path d="M9.803 20.672a1.066 1.066 0 1 1 0 2.132 1.066 1.066 0 0 1 0-2.132" fill="#FFF"/><path d="M5.668 13.681a4.687 4.687 0 0 0 4.348 2.942 4.687 4.687 0 0 0 4.349-2.942l-.915-.313a.343.343 0 0 0-.416.155 3.41 3.41 0 0 1-6.036 0 .343.343 0 0 0-.415-.155l-.915.313z" fill="#2D68F6"/><path d="M10.016 0a4.689 4.689 0 0 0-4.688 4.689v1.278h.564a.426.426 0 0 0 .396-.268l.53-1.327a.852.852 0 0 1 .792-.536h4.813c.348 0 .662.212.791.536l.531 1.327a.426.426 0 0 0 .396.268h.564V4.69A4.69 4.69 0 0 0 10.016.001" fill="#B5C9F1"/><path d="M5.328 4.689v1.278h.564a.426.426 0 0 0 .396-.268l.53-1.327a.845.845 0 0 1 .66-.516A4.688 4.688 0 0 1 10.185.009C10.129.007 10.073 0 10.016 0a4.689 4.689 0 0 0-4.688 4.689" fill="#9CB1DD"/></g></svg>