<svg width="31" height="24" xmlns="http://www.w3.org/2000/svg"><defs><linearGradient x1="50%" y1="0%" x2="50%" y2="100%" id="a"><stop stop-color="#82A7FA" offset="0%"/><stop stop-color="#4675D4" offset="99.94%"/></linearGradient></defs><path d="m27.851 2.816 2.415-2.31V0H21.9l-5.962 14.84L9.154 0H.382v.506l2.821 3.396c.275.25.419.618.382.987v13.346c.087.48-.07.975-.407 1.324L0 23.411v.5h9.01v-.507L5.833 19.56a1.569 1.569 0 0 1-.438-1.324V6.691l7.91 17.225h.919l6.8-17.225v13.722c0 .362 0 .436-.236.674l-2.447 2.367v.507h11.87v-.506l-2.359-2.31a.701.701 0 0 1-.27-.673V3.49a.699.699 0 0 1 .269-.673" fill="url(#a)" fill-rule="evenodd"/></svg>