<svg width="30" height="20" xmlns="http://www.w3.org/2000/svg"><defs><linearGradient x1="74.473%" y1="37.387%" x2="50%" y2="54.062%" id="a"><stop stop-color="#5B80E8" offset="0%"/><stop stop-color="#2A66F7" offset="100%"/></linearGradient><linearGradient x1="74.473%" y1="11.373%" x2="50%" y2="62.441%" id="b"><stop stop-color="#5B80E8" offset="0%"/><stop stop-color="#2A66F7" offset="100%"/></linearGradient></defs><g fill="none" fill-rule="evenodd"><path fill="url(#a)" d="M7.241 14.483v5.172H22.76l2.586-5.172z"/><path fill="#2966F7" d="M22.759 4.138h-1.035V3.103H20.69v1.035h-1.035v1.034h1.035v1.035h1.034V5.172h1.035zm-5.69 3.103h1.034V6.207H17.07z"/><path fill="#7D9DEA" d="m16.035 14.483-2.587 5.172h7.242l-2.587-5.172zm9.31 0-2.586 5.172H30l-2.586-5.172zm-7.242 0L20.69 9.31h2.069l2.586 5.173z"/><path fill="url(#b)" d="M20.69 9.31H10.345v5.173h7.758z"/><path fill="#7D9DEA" d="M2.069 14.483 0 19.655h7.759l-2.07-5.172z"/><path fill="#5B80E8" d="m5.69 14.483 2.069 5.172L15 9.31l-2.586-3.62z"/><path fill="#A1BAF0" d="M2.069 14.483 8.793 5.69h3.62L5.69 14.483z"/><path fill="#7D9DEA" d="m14.483 0-.74 1.847-1.846.74 1.847.738.739 1.847.739-1.847 1.847-.739-1.847-.739z"/></g></svg>