<svg width="18" height="24" xmlns="http://www.w3.org/2000/svg" xmlns:xlink="http://www.w3.org/1999/xlink"><defs><path id="a" d="M.024 0h5.929v7.435H.023z"/><path id="c" d="M.035 0H3v7.435H.035z"/><path id="e" d="M.01.035h14.489V15H.009z"/><path id="g" d="M.035.035H7.28V15H.035z"/></defs><g fill="none" fill-rule="evenodd"><path d="m15.703 6.585-.941-4.517a.706.706 0 0 0-.691-.562h-2.824a.706.706 0 0 0-.706.706v4.517c0 .39.316.706.706.706h3.765a.706.706 0 0 0 .69-.85" fill="#B5DBFF"/><path d="M6.73 1.506H3.905a.706.706 0 0 0-.691.562l-.941 4.517a.706.706 0 0 0 .69.85H6.73c.39 0 .706-.316.706-.706V2.212a.706.706 0 0 0-.706-.706" fill="#D5E8FE"/><g transform="translate(6)"><mask id="b" fill="#fff"><use xlink:href="#a"/></mask><path d="M5.953.706v6.023c0 .39-.316.706-.706.706H.73a.706.706 0 0 1-.705-.706V.706A.704.704 0 0 1 .729 0h4.518c.39 0 .706.316.706.706" fill="#EDF5FF" mask="url(#b)"/></g><g transform="translate(8.953)"><mask id="d" fill="#fff"><use xlink:href="#c"/></mask><path d="M3 .706v6.023c0 .39-.316.706-.706.706H.035V0h2.259C2.684 0 3 .316 3 .706" fill="#D5E8FE" mask="url(#d)"/></g><g transform="translate(1.734 9)"><mask id="f" fill="#fff"><use xlink:href="#e"/></mask><path d="m14.497.786-.872 13.553a.706.706 0 0 1-.704.661H1.587a.706.706 0 0 1-.704-.66L.01.785a.707.707 0 0 1 .704-.75h13.078c.405 0 .73.342.704.75" fill="#3569E9" mask="url(#f)"/></g><g transform="translate(8.953 9)"><mask id="h" fill="#fff"><use xlink:href="#g"/></mask><path d="M7.278.786 6.406 14.34a.706.706 0 0 1-.704.661H.035V.035h6.539c.405 0 .73.343.704.751" fill="#0640B8" mask="url(#h)"/></g><path d="M17.976 6.73v3.01c0 .39-.316.706-.705.706H.706A.706.706 0 0 1 0 9.741V6.73c0-.39.316-.705.706-.705H17.27c.39 0 .705.316.705.705" fill="#0640B8"/><path d="M17.976 6.73v3.01c0 .39-.316.706-.705.706H8.988V6.024h8.283c.39 0 .705.316.705.705" fill="#042659"/><path d="M7.105 20.988a.706.706 0 0 1-.704-.67l-.377-7.53a.706.706 0 1 1 1.41-.07l.377 7.53a.706.706 0 0 1-.706.74" fill="#5B84E7"/><path d="M10.871 20.988a.706.706 0 0 1-.705-.741l.376-7.53a.707.707 0 0 1 1.41.071l-.376 7.53a.706.706 0 0 1-.705.67" fill="#3368EB"/></g></svg>