<svg width="18" height="24" xmlns="http://www.w3.org/2000/svg"><defs><linearGradient x1="50%" y1="0%" x2="50%" y2="100%" id="a"><stop stop-color="#6DA4E9" offset="0%"/><stop stop-color="#4173D4" offset="100%"/></linearGradient><linearGradient x1="50%" y1="0%" x2="50%" y2="100%" id="b"><stop stop-color="#6CA3E8" offset="0%"/><stop stop-color="#4072D3" offset="100%"/></linearGradient></defs><g fill="none" fill-rule="evenodd"><path d="M17.684 4.421A4.421 4.421 0 0 0 13.264 0H4.42A4.421 4.421 0 0 0 0 4.421V19.58A4.421 4.421 0 0 0 4.421 24h8.842a4.421 4.421 0 0 0 4.421-4.421V4.42z" fill="url(#a)"/><path d="M13.263 0a4.421 4.421 0 1 1 0 8.842H4.421a4.421 4.421 0 1 1 0-8.842h8.842z" fill="url(#b)"/><path d="M17.684 11.567v1.847a5.023 5.023 0 0 1-3.158 1.112H3.158A5.023 5.023 0 0 1 0 13.414v-1.847a3.79 3.79 0 0 0 3.158 1.696h11.368a3.79 3.79 0 0 0 3.158-1.696m0 5.053v1.847a5.022 5.022 0 0 1-3.158 1.112H3.158A5.022 5.022 0 0 1 0 18.467v-1.848a3.79 3.79 0 0 0 3.158 1.697h11.368a3.79 3.79 0 0 0 3.158-1.697" fill="#4072D3"/><path fill="#8CA7EA" d="M8.21 12h1.264v-1.263H8.21zm2.527 0H12v-1.263h-1.263zm-5.053 0h1.263v-1.263H5.684zm2.526 5.053h1.264v-1.264H8.21zm2.527 0H12v-1.264h-1.263zm-5.053 0h1.263v-1.264H5.684zm2.526 5.052h1.264v-1.263H8.21zm2.527 0H12v-1.263h-1.263zm-5.053 0h1.263v-1.263H5.684z"/></g></svg>