<svg width="24" height="24" xmlns="http://www.w3.org/2000/svg"><defs><linearGradient x1="50%" y1="0%" x2="50%" y2="100%" id="a"><stop stop-color="#DFDFDF" offset="0%"/><stop stop-color="#B7B7B7" offset="100%"/></linearGradient><linearGradient x1="81.714%" y1="0%" x2="2.557%" y2="99.399%" id="b"><stop stop-color="#ABABAB" offset="0%"/><stop stop-color="#CACACA" offset="100%"/></linearGradient></defs><g fill="none" fill-rule="evenodd"><path d="M16.217 8.241a2.079 2.079 0 1 1-1.17-3.989 2.079 2.079 0 0 1 1.17 3.99" fill="#0071BC"/><path d="M17.627 5.66a2.073 2.073 0 0 0-1.314-1.373l-.014.042a3.948 3.948 0 0 1-2.615 2.489l-.047.014a2.08 2.08 0 1 0 3.99-1.171" fill="#1B1464"/><path d="M21.215 14.382a8.316 8.316 0 0 0-.235-11.988c-3.177-2.943-8.253-2.901-11.387.09a8.289 8.289 0 0 0-2.507 7.019c.09.745-.128 1.495-.66 2.025L.795 17.16a2.384 2.384 0 0 0-.699 1.687v3.058c0 1.013.822 1.834 1.835 1.834h3.058c.633 0 1.24-.25 1.687-.698l5.592-5.592c.554-.554 1.335-.784 2.113-.694a8.288 8.288 0 0 0 6.834-2.373" fill="url(#a)"/><path d="M20.98 2.395C19.495 1.018 17.594.303 15.671.229l.8 4.799a3.945 3.945 0 0 1-1.103 3.439L.634 23.202c.331.332.79.537 1.297.537h3.058c.633 0 1.24-.251 1.686-.698l5.593-5.592c.554-.554 1.335-.784 2.113-.694a8.29 8.29 0 0 0 6.834-2.373 8.317 8.317 0 0 0-.235-11.987" fill="url(#b)"/><path d="M18.275 8.501a2.08 2.08 0 1 1-2.94-2.941 2.08 2.08 0 0 1 2.94 2.941" fill="#FFF"/><path d="M18.275 5.56a2.072 2.072 0 0 0-1.811-.576l.007.044a3.947 3.947 0 0 1-1.102 3.439l-.034.034a2.08 2.08 0 0 0 2.94-2.94" fill="#E0E0E0"/><path d="m10.925 18.792-1.006-1.006a.658.658 0 0 0-.93 0l-.54.54a.658.658 0 0 0 0 .93l1.005 1.006 1.471-1.47zM8.72 20.997l-1.193-1.192a.392.392 0 0 0-.555 0l-.18.179a.392.392 0 0 0 0 .556l1.192 1.192.735-.735z" fill="#999"/></g></svg>