<svg width="14" height="20" xmlns="http://www.w3.org/2000/svg"><defs><linearGradient x1="50%" y1="0%" x2="50%" y2="100%" id="a"><stop stop-color="#5B81E9" offset="0%"/><stop stop-color="#175CFF" offset="100%"/></linearGradient></defs><g fill="none" fill-rule="evenodd"><path d="M12.684 9.538a.831.831 0 0 1-.826-.836v-2.06c0-2.752-2.213-5.018-4.934-4.969-2.633.047-4.76 2.228-4.76 4.902v2.127c0 .462-.37.836-.826.836a.831.831 0 0 1-.827-.836v-2.04C.511 3.041 3.37.034 6.95 0c3.612-.033 6.561 2.93 6.561 6.575v2.127c0 .462-.37.836-.827.836" fill="#B2D0D5"/><path d="M10.471 10.099H3.53a1.05 1.05 0 0 1-1.03-.877 1.048 1.048 0 0 0-1.029-.876h-.425C.468 8.346 0 8.819 0 9.403v9.446c0 .584.468 1.057 1.045 1.057h11.91c.577 0 1.045-.473 1.045-1.057V9.403c0-.584-.468-1.057-1.045-1.057h-.425c-.508 0-.942.37-1.03.876a1.048 1.048 0 0 1-1.029.877z" fill="url(#a)"/><path d="M6.638 12.003c-.9.051-1.62.74-1.638 1.564-.014.651.397 1.216.997 1.478l-.281 2.296c-.043.351.257.659.644.659h.78c.387 0 .687-.308.644-.659l-.281-2.296c.59-.258.997-.808.997-1.445 0-.917-.845-1.655-1.862-1.597z" fill="#062151"/></g></svg>