<svg width="25" height="27" xmlns="http://www.w3.org/2000/svg" xmlns:xlink="http://www.w3.org/1999/xlink"><defs><linearGradient x1="50%" y1="0%" x2="50%" y2="100%" id="b"><stop stop-color="#CCC" offset="0%"/><stop stop-color="#AAA" offset="100%"/></linearGradient><path id="a" d="M0 .517h21.409v24.892H0z"/></defs><g fill="none" fill-rule="evenodd"><path d="M12.446.61c6.863 0 12.427 5.563 12.427 12.427 0 6.863-5.564 12.428-12.427 12.428C5.583 25.465.02 19.9.02 13.037.019 6.173 5.583.609 12.446.609" fill="#FFF"/><g transform="translate(0 .074)"><mask id="c" fill="#fff"><use xlink:href="#a"/></mask><path d="M.02 13.666C.373 20.111 5.78 25.3 12.232 25.407a12.358 12.358 0 0 0 7.623-2.451c2.97-2.213 1.393-6.94-2.311-6.94h-4.693a.431.431 0 0 0-.432.43v1.556a.58.58 0 0 1-.958.439l-5.94-5.116a.478.478 0 0 1 0-.724l5.94-5.116a.58.58 0 0 1 .958.44V9.48c0 .238.193.432.432.432h4.693c3.705 0 5.282-4.729 2.31-6.943A12.36 12.36 0 0 0 12.447.517C5.34.517-.376 6.473.02 13.667" fill="url(#b)" mask="url(#c)"/></g><path d="M18.052 3.044c2.97 2.213 1.394 6.941-2.311 6.941h1.804c3.705 0 5.282-4.728 2.31-6.941A12.357 12.357 0 0 0 11.539.628a12.35 12.35 0 0 1 6.514 2.416m0 19.986a12.344 12.344 0 0 1-6.436 2.41c.206.015.409.038.617.04a12.36 12.36 0 0 0 7.623-2.45c2.97-2.213 1.392-6.941-2.312-6.941H15.74c3.705 0 5.283 4.728 2.313 6.94M10.616 7.998a.58.58 0 0 0-.957-.439l-5.942 5.116a.478.478 0 0 0 0 .724l5.942 5.116a.58.58 0 0 0 .957-.44v-.29L5.52 13.4a.478.478 0 0 1 0-.724l5.095-4.387v-.29z" fill="#999"/></g></svg>