<svg width="44" height="44" xmlns="http://www.w3.org/2000/svg" xmlns:xlink="http://www.w3.org/1999/xlink"><defs><path id="a" d="M0 0h44v44H0z"/></defs><g fill="none" fill-rule="evenodd"><path d="M22.857 23.545h8.205c.06 0 .118 0 .176-.002.14-.006.185-.047.197-.184.071-.823.072-1.647.014-2.471-.024-.338-.05-.355-.396-.355h-16.51c-.189.01-.24.06-.247.247l-.001.11v2.299c0 .355 0 .356.356.356h8.206m-.702 2.877h-7.479a8.07 8.07 0 0 0-.22.003c-.097.002-.148.054-.154.15a3.836 3.836 0 0 0-.007.22v4.716c.006.175.035.206.207.212.077.003.154.003.23.003h6.732c.205 0 .411.018.614 0 .39-.034.779-.088 1.168-.135 1.25-.151 2.428-.548 3.54-1.12 1.336-.688 2.405-1.691 3.232-2.946.18-.271.338-.558.493-.845.104-.194.055-.265-.163-.276a.815.815 0 0 0-.066-.002c-.224.006-.447.018-.67.018h-7.457m.274-8.648 7.864-.001c.064 0 .13-.013.193-.028.02-.004.05-.036.048-.05-.018-.1-.025-.206-.07-.293a8.505 8.505 0 0 0-2.245-2.8c-1.793-1.452-3.841-2.209-6.154-2.215-2.475-.006-4.95-.001-7.424-.001-.337 0-.346.009-.346.344v4.708c0 .335 0 .336.337.336h7.797m-5.347-8.015c1.595 0 3.19-.018 4.784.004 2.8.038 5.382.8 7.679 2.428a11.304 11.304 0 0 1 4.025 5.113c.018.044.033.089.049.134.058.17.176.254.356.254l2.507-.003c.306 0 .329.019.33.321.002.744.001 1.489 0 2.233-.001.224-.064.288-.29.289-.612.003-1.224.002-1.837.002-.044 0-.088-.001-.132.001-.135.007-.172.04-.168.174.006.201.03.403.03.604-.002.597-.013 1.194-.02 1.79-.002.088-.01.176-.01.264.002.146.027.17.176.176.059.003.118.002.176.002l1.958.001c.133 0 .165.042.158.174-.016.277-.035.554-.039.83-.006.477-.001.954-.002 1.43 0 .06.001.118-.004.177-.012.14-.073.203-.213.22-.051.005-.103.004-.154.004l-2.552-.002c-.163 0-.278.072-.334.219-.761 2-2.026 3.619-3.706 4.93-1.333 1.039-2.835 1.726-4.453 2.179-.978.274-1.976.431-2.989.485-.475.026-.952.039-1.428.04-3.084.003-6.167.001-9.25 0-.232 0-.21.014-.21-.206V26.7c0-.293-.003-.296-.293-.296H8.333c-.218 0-.256-.034-.256-.255-.002-.818 0-1.635-.003-2.453 0-.106.035-.138.14-.138 1.016.004 2.031.002 3.047.002.222 0 .255-.028.256-.253.002-.854.002-1.708 0-2.563 0-.165-.032-.193-.205-.193l-2.948-.001c-.047 0-.095 0-.143-.005-.074-.008-.122-.047-.131-.124a1.416 1.416 0 0 1-.013-.164v-2.31c0-.216.024-.24.24-.24l2.892-.001c.044 0 .088 0 .132-.002.103-.003.166-.048.169-.159.001-.08.008-.161.008-.242V10.1c0-.328.012-.34.34-.34l5.224-.001" stroke="#FFF" fill="#FFF"/><mask id="b" fill="#fff"><use xlink:href="#a"/></mask><path d="M22.55 0c.073.007.145.016.218.022l1.111.072c.185.013.37.029.555.049 1.281.136 2.54.392 3.776.759a21.857 21.857 0 0 1 8.8 5.024 21.711 21.711 0 0 1 4.844 6.614 21.805 21.805 0 0 1 2.102 8.21c.013.234.03.467.044.7v1.1c-.007.054-.018.107-.02.161a21.39 21.39 0 0 1-.265 2.766 21.535 21.535 0 0 1-1.627 5.473c-1.718 3.823-4.31 6.918-7.776 9.272a21.705 21.705 0 0 1-7.763 3.295 21.286 21.286 0 0 1-3.33.44c-.231.012-.46.029-.691.043h-1.056c-.058-.007-.116-.017-.174-.02-.293-.016-.586-.026-.878-.046a21.117 21.117 0 0 1-3.803-.61c-3.639-.93-6.847-2.66-9.593-5.221C3.814 35.107 1.689 31.464.632 27.2a20.927 20.927 0 0 1-.567-3.622C.042 23.236.022 22.893 0 22.55v-1.1c.007-.054.016-.108.02-.162l.083-1.213a20.283 20.283 0 0 1 .737-4.073 21.823 21.823 0 0 1 3.89-7.618 21.833 21.833 0 0 1 7.532-6.104A21.802 21.802 0 0 1 17.861.4 21.16 21.16 0 0 1 20.76.043c.23-.012.46-.028.69-.043h1.1zm-5.468 9.758h-5.225c-.297 0-.334.011-.338.26v.08l-.001 7.205c0 .081-.007.161-.008.242-.003.11-.066.156-.17.16h-.131l-2.893.001c-.215 0-.24.025-.24.24v2.31c0 .055.007.11.014.165.009.077.057.116.131.124.048.005.096.005.143.005h2.948c.173 0 .205.03.205.194.002.855.002 1.709 0 2.563 0 .225-.034.253-.256.253-1.016 0-2.031.002-3.047-.002-.105 0-.14.032-.14.138.004.818.001 1.635.003 2.453 0 .22.038.255.256.255h2.893c.29 0 .292.003.292.296v7.44c.003.071.017.088.09.091h.12c3.084.001 6.167.003 9.25 0 .477-.001.954-.014 1.43-.04a13.751 13.751 0 0 0 2.988-.485c1.618-.453 3.12-1.14 4.453-2.18 1.68-1.31 2.945-2.93 3.706-4.929.056-.147.17-.22.334-.22l2.552.003c.051 0 .103.001.154-.005.14-.016.201-.079.213-.22.005-.058.004-.117.004-.175 0-.477-.004-.954.002-1.43.004-.277.023-.554.039-.831.007-.132-.025-.174-.158-.174h-1.958c-.058 0-.117 0-.176-.003-.149-.007-.174-.03-.175-.176-.001-.088.007-.176.008-.263.008-.597.019-1.194.02-1.791.001-.201-.023-.403-.029-.604-.004-.135.033-.167.168-.174l.066-.001h.066c.613 0 1.225 0 1.837-.002.226-.001.289-.065.29-.289.001-.744.002-1.489 0-2.233-.001-.302-.024-.321-.33-.32l-2.507.002c-.18 0-.298-.084-.356-.254a2.744 2.744 0 0 0-.049-.134 11.304 11.304 0 0 0-4.025-5.113c-2.297-1.627-4.879-2.39-7.679-2.428-1.594-.022-3.19-.004-4.784-.004zm13.266 16.647c.218.011.267.082.163.276-.155.287-.313.574-.493.845-.827 1.255-1.896 2.258-3.232 2.946-1.112.572-2.29.969-3.54 1.12-.39.047-.778.1-1.168.135-.203.018-.41 0-.614 0h-6.731c-.077 0-.154 0-.231-.003-.172-.006-.2-.037-.206-.211l-.001-.06v-4.659c0-.073.003-.146.007-.22.006-.095.057-.147.154-.15l.22-.002h14.936c.223-.001.446-.013.67-.019.022 0 .044 0 .066.002zm.705-5.872c.346 0 .372.017.396.355.058.824.057 1.648-.014 2.471-.012.137-.057.178-.197.184l-.088.002H14.651c-.356 0-.356 0-.356-.356V20.89l.001-.11c.007-.187.058-.238.247-.246l.065-.001h16.445zm-8.988-8.147c2.313.006 4.361.763 6.154 2.214a8.529 8.529 0 0 1 2.246 2.8c.044.088.05.195.069.294.002.014-.028.046-.048.05a.885.885 0 0 1-.193.028H14.63c-.305 0-.333 0-.336-.252v-4.79c0-.337.01-.345.346-.345 2.475 0 4.95-.005 7.424.001z" fill="#F8B14B" mask="url(#b)"/></g></svg>