<svg width="114" height="114" xmlns="http://www.w3.org/2000/svg"><defs><linearGradient x1="50%" y1="0%" x2="50%" y2="100%" id="a"><stop stop-color="#6EA5E9" offset="0%"/><stop stop-color="#3F72D3" offset="100%"/></linearGradient></defs><g fill="none" fill-rule="evenodd"><rect fill="#E2EDFB" transform="rotate(45 57 57)" x="17" y="17" width="80" height="80" rx="20"/><rect fill="url(#a)" x="20" y="20" width="74" height="74" rx="8"/><path d="M30.547 26.772a2.274 2.274 0 1 1-4.548 0 2.274 2.274 0 0 1 4.548 0m6.696 0a2.273 2.273 0 1 1-4.547 0 2.273 2.273 0 0 1 4.547 0m7.104 0a2.273 2.273 0 1 1-4.547 0 2.273 2.273 0 0 1 4.547 0" fill="#FFF"/><rect fill="#FFF" transform="matrix(1 0 0 -1 0 124)" x="24" y="34" width="66" height="56" rx="4"/><g transform="translate(32 41)"><rect fill="#467AD7" transform="matrix(1 0 0 -1 0 2)" width="22" height="2" rx="1"/><rect fill="#467AD7" transform="matrix(1 0 0 -1 0 34)" y="16" width="22" height="2" rx="1"/><rect fill="#84EBC6" transform="matrix(1 0 0 -1 0 18)" y="8" width="22" height="2" rx="1"/><rect fill="#84EBC6" transform="matrix(1 0 0 -1 0 50)" y="24" width="22" height="2" rx="1"/><rect fill="#467AD7" transform="matrix(1 0 0 -1 0 66)" y="32" width="22" height="2" rx="1"/><rect fill="#467AD7" transform="matrix(1 0 0 -1 0 82)" y="40" width="22" height="2" rx="1"/><rect fill="#467AD7" transform="matrix(1 0 0 -1 0 2)" x="28" width="22" height="2" rx="1"/><rect fill="#467AD7" transform="matrix(1 0 0 -1 0 34)" x="28" y="16" width="22" height="2" rx="1"/><rect fill="#84EBC6" transform="matrix(1 0 0 -1 0 18)" x="28" y="8" width="22" height="2" rx="1"/><rect fill="#467AD7" transform="matrix(1 0 0 -1 0 50)" x="28" y="24" width="22" height="2" rx="1"/><rect fill="#84EBC6" transform="matrix(1 0 0 -1 0 66)" x="28" y="32" width="22" height="2" rx="1"/><rect fill="#84EBC6" transform="matrix(1 0 0 -1 0 82)" x="28" y="40" width="22" height="2" rx="1"/></g></g></svg>