<svg width="133" height="133" xmlns="http://www.w3.org/2000/svg" xmlns:xlink="http://www.w3.org/1999/xlink"><defs><linearGradient x1="0%" y1="0%" x2="100%" y2="100%" id="a"><stop stop-color="#3E70D3" offset="0%"/><stop stop-color="#093DA4" offset="100%"/></linearGradient><linearGradient x1="50%" y1="0%" x2="50%" y2="100%" id="c"><stop stop-color="#70A8EB" offset="0%"/><stop stop-color="#3D6FD3" offset="100%"/></linearGradient><path id="b" d="M0 .064h55.124v99.944H0z"/></defs><g transform="translate(1 .297)" fill="none" fill-rule="evenodd"><path d="m39.119 20.23 51.129.195c11.158.042 20.192 9.077 20.235 20.235l.194 51.13c.043 11.217-9.017 20.346-20.235 20.389h-.154l-51.13-.195c-11.157-.042-20.192-9.077-20.235-20.235L18.73 40.62c-.043-11.218 9.017-20.347 20.235-20.39h.155z" fill="url(#a)" transform="rotate(45 64.703 66.205)"/><path d="m103.008 111.956 5.914 5.96a2.828 2.828 0 0 1 0 3.985l-5.914 5.96a2.828 2.828 0 0 1-4.016 0l-5.914-5.96a2.828 2.828 0 0 1 0-3.985l5.914-5.96a2.828 2.828 0 0 1 4.016 0z" fill-opacity=".5" fill="#165CFF"/><rect fill-opacity=".5" fill="#39BA8B" x="111.284" y="90.973" width="20" height="20.153" rx="4.848"/><path d="M106.205 53.204 78.293 25.292 96.175 7.41c.48-.48 1.229-.508 1.673-.063l26.303 26.302c.444.444.415 1.194-.064 1.673l-17.882 17.882z" fill="#CCD5E1"/><path d="m104.345 51.343-24.19-24.19 16.093-16.094c.431-.431 1.094-.469 1.479-.084l22.795 22.796c.385.385.347 1.047-.084 1.479l-16.093 16.093z" fill="#FBFCFD"/><path d="M101.653 22.401a1.316 1.316 0 0 1 0 1.861l-7.514 7.514a1.316 1.316 0 1 1-1.861-1.86l7.514-7.515a1.316 1.316 0 0 1 1.86 0zm7.443 7.444a1.316 1.316 0 0 1 0 1.86l-7.514 7.515a1.316 1.316 0 1 1-1.861-1.861l7.514-7.514a1.316 1.316 0 0 1 1.861 0z" fill="#CCD5E1"/><g transform="rotate(45 13.31 97.934)"><mask id="d" fill="#fff"><use xlink:href="#b"/></mask><path d="M43.298 97.104H11.965C5.357 97.104 0 91.82 0 85.3V.173c0-.652.535-1.18 1.196-1.18h52.87c.661 0 1.197.528 1.197 1.18v85.126c0 6.52-5.358 11.805-11.965 11.805" fill="url(#c)" mask="url(#d)"/></g><path d="m74.464 27.088 29.946 29.945a1.193 1.193 0 0 1 0 1.688l-57.11 57.11c-2.166 2.166-6.085 1.758-8.754-.91l-21.97-21.97c-2.668-2.669-3.075-6.588-.91-8.754l57.11-57.11a1.193 1.193 0 0 1 1.688 0z" fill="#FFF"/><path d="m97.37 49.994 7.04 7.04a1.193 1.193 0 0 1 0 1.687l-57.31 57.31a5.263 5.263 0 0 1-7.443 0l-4.162-4.161 61.876-61.876z" fill="#84EBC6"/><g transform="rotate(45 -20.938 106.077)" fill="#4D80DA"><ellipse cx="2.632" cy="50.382" rx="2.632" ry="2.652"/><ellipse cx="2.632" cy="34.472" rx="2.632" ry="2.652"/><ellipse cx="2.632" cy="18.562" rx="2.632" ry="2.652"/><ellipse cx="2.632" cy="2.652" rx="2.632" ry="2.652"/></g></g></svg>