<svg width="270" height="201" xmlns="http://www.w3.org/2000/svg" xmlns:xlink="http://www.w3.org/1999/xlink"><defs><linearGradient x1="0%" y1="0%" x2="100%" y2="100%" id="a"><stop stop-color="#40CF9B" offset="0%"/><stop stop-color="#39BA8B" offset="100%"/></linearGradient><linearGradient x1="0%" y1="0%" x2="100%" y2="100%" id="b"><stop stop-color="#3E70D3" offset="0%"/><stop stop-color="#093DA4" offset="100%"/></linearGradient><linearGradient x1="0%" y1="96.392%" x2="96.304%" y2="28.822%" id="c"><stop stop-color="#FDFDFE" offset="0%"/><stop stop-color="#CBDAED" offset="100%"/></linearGradient><linearGradient x1="76.008%" y1="40.102%" x2="13.663%" y2="100%" id="d"><stop stop-color="#DFECF8" offset="0%"/><stop stop-color="#FFF" offset="100%"/></linearGradient><linearGradient x1="-8.153%" y1="70.871%" x2="100%" y2="37.127%" id="e"><stop stop-color="#8CA4C2" offset=".008%"/><stop stop-color="#9DB2CC" offset="100%"/></linearGradient><linearGradient x1="0%" y1="50%" x2="100%" y2="50%" id="f"><stop stop-color="#FFF" offset="0%"/><stop stop-color="#CBDAED" offset="100%"/></linearGradient><path id="g" d="M.07.009h10.754v17.323H.07z"/><path id="i" d="M.017.009h9.326v17.323H.017z"/><path id="k" d="M.016.062h1.696V5.05H.016z"/></defs><g fill="none" fill-rule="evenodd"><rect stroke="#D1DDEE" stroke-width="2" transform="rotate(-30 122.098 101.098)" x="51.098" y="30.098" width="142" height="142" rx="30.75"/><rect fill="url(#a)" x="48.712" y="27.712" width="146.771" height="146.771" rx="30.75"/><rect fill="url(#b)" transform="rotate(45 122.45 100.45)" x="52" y="30" width="140.9" height="140.9" rx="36.286"/><g fill-rule="nonzero"><path d="M92.595 25.19H82.143V9.262A8.976 8.976 0 0 0 70.238.786l-57.143 19.88A19.452 19.452 0 0 0 0 39.025v43.738C0 90.416 6.204 96.62 13.857 96.62h78.738A7.405 7.405 0 0 0 100 89.214V32.595a7.405 7.405 0 0 0-7.405-7.405z" fill="url(#c)" transform="rotate(45 27.852 162.326)"/><path d="m70.214.762-57.143 19.88A19.452 19.452 0 0 0 0 39.025v43.738C0 90.416 6.204 96.62 13.857 96.62h68.286V9.262a8.976 8.976 0 0 0-11.929-8.5z" fill="url(#d)" transform="rotate(45 27.852 162.326)"/><path d="m132.906 123.95-25.254 25.253 12.442 12.442a7.405 7.405 0 0 0 10.472 0l20.018-20.018-17.678-17.678z" fill="#CBDAED"/><path d="m70.214.762-57.143 19.88A19.381 19.381 0 0 0 5.93 25.19h76.214V9.262a8.976 8.976 0 0 0-11.929-8.5z" fill="url(#e)" transform="rotate(45 27.852 162.326)"/><path d="M100 53.762H82.143a7.143 7.143 0 1 0 0 14.286H100V53.762z" fill="url(#f)" transform="rotate(45 27.852 162.326)"/></g><path d="M151.107 81.747c6.63-11.267 18.801-16.9 36.514-16.9 26.568 0 39.826 44.196 16.36 52.977-23.464 8.78-57.784-52.978 35.126-52.978" stroke="#D1DDEE" stroke-width="2" stroke-linecap="round" stroke-dasharray="4"/><path d="m249.478 69.34-.242-4.63-7.754 1.835a5.758 5.758 0 0 0 1.137 3.155l6.86-.36z" fill="#404040"/><path d="m249.142 62.929-6.86.36a5.758 5.758 0 0 0-.8 3.256l7.828-.41-.168-3.206z" fill="#606060"/><path d="m250.888 55.964-2.967-.115-.851-1.321c-.22-.341-.683-.404-1.034-.14-.351.263-.458.754-.238 1.095l1.224 1.9 2.73.105 1.39 4.292.009 4.64 1.5-.158-.01-4.884-1.753-5.414zm7.293 7.605 1.557-4.293 2.289-2.003c.302-.265.367-.713.144-1.002-.222-.29-.647-.31-.95-.045l-2.605 2.28-1.793 4.946-.005 2.385 1.359-.148.004-2.12zm-2.972-5.579 1.785-2.127-.117-2.099a.773.773 0 0 0-.809-.727.761.761 0 0 0-.724.803l.083 1.496-1.785 2.128.487 8.762 1.534-.075-.454-8.16z" fill="#404040"/><path d="m251.632 70.574-1.07 4.307-2.736.454-1.085 1.985c-.195.357-.05.814.323 1.023.373.208.834.088 1.029-.268l.754-1.381 2.973-.493 1.35-5.434-.365-4.7-1.52.043.347 4.464zm7.298 3.296 2.687 1.77c.332.219.807.085 1.061-.299.255-.384.192-.872-.14-1.09l-2.34-1.543a.647.647 0 0 1-.249-.318l-1.52-4.09a.772.772 0 0 1-.047-.282l.024-1.443c.007-.439-.326-.752-.744-.7-.418.053-.763.45-.77.89l-.03 1.74a.772.772 0 0 0 .048.283l1.77 4.763a.65.65 0 0 0 .25.318m-1.94 2.786.05 1.451c.013.41.353.719.758.69a.772.772 0 0 0 .707-.794l-.07-2.034-1.881-1.845-.27-7.912-1.466.104.29 8.495 1.882 1.845z" fill="#242424"/><g transform="rotate(87 95.127 167.973)"><mask id="h" fill="#fff"><use xlink:href="#g"/></mask><path d="M9.148 5.288c-.856-2.065-1.92-3.872-3.042-5.28L.07 5.295l1.428 5.851c2.296 4.274 5.402 6.88 7.467 6.025 2.406-.997 2.488-6.317.183-11.882" fill="#BDC4CB" mask="url(#h)"/></g><g transform="rotate(87 99.05 163.839)"><mask id="j" fill="#fff"><use xlink:href="#i"/></mask><path d="M4.735.009C3.613 1.416 2.55 3.223 1.694 5.288-.611 10.853-.53 16.173 1.877 17.17c2.065.855 5.17-1.751 7.466-6.025V6.721L4.735.01z" fill="#DCE4EC" mask="url(#j)"/></g><path d="m260.302 67.913 1.228-3.848-10.273 1.968c.112 2.139 3.013 3.807 6.944 4.25.89-.788 1.603-1.593 2.1-2.37" fill="#DCE4EC"/><path d="M260.055 63.217c-.576-.72-1.37-1.446-2.336-2.138-3.863.852-6.574 2.815-6.462 4.954l10.347-.542-1.549-2.274z" fill="#F7F7F8"/><g transform="rotate(87 100.223 173.666)"><mask id="l" fill="#fff"><use xlink:href="#k"/></mask><path d="M1.139.062a.573.573 0 0 0-.567.492l-.55 3.841a.573.573 0 0 0 .567.654h.55a.573.573 0 0 0 .573-.573V.636a.573.573 0 0 0-.573-.574" fill="#BDC4CB" mask="url(#l)"/></g><path d="M268.349 64.601a.535.535 0 0 1-.506.563l-4.447.233-.056-1.069 4.447-.233a.535.535 0 0 1 .562.506" fill="#DCE4EC"/><path d="m265.445 66.976-.088-1.682-2.98-1.274-2.828 1.578.088 1.682a2.911 2.911 0 0 0 3.056 2.752 2.911 2.911 0 0 0 2.752-3.056" fill="#404040"/><path d="M265.268 63.612a2.911 2.911 0 0 0-3.056-2.752 2.911 2.911 0 0 0-2.752 3.056l.089 1.682 5.808-.304-.089-1.682z" fill="#606060"/><g transform="rotate(75 -50.57 69.345)"><rect fill="#8AADFF" transform="rotate(45 8 15.793)" x="3" y="10.793" width="10" height="10" rx="2.052"/><rect fill-opacity=".5" fill="#39BA8B" transform="rotate(45 38.792 15.156)" x="28.635" y="5" width="20.313" height="20.313" rx="4.104"/></g><rect fill="#8AADFF" transform="rotate(45 213.363 148.363)" x="203.207" y="138.207" width="20.313" height="20.313" rx="4.104"/></g></svg>