<svg width="44" height="45" xmlns="http://www.w3.org/2000/svg" xmlns:xlink="http://www.w3.org/1999/xlink"><defs><path id="a" d="M0 .012h43.98v43.946H0z"/></defs><g fill="none" fill-rule="evenodd"><path d="m20.734 19.77 1.074.276c.833.212 1.569.338 2.25.386.11.008.226.012.352.012.274 0 .558-.019.832-.037l.118-.008a2.806 2.806 0 0 0 1.036-.294c.5-.24.875-.687 1.053-1.261.183-.592.122-1.24-.163-1.735-.247-.428-.616-.784-1.162-1.12a7.248 7.248 0 0 0-1.706-.758c-.595-.18-1.208-.344-1.8-.503l-.604-.163-1.28 5.206zm-2.3 8.985.668.163c.813.2 1.654.407 2.492.533.413.062.831.108 1.242.139.11.008.233.012.374.012.125 0 .253-.003.377-.006.04 0 .079-.002.118-.003a4.53 4.53 0 0 0 1.366-.241c1.466-.501 1.773-1.99 1.523-2.887-.128-.462-.403-.86-.865-1.253a5.594 5.594 0 0 0-1.148-.735 11.018 11.018 0 0 0-2.096-.782c-.603-.159-1.22-.307-1.818-.451l-.722-.174-.126-.03-.033.132-.377 1.548c-.254 1.046-.509 2.091-.762 3.137-.059.24-.114.478-.173.73l-.04.168zm2.573 9.41a3.986 3.986 0 0 0-.079-.017 1.87 1.87 0 0 1-.172-.042l-2.01-.643-.408-.13c-.029-.01-.061-.02-.095-.034-.08-.033-.172-.07-.223-.17-.052-.1-.026-.202-.005-.284.067-.266.138-.536.206-.796l.304-1.157.593-2.265.001-.006-.06-.016c-.59-.155-1.148-.302-1.74-.383l-1.2 4.572-.188-.028-.076-.01a1.098 1.098 0 0 1-.171-.03c-.882-.25-1.75-.498-2.483-.708a1.012 1.012 0 0 1-.12-.046l-.058-.023-.154-.062.022-.164.007-.062c.006-.055.012-.117.028-.18a2533.166 2533.166 0 0 1 1.092-4.278 5.6 5.6 0 0 0-.143-.033c-1.151-.253-2.3-.576-3.412-.887-.479-.135-.974-.273-1.462-.405-.08-.021-.16-.047-.244-.073-.041-.013-.084-.027-.13-.04l-.206-.063.066-.205.024-.08c.017-.06.035-.122.062-.183l.706-1.613.254-.58a62.965 62.965 0 0 0 .238-.543c.026-.06.054-.118.084-.179l.045-.091.068-.142.156.024.078.011c.061.008.124.017.189.032l.607.15c.412.103.838.209 1.258.304a.986.986 0 0 0 .391.006c.297-.062.478-.238.552-.54a8255.097 8255.097 0 0 0 2.555-10.437l.149-.596c.119-.469.241-.953.339-1.432.082-.404-.078-.958-.488-1.186a2.169 2.169 0 0 0-.496-.202 75.504 75.504 0 0 0-1.286-.322 153.59 153.59 0 0 1-.639-.157 1.156 1.156 0 0 1-.153-.054l-.076-.03-.18-.068.194-.728c.215-.816.439-1.66.672-2.502l.055-.198.2.049c.69.167 1.383.346 2.055.519 1.123.289 2.282.588 3.442.836a4670.29 4670.29 0 0 0 .838-3.21l.237-.912.02-.071.005-.016c.041-.139.097-.329.323-.329.061 0 .125.017.2.036.7.18 1.53.392 2.355.605.051.013.097.03.146.05l.075.028.177.063-.042.183c-.114.501-.25 1-.38 1.482-.068.247-.138.502-.203.753a194.543 194.543 0 0 1-.544 2.04c.352.087.706.158 1.05.227.244.048.494.099.746.155l1.106-4.496.21.057c.854.232 1.665.467 2.523.715l.532.154-.036.19a6 6 0 0 0-.02.103 2.15 2.15 0 0 1-.043.212l-.643 2.462-.416 1.59a1.31 1.31 0 0 0-.012.05l.074.029c.95.321 1.717.641 2.411 1.005.87.457 1.53.93 2.078 1.488 1.002 1.023 1.451 2.265 1.334 3.691-.07.867-.25 1.6-.546 2.24-.54 1.166-1.443 1.967-2.683 2.384.37.213.71.45 1.015.706.894.753 1.419 1.624 1.603 2.663.087.491.099.994.037 1.536-.114 1-.415 1.99-.918 3.03-.786 1.622-2.072 2.667-3.824 3.106-.566.143-1.011.211-1.442.223l-.447.015c-.297.01-.603.021-.906.021-.084 0-.166 0-.243-.002a12.705 12.705 0 0 1-1.09-.086l-.232-.025a31.17 31.17 0 0 1-.785-.097 66.655 66.655 0 0 0-.576-.077l-.087-.013c-.056.196-.11.397-.164.59l-.072.263-.16.579-.778 2.806c-.017.06-.037.117-.058.177l-.03.088-.062.183-.188-.044z" fill="#FFF"/><g transform="translate(0 .01)"><mask id="b" fill="#fff"><use xlink:href="#a"/></mask><path d="M13.179 11.449c.089.033.145.062.205.077.643.16 1.288.311 1.928.48.189.049.375.126.545.221.423.236.712.826.592 1.414-.139.683-.323 1.357-.489 2.036a17805.027 17805.027 0 0 1-2.555 10.437c-.093.38-.337.619-.715.697a1.167 1.167 0 0 1-.481-.007c-.625-.141-1.246-.302-1.869-.454-.079-.02-.161-.026-.249-.04-.048.1-.09.182-.127.265-.08.18-.158.362-.237.543l-.96 2.191c-.031.073-.05.153-.078.243.14.043.253.081.368.112 1.62.436 3.224.929 4.864 1.29.401.088.355.08.26.448l-1.049 4.121c-.018.072-.021.147-.03.22.066.026.11.048.158.062.827.237 1.654.473 2.481.707.065.019.134.022.222.035l1.198-4.568c.764.086 1.477.288 2.2.477-.016.092-.022.155-.038.215l-.847 3.234c-.086.327-.172.654-.255.982-.037.144-.029.153.102.206.026.011.053.02.08.028.805.258 1.611.517 2.418.773.071.023.146.035.234.056.033-.097.063-.175.085-.255.314-1.128.626-2.256.938-3.385.08-.285.157-.571.238-.856.05-.176.053-.175.229-.15l.355.048c.363.047.725.1 1.09.137.433.046.868.101 1.303.11.529.012 1.058-.02 1.587-.033a6.453 6.453 0 0 0 1.396-.216c1.693-.425 2.924-1.424 3.684-2.993.454-.939.779-1.92.898-2.962a5.085 5.085 0 0 0-.035-1.475c-.185-1.042-.732-1.866-1.53-2.538a6.868 6.868 0 0 0-1.176-.791c-.07-.037-.135-.083-.21-.129.032-.024.036-.03.043-.032.067-.02.135-.037.203-.057 1.262-.371 2.194-1.13 2.751-2.333.319-.688.467-1.42.528-2.168.112-1.364-.312-2.543-1.275-3.525-.59-.602-1.283-1.06-2.024-1.448a16.452 16.452 0 0 0-2.381-.993c-.084-.028-.163-.069-.248-.105.02-.091.031-.16.049-.228l1.06-4.052c.023-.093.037-.188.058-.301-.959-.278-1.896-.551-2.866-.815L24.7 10.893c-.742-.176-1.472-.285-2.212-.483.204-.764.406-1.504.599-2.245.192-.741.41-1.476.581-2.23-.085-.03-.142-.056-.202-.071-.785-.203-1.57-.404-2.355-.605-.204-.053-.209-.05-.266.147l-.024.082c-.355 1.364-.71 2.73-1.067 4.094-.019.072-.048.14-.076.22-1.917-.402-3.778-.934-5.684-1.396-.284 1.022-.545 2.021-.816 3.043m30.8 9.936v1.356c-.02.087-.056.174-.056.262a14.85 14.85 0 0 1-.123 1.644 20.184 20.184 0 0 1-.417 2.394 21.973 21.973 0 0 1-3.012 6.981 21.996 21.996 0 0 1-4.573 5.053 21.868 21.868 0 0 1-4.899 3 21.492 21.492 0 0 1-4.711 1.486c-.587.112-1.182.187-1.776.263-.433.055-.869.11-1.304.117-1.009.017-2.02.048-3.025-.074-.594-.073-1.192-.123-1.78-.227a22.404 22.404 0 0 1-5.172-1.562 21.853 21.853 0 0 1-5.735-3.677 21.81 21.81 0 0 1-3.84-4.469 21.942 21.942 0 0 1-2.887-6.604C.405 26.28.203 25.22.12 24.143a42.842 42.842 0 0 1-.115-2.048c-.014-.443.013-.888.035-1.332.021-.415.038-.833.097-1.244.105-.739.218-1.479.368-2.21A21.058 21.058 0 0 1 2.8 11.213a21.736 21.736 0 0 1 4.176-5.305 22.08 22.08 0 0 1 5.015-3.511A21.292 21.292 0 0 1 16.845.61a29.276 29.276 0 0 1 1.971-.38c.458-.073.924-.103 1.387-.141.422-.035.844-.07 1.266-.076.444-.006.89.01 1.333.035.541.03 1.082.077 1.622.126.724.065 1.438.197 2.146.357a22.436 22.436 0 0 1 5.849 2.188 21.972 21.972 0 0 1 6.495 5.36 21.857 21.857 0 0 1 4.047 7.476c.564 1.814.912 3.665.961 5.568.003.088.038.175.057.262" fill="#FF9500" mask="url(#b)"/></g><path d="M18.185 28.89c.088-.372.17-.728.256-1.083l1.138-4.684c.083-.34.083-.34.416-.26.848.208 1.7.404 2.544.627.737.194 1.452.456 2.136.797.425.211.83.455 1.192.763.432.369.776.8.932 1.358.29 1.042-.117 2.618-1.66 3.144a4.67 4.67 0 0 1-1.43.253c-.295.007-.593.018-.888-.004-.42-.03-.841-.078-1.259-.14-1.08-.162-2.134-.45-3.195-.704-.06-.014-.115-.042-.182-.067m2.295-8.978 1.375-5.584c.044 0 .073-.006.097 0 .843.231 1.69.447 2.527.7a7.436 7.436 0 0 1 1.756.78c.5.308.937.68 1.235 1.196.632 1.095.228 2.713-.983 3.293-.353.17-.723.289-1.113.314-.443.028-.89.063-1.33.033a13 13 0 0 1-2.289-.393l-1.086-.278c-.054-.014-.106-.034-.188-.061" fill="#FF9500"/></g></svg>