<svg width="70" height="68" xmlns="http://www.w3.org/2000/svg"><defs><linearGradient x1="50%" y1="-51.977%" x2="50%" y2="250.113%" id="a"><stop stop-color="#709BFF" offset="0%"/><stop stop-color="#2547A8" offset="100%"/></linearGradient><linearGradient x1="50%" y1=".468%" x2="50%" y2="106.449%" id="b"><stop stop-color="#165CFF" offset="0%"/><stop stop-color="#6284E6" offset="100%"/></linearGradient><linearGradient x1="-8.153%" y1="70.871%" x2="100%" y2="37.127%" id="c"><stop stop-color="#021E2F" offset="0%"/><stop stop-color="#165CFF" offset="100%"/></linearGradient><linearGradient x1="-159.524%" y1="50%" x2="405.143%" y2="50%" id="d"><stop stop-color="#FFF" offset="0%"/><stop stop-color="#CCE2E6" offset="52%"/><stop stop-color="#8FA1BB" offset="100%"/></linearGradient></defs><g fill="none"><path d="M64.406 17.522h-7.27V6.442a6.244 6.244 0 0 0-8.28-5.895L9.108 14.375A13.53 13.53 0 0 0 0 27.144v30.422a9.639 9.639 0 0 0 9.639 9.639h54.767a5.15 5.15 0 0 0 5.15-5.15V22.671a5.15 5.15 0 0 0-5.15-5.15z" fill="url(#a)"/><path d="M48.839.53 9.092 14.358A13.53 13.53 0 0 0 0 27.144v30.422a9.639 9.639 0 0 0 9.639 9.639h47.497V6.442A6.244 6.244 0 0 0 48.839.53z" fill="url(#b)"/><path d="M52.167 42.363v24.842h12.24a5.15 5.15 0 0 0 5.15-5.15V42.362h-17.39z" fill="#4668C1"/><path d="M48.839.53 9.092 14.358a13.48 13.48 0 0 0-4.968 3.164h53.012V6.442A6.244 6.244 0 0 0 48.839.53z" fill="url(#c)"/><path d="M69.557 37.395H57.136a4.968 4.968 0 1 0 0 9.937h12.42v-9.937z" fill="url(#d)"/></g></svg>