<svg width="114" height="114" xmlns="http://www.w3.org/2000/svg" xmlns:xlink="http://www.w3.org/1999/xlink"><defs><linearGradient x1="50%" y1="0%" x2="50%" y2="100%" id="b"><stop stop-color="#6EA5E9" offset="0%"/><stop stop-color="#3F72D3" offset="100%"/></linearGradient><path id="a" d="M0 .205h79.795V80H0z"/></defs><g fill="none" fill-rule="evenodd"><rect fill="#E2EDFB" transform="rotate(45 57 57)" x="17" y="17" width="80" height="80" rx="20"/><g transform="translate(17 17.25)"><mask id="c" fill="#fff"><use xlink:href="#a"/></mask><rect fill="url(#b)" mask="url(#c)" x="3" y="3" width="74" height="74" rx="8"/><rect fill="#FFF" mask="url(#c)" transform="matrix(1 0 0 -1 0 47)" x="7" y="7" width="66" height="33" rx="4"/><g mask="url(#c)" fill="#D5E1EF"><g transform="rotate(-90 30.5 23.5)"><rect x="2" y="2" width="4" height="14" rx="2"/><circle cx="4" cy="4" r="4"/></g></g></g><path d="M79.133 73.06 63.475 57.65l2.15-2.15-3.527-3.527-10.579 10.58 3.526 3.527 1.55-1.55 4.043 4.043h3.74v3.74h3.74v3.74h3.741v3.74l1.246 1.041a.708.708 0 0 0 .5.207l5.028-.54c.39 0 .707-.317.707-.707V73.56a.705.705 0 0 0-.207-.5" fill="#D5E1EF"/><path d="m76.689 75.872-14.623-14.78a.625.625 0 0 1 0-.882.626.626 0 0 1 .882 0L77.57 74.99a.624.624 0 0 1-.881.882" fill="#8A9EB5"/><path d="M43.947 49.764a4.364 4.364 0 1 1 0-8.727 4.364 4.364 0 0 1 0 8.727m2.223-17.101c-8.25 0-14.962 6.712-14.962 14.962 0 8.249 6.712 14.96 14.962 14.96s14.962-6.711 14.962-14.96c0-8.25-6.712-14.962-14.962-14.962" fill="#42CE9C"/><path d="M45.947 50.764a4.364 4.364 0 1 1 0-8.727 4.364 4.364 0 0 1 0 8.727m2.223-17.101c-8.25 0-14.962 6.712-14.962 14.962 0 8.249 6.712 14.96 14.962 14.96s14.962-6.711 14.962-14.96c0-8.25-6.712-14.962-14.962-14.962" fill="#84EBC6"/></g></svg>