<svg width="86" height="86" xmlns="http://www.w3.org/2000/svg" xmlns:xlink="http://www.w3.org/1999/xlink"><defs><linearGradient x1="50%" y1="1.022%" x2="50%" y2="100%" id="b"><stop stop-color="#3ABA8C" offset="0%"/><stop stop-color="#1A8B62" offset="100%"/></linearGradient><linearGradient x1="50%" y1="0%" x2="50%" y2="100%" id="e"><stop stop-color="#43D19E" offset="0%"/><stop stop-color="#39BA8B" offset="100%"/></linearGradient><path id="a" d="M0 .103h48v26.88H0z"/><path id="d" d="M0 .13h60v33.6H0z"/></defs><g fill="none" fill-rule="evenodd"><rect fill="#E2EDFB" transform="rotate(45 43 43)" x="13" y="13" width="60" height="60" rx="16"/><g transform="rotate(15 -115.487 105.274)"><mask id="c" fill="#fff"><use xlink:href="#a"/></mask><path d="M1.2 26.983a1.2 1.2 0 0 1-1.2-1.2V1.303a1.2 1.2 0 0 1 1.2-1.2h45.6a1.2 1.2 0 0 1 1.2 1.2v24.48a1.2 1.2 0 0 1-1.2 1.2H1.2z" fill="url(#b)" mask="url(#c)"/></g><path d="M59.86 62.26a3.844 3.844 0 0 0-4.704 2.716l-14.064-3.769-.679-.181-14.064-3.769a3.844 3.844 0 0 0-2.715-4.703l2.733-10.2a3.847 3.847 0 0 0 4.337-1.82l14.466 3.877.11.03 14.466 3.875a3.847 3.847 0 0 0 2.847 3.745l-2.734 10.2zm4.908-11.112a.96.96 0 0 0-1.032-.882 1.92 1.92 0 0 1-2.004-2.412.96.96 0 0 0-.679-1.175l-15.095-4.045-.472-.127-15.095-4.044a.96.96 0 0 0-1.176.679 1.92 1.92 0 0 1-2.941 1.086.96.96 0 0 0-1.47.543l-3.316 12.372a.96.96 0 0 0 1.002 1.206 1.92 1.92 0 0 1 1.733 3 .96.96 0 0 0 .543 1.472l14.976 4.012 1.028.276 14.976 4.013a.96.96 0 0 0 1.205-1.003 1.92 1.92 0 0 1 3.001-1.732.959.959 0 0 0 1.47-.543l3.316-12.373a.959.959 0 0 0 .03-.323z" fill-opacity=".5" fill="#FBFEF9"/><path d="M44.263 47.15a5.76 5.76 0 1 1-2.981 11.127 5.76 5.76 0 0 1 2.981-11.128m9.885 7.618 5.564 1.491.497-1.854-5.564-1.491z" fill-opacity=".5" fill="#FBFEF9"/><path fill-opacity=".75" fill="#1A8B62" d="m68.88 49.07-49.771.06-1.57 6h49.634z"/><g transform="translate(13 19)"><mask id="f" fill="#fff"><use xlink:href="#d"/></mask><path d="M1.5 33.73a1.5 1.5 0 0 1-1.5-1.5V1.63A1.5 1.5 0 0 1 1.5.13h57a1.5 1.5 0 0 1 1.5 1.5v30.6a1.5 1.5 0 0 1-1.5 1.5h-57z" fill="url(#e)" mask="url(#f)"/></g><path d="M66.44 41.93a4.805 4.805 0 0 0-4.8 4.8H24.36a4.805 4.805 0 0 0-4.8-4.8v-13.2a4.809 4.809 0 0 0 4.648-3.6h37.583a4.809 4.809 0 0 0 4.649 3.6v13.2zm2.331-15.006a1.2 1.2 0 0 0-1.531-.732 2.4 2.4 0 0 1-3.2-2.263 1.2 1.2 0 0 0-1.2-1.2H23.16a1.2 1.2 0 0 0-1.2 1.2 2.4 2.4 0 0 1-3.2 2.263 1.2 1.2 0 0 0-1.6 1.131v16.012a1.2 1.2 0 0 0 1.6 1.131 2.4 2.4 0 0 1 3.063 3.063 1.2 1.2 0 0 0 1.132 1.6h40.09a1.2 1.2 0 0 0 1.132-1.6 2.399 2.399 0 0 1 3.063-3.063 1.199 1.199 0 0 0 1.6-1.131V27.323a1.19 1.19 0 0 0-.069-.4z" fill-opacity=".75" fill="#FBFEF9"/><path d="M42.72 28.73a7.2 7.2 0 1 1 0 14.399 7.2 7.2 0 0 1 0-14.4m14.4 6.001h7.2v-2.4h-7.2z" fill-opacity=".75" fill="#FBFEF9"/></g></svg>