<svg width="114" height="114" xmlns="http://www.w3.org/2000/svg"><defs><linearGradient x1="50%" y1="0%" x2="50%" y2="100%" id="a"><stop stop-color="#6FA6EA" offset="0%"/><stop stop-color="#3E70D3" offset="100%"/></linearGradient></defs><g fill="none" fill-rule="evenodd"><rect fill="#E2EDFB" transform="rotate(45 57 57)" x="17" y="17" width="80" height="80" rx="20"/><path d="M8 74h58a8 8 0 0 0 8-8V8a8 8 0 0 0-8-8H8a8 8 0 0 0-8 8v58a8 8 0 0 0 8 8z" fill="url(#a)" transform="translate(20 20)"/><path d="M28 90h58a4 4 0 0 0 4-4V38a4 4 0 0 0-4-4H28a4 4 0 0 0-4 4v48a4 4 0 0 0 4 4z" fill="#FFF"/><g transform="translate(41.275 47.75)" fill="#467AD7"><path d="M31.202 9.25a.934.934 0 0 1-.276.687l-6.454 6.437a.935.935 0 0 1-1.322.004.93.93 0 0 1 .004-1.32l5.823-5.808-5.823-5.809a.93.93 0 0 1-.004-1.319.935.935 0 0 1 1.322.004l6.454 6.437c.19.19.282.44.276.687zM0 9.25a.934.934 0 0 0 .277.687l6.453 6.437a.935.935 0 0 0 1.323.004.93.93 0 0 0-.005-1.32L2.225 9.25l5.823-5.809a.93.93 0 0 0 .005-1.319.935.935 0 0 0-1.323.004L.277 8.563A.934.934 0 0 0 0 9.25z"/><rect transform="rotate(30 15.601 9.25)" x="14.676" width="1.85" height="18.5" rx=".925"/></g><path d="M28 90h58a4 4 0 0 0 4-4v-6H24v6a4 4 0 0 0 4 4z" fill="#84EBC6"/><path d="M30.547 26.772a2.274 2.274 0 1 1-4.548 0 2.274 2.274 0 0 1 4.548 0m6.696 0a2.273 2.273 0 1 1-4.547 0 2.273 2.273 0 0 1 4.547 0m7.104 0a2.273 2.273 0 1 1-4.547 0 2.273 2.273 0 0 1 4.547 0" fill="#FFF"/></g></svg>