<svg width="138" height="138" xmlns="http://www.w3.org/2000/svg"><defs><linearGradient x1="50%" y1="-51.977%" x2="50%" y2="250.113%" id="a"><stop stop-color="#709BFF" offset="0%"/><stop stop-color="#2547A8" offset="100%"/></linearGradient><linearGradient x1="50%" y1=".468%" x2="50%" y2="106.449%" id="b"><stop stop-color="#165CFF" offset="0%"/><stop stop-color="#6284E6" offset="100%"/></linearGradient><linearGradient x1="-8.153%" y1="70.57%" x2="100%" y2="37.313%" id="c"><stop stop-color="#021E2F" offset="0%"/><stop stop-color="#165CFF" offset="100%"/></linearGradient><linearGradient x1="-159.524%" y1="50%" x2="405.143%" y2="50%" id="d"><stop stop-color="#FFF" offset="0%"/><stop stop-color="#CCE2E6" offset="52%"/><stop stop-color="#8FA1BB" offset="100%"/></linearGradient></defs><g fill="none" fill-rule="evenodd"><path d="m68.282 10.736 51.988 29.798c9.733 5.579 13.1 17.991 7.522 27.724l-.064.11-29.941 51.485c-5.615 9.654-17.97 12.965-27.66 7.41L18.14 97.467c-9.733-5.579-13.1-17.991-7.522-27.724l.064-.11 29.941-51.485c5.615-9.654 17.97-12.965 27.66-7.41z" fill="#E2EDFB"/><path d="M93.271 25.19H82.742V9.262a8.957 8.957 0 0 0-3.797-7.303A9.097 9.097 0 0 0 70.751.786l-57.56 19.88C5.305 23.375.01 30.742 0 39.025v43.738C0 90.416 6.25 96.62 13.958 96.62h79.313c4.12 0 7.459-3.315 7.459-7.405v-56.62c0-4.09-3.34-7.405-7.459-7.405z" fill="url(#a)" fill-rule="nonzero" transform="translate(18.131 20.297)"/><path d="m70.727.762-57.56 19.88C5.283 23.362-.003 30.739 0 39.025v43.738C0 90.416 6.25 96.62 13.958 96.62h68.784V9.262a8.956 8.956 0 0 0-3.794-7.333A9.097 9.097 0 0 0 70.727.762z" fill="url(#b)" fill-rule="nonzero" transform="translate(18.131 20.297)"/><path d="M59.733 80.641a22.31 22.31 0 0 1 2.501-2.05 14.1 14.1 0 0 1 2.651-1.483c.9-.378 2.101-.766 3.927-.247 2.269.645 2.008 3.22 1.875 3.583-.834 2.24-1.6 4.126-2.3 5.658-.701 1.531-1.319 2.9-1.851 4.101a29.717 29.717 0 0 0-1.301 3.46c-.334 1.104-.55 2.346-.65 3.73 0 .099.016.215.05.346a.654.654 0 0 0 .225.346c.117.099.292.148.525.148.233 0 .533-.082.9-.247.967-.461 2.127-1.268 3.477-2.421.675-.577 1.05-.292 1.138.26.087.551-.113 1.37-.588 1.865-.95.988-1.96 1.837-3.026 2.545-1.068.708-2.1 1.062-3.101 1.062a4.916 4.916 0 0 1-1.676-.297 3.855 3.855 0 0 1-1.425-.889c-.4-.395-.718-.906-.95-1.532-.235-.625-.334-1.367-.3-2.224.032-.856.149-1.705.35-2.545.199-.84.457-1.729.774-2.668.317-.939.709-1.96 1.176-3.064.467-1.103.983-2.33 1.55-3.681.367-.856.65-1.638.851-2.347.2-.709.232-1.227.1-1.557-.134-.329-.484-.387-1.05-.173-.568.215-1.435.816-2.602 1.803a83.079 83.079 0 0 0-3.401 3.263l-.03.03c-2.199 2.25-3.816 4.992-4.79 7.968-.142.437-.278.876-.407 1.316a30.455 30.455 0 0 0-1.125 6.251c0 .231-.184.297-.55.198a5.648 5.648 0 0 1-1.226-.519 6.52 6.52 0 0 1-1.225-.865c-.367-.329-.567-.625-.6-.89.1-2.008.441-4.034 1.025-6.078a52.713 52.713 0 0 1 2.2-6.176 108.292 108.292 0 0 1 2.877-6.202 734.32 734.32 0 0 0 2-4.018l-9.122 3.504-.086-.22a2.694 2.694 0 0 1 1.558-3.5l9.544-3.666a136.7 136.7 0 0 0 .808-1.736c.533-1.17 1.041-2.314 1.525-3.435.483-1.12.908-2.19 1.276-3.211.366-1.021.666-1.96.9-2.817.333-.164 1.858.6 2.358 1.013.5.412.9.898 1.201 1.458.3.56.35 1.104.15 1.63-.134.396-.392.997-.775 1.804-.384.808-.826 1.721-1.326 2.742l-.123.249 7.626-2.93.086.22a2.694 2.694 0 0 1-1.558 3.5l-8.174 3.14c-.418.8-.825 1.587-1.208 2.344l-2.909 6.474c.7-.79 1.45-1.564 2.251-2.323" fill="#FEFEFE"/><path d="M93.679 81.202v35.714h17.724c4.119 0 7.458-3.315 7.458-7.405v-28.31H93.68z" fill="#4668C1" fill-rule="nonzero"/><path d="m70.727.762-57.56 19.88a19.54 19.54 0 0 0-7.195 4.548h76.77V9.262a8.956 8.956 0 0 0-3.794-7.333A9.097 9.097 0 0 0 70.727.762z" fill="url(#c)" fill-rule="nonzero" transform="translate(18.131 20.297)"/><path d="M100.73 53.762H82.742c-3.973 0-7.195 3.198-7.195 7.143s3.222 7.143 7.195 7.143h17.988V53.762z" fill="url(#d)" fill-rule="nonzero" transform="translate(18.131 20.297)"/></g></svg>