<svg width="144" height="131" xmlns="http://www.w3.org/2000/svg"><defs><linearGradient x1="0%" y1="0%" x2="100%" y2="100%" id="a"><stop stop-color="#3E70D3" offset="0%"/><stop stop-color="#093DA4" offset="100%"/></linearGradient><linearGradient x1="50%" y1="0%" x2="50%" y2="100%" id="b"><stop stop-color="#6FA6EA" offset="0%"/><stop stop-color="#3E70D3" offset="100%"/></linearGradient><linearGradient x1="12.444%" y1="0%" x2="87.556%" y2="100%" id="c"><stop stop-color="#6EA5EA" offset="0%"/><stop stop-color="#4072D4" offset="100%"/></linearGradient></defs><g transform="translate(0 .297)" fill="none" fill-rule="evenodd"><rect fill="url(#a)" transform="rotate(45 71.094 65)" x="25.391" y="19.297" width="91.406" height="91.406" rx="20.313"/><rect fill-opacity=".5" fill="#165CFF" transform="rotate(45 10.156 41.64)" x="3.047" y="34.531" width="14.219" height="14.219" rx="2.873"/><rect fill-opacity=".5" fill="#39BA8B" x="123.179" y="84.586" width="20.313" height="20.313" rx="4.924"/><path d="M9.882 91.406h71.642c5.458 0 9.882-4.424 9.882-9.882V9.882C91.406 4.424 86.982 0 81.524 0H9.882C4.424 0 0 4.424 0 9.882v71.642c0 5.458 4.424 9.882 9.882 9.882z" fill="url(#b)" transform="translate(25.39 19.297)"/><path d="M35.41 105.735h71.642a4.94 4.94 0 0 0 4.941-4.941v-59.29a4.94 4.94 0 0 0-4.94-4.941H35.41a4.94 4.94 0 0 0-4.941 4.94v59.29a4.94 4.94 0 0 0 4.94 4.942z" fill="#FFF"/><path d="M58.906 59.033a1.904 1.904 0 0 1-1.904 1.904h-.152a1.904 1.904 0 0 1-1.905-1.904v-6.982H36.46v6.982a1.904 1.904 0 0 1-1.903 1.904h-.153a1.904 1.904 0 0 1-1.904-1.904v-26.66c0-1.052.853-1.904 1.904-1.904h.153c1.051 0 1.904.852 1.904 1.904l-.001 6.982h18.485v-6.982c0-1.052.853-1.904 1.905-1.904h.152c1.052 0 1.904.852 1.904 1.904v26.66zm-3.961-10.791v-5.078H36.46v5.078h18.485z" fill="url(#c)" transform="translate(25.39 19.297)"/><path d="M35.272 105.762h71.643a4.94 4.94 0 0 0 4.941-4.94V93.41H30.332v7.411a4.94 4.94 0 0 0 4.94 4.941z" fill="#84EBC6"/><path d="M38.418 27.661a2.808 2.808 0 1 1-5.617 0 2.808 2.808 0 0 1 5.617 0m8.271 0a2.808 2.808 0 1 1-5.617.001 2.808 2.808 0 0 1 5.617 0m8.775-.001a2.808 2.808 0 1 1-5.616.001 2.808 2.808 0 0 1 5.616 0" fill="#FFF"/></g></svg>