<svg width="18" height="18" viewBox="0 0 18 18" fill="none" xmlns="http://www.w3.org/2000/svg">
<g clip-path="url(#clip0_157_1125)">
<path d="M9.00002 0C4.03747 0 0 4.03747 0 9.00002C0 13.9626 4.03747 18 9.00002 18C13.9626 18 18 13.9626 18 9.00002C18 4.03747 13.9625 0 9.00002 0ZM9.58544 14.3399C9.15786 14.4112 8.30705 14.5893 7.87501 14.625C7.5093 14.6553 7.16419 14.446 6.95381 14.1455C6.74289 13.845 6.69235 13.4605 6.81757 13.1155L8.5188 8.43753H6.75C6.74848 7.46277 7.47963 6.74605 8.41476 6.47098C8.86102 6.33968 9.69246 6.16 10.125 6.18754C10.3841 6.20402 10.8358 6.3666 11.0462 6.66711C11.2571 6.96758 11.3077 7.35211 11.1824 7.69708L9.4812 12.375H11.2495C11.2498 13.3487 10.5459 14.1799 9.58544 14.3399ZM10.125 5.62502C9.50365 5.62502 8.99998 5.12128 8.99998 4.50001C8.99998 3.87867 9.50365 3.375 10.125 3.375C10.7463 3.375 11.25 3.87867 11.25 4.50001C11.25 5.12131 10.7464 5.62502 10.125 5.62502Z" fill="#4072D4"/>
</g>
<defs>
<clipPath id="clip0_157_1125">
<rect width="18" height="18" fill="white"/>
</clipPath>
</defs>
</svg>
