<svg xmlns="http://www.w3.org/2000/svg" viewBox="0 0 79.58 79.58"><defs><style>.cls-1{fill:#b7aad5;}.cls-2{fill:#9677c4;}.cls-3{fill:#8477b1;}.cls-4{fill:#6377af;}.cls-5{fill:#465388;}.cls-6{fill:#2d5388;}.cls-7{fill:#52538f;}.cls-8{fill:#527f8f;}.cls-9{fill:#39a08b;}.cls-10{fill:#39ba8b;}</style></defs><g id="Layer_3" data-name="Layer 3"><circle class="cls-1" cx="39.79" cy="4.96" r="4.96"/><circle class="cls-2" cx="29.03" cy="6.67" r="4.96"/><circle class="cls-3" cx="19.32" cy="11.62" r="4.96"/><circle class="cls-4" cx="11.62" cy="19.32" r="4.96"/><circle class="cls-5" cx="6.67" cy="29.03" r="4.96"/><circle class="cls-2" cx="50.67" cy="6.67" r="4.96"/><circle class="cls-3" cx="60.38" cy="11.62" r="4.96"/><circle class="cls-4" cx="68.08" cy="19.32" r="4.96"/><circle class="cls-5" cx="73.03" cy="29.03" r="4.96"/><circle class="cls-6" cx="4.96" cy="39.79" r="4.96"/><circle class="cls-5" cx="6.67" cy="50.55" r="4.96"/><circle class="cls-7" cx="11.62" cy="60.26" r="4.96"/><circle class="cls-8" cx="19.32" cy="67.97" r="4.96"/><circle class="cls-9" cx="29.03" cy="72.91" r="4.96"/><circle class="cls-5" cx="73.03" cy="50.55" r="4.96"/><circle class="cls-7" cx="68.08" cy="60.26" r="4.96"/><circle class="cls-8" cx="60.38" cy="67.97" r="4.96"/><circle class="cls-9" cx="50.67" cy="72.91" r="4.96"/><circle class="cls-10" cx="39.79" cy="74.62" r="4.96"/><circle class="cls-6" cx="74.62" cy="39.79" r="4.96"/></g></svg>