<svg width="251" height="50" xmlns="http://www.w3.org/2000/svg" xmlns:xlink="http://www.w3.org/1999/xlink"><defs><path id="b" d="M.65.7h3.636v5.014H.65z"/><path id="d" d="M0 .7h3.636v5.014H0z"/><path id="f" d="M.101.097h18.37v4.189H.101z"/><linearGradient x1="50%" y1="0%" x2="50%" y2="100%" id="a"><stop stop-color="#F4821F" offset="0%"/><stop stop-color="#D8362C" offset="100%"/></linearGradient></defs><g fill="none" fill-rule="evenodd"><path d="M79.318 34.79c-.468 0-.865-.173-1.182-.513l-7.242-7.853-.999.906v5.852c0 .448-.161.83-.48 1.138-.31.31-.696.47-1.14.47-.448 0-.831-.162-1.138-.481a1.513 1.513 0 01-.47-1.127V16.61c0-.436.16-.817.475-1.132a1.519 1.519 0 011.133-.476c.444 0 .83.16 1.145.476.315.315.475.696.475 1.132v6.375l8.345-7.561a1.535 1.535 0 011.166-.421c.433.023.806.2 1.108.525.298.334.435.726.411 1.17-.023.444-.202.82-.53 1.113l-7.116 6.455 7.222 7.822c.305.328.448.717.424 1.156a1.543 1.543 0 01-.512 1.12 1.567 1.567 0 01-1.095.426m10.7 0c-.445 0-.83-.16-1.145-.476a1.58 1.58 0 01-.463-1.132c0-.442.154-.826.457-1.14.321-.321.706-.48 1.151-.48h6.51l-4.79-10.929L85.97 33.82c-.277.634-.785.97-1.468.97-.224 0-.444-.048-.654-.141a1.509 1.509 0 01-.85-.89 1.56 1.56 0 01.021-1.226l7.25-16.561c.276-.635.784-.97 1.468-.97.692 0 1.204.335 1.48.97l7.249 16.559a1.55 1.55 0 01-.123 1.53 1.557 1.557 0 01-1.359.729h-8.967zm20.752-11.508c.706 0 1.292-.243 1.79-.742a2.419 2.419 0 00.742-1.79c0-.698-.243-1.279-.742-1.778a2.42 2.42 0 00-1.79-.741h-4.94v5.05h4.94zm1.375 8.28c.706 0 1.292-.243 1.79-.742.5-.5.742-1.08.742-1.778 0-.705-.242-1.291-.741-1.79a2.42 2.42 0 00-1.79-.742h-6.315v5.051h6.314zm-7.935 3.228c-.448 0-.83-.162-1.138-.481a1.513 1.513 0 01-.47-1.127V16.61c0-.436.16-.817.475-1.132a1.519 1.519 0 011.133-.476h6.56c1.576 0 2.945.57 4.068 1.692 1.114 1.115 1.68 2.48 1.68 4.056 0 1.316-.398 2.491-1.182 3.498a5.835 5.835 0 011.743 1.819c.55.909.827 1.91.827 2.975 0 1.578-.57 2.943-1.693 4.057-1.112 1.12-2.482 1.69-4.068 1.69h-7.935zm23.185 0c-2.104 0-3.923-.757-5.406-2.249-1.49-1.48-2.246-3.3-2.246-5.403V16.61c0-.436.16-.817.475-1.132a1.52 1.52 0 011.133-.476c.444 0 .83.16 1.145.476.315.315.475.696.475 1.132v10.528c0 1.231.425 2.254 1.297 3.126.873.873 1.895 1.297 3.127 1.297 1.231 0 2.254-.424 3.126-1.297.873-.872 1.297-1.895 1.297-3.126V16.61c0-.436.16-.817.475-1.132a1.553 1.553 0 011.133-.476c.444 0 .83.16 1.145.476.316.315.476.696.476 1.132v10.528c0 2.104-.757 3.922-2.249 5.405-1.49 1.49-3.309 2.247-5.403 2.247m17.485 0c-.445 0-.83-.16-1.146-.476a1.544 1.544 0 01-.462-1.132V18.231h-4.78c-.448 0-.831-.162-1.138-.481-.31-.31-.47-.696-.47-1.14 0-.436.16-.817.475-1.132a1.52 1.52 0 011.133-.476h12.776c.435 0 .816.16 1.132.475.316.316.476.697.476 1.133 0 .444-.16.83-.476 1.145a1.553 1.553 0 01-1.132.476h-4.78v14.951c0 .445-.156.826-.463 1.132-.316.316-.7.476-1.145.476m17.868-16.56c-1.854 0-3.396.641-4.714 1.959-1.309 1.309-1.945 2.85-1.945 4.714 0 1.854.637 3.396 1.946 4.714 1.316 1.308 2.858 1.944 4.713 1.944 1.863 0 3.405-.636 4.713-1.945 1.318-1.317 1.959-2.86 1.959-4.713 0-1.863-.64-3.404-1.958-4.713-1.31-1.319-2.852-1.96-4.714-1.96m0 16.56c-2.718 0-5.07-.975-6.992-2.896-1.921-1.921-2.895-4.274-2.895-6.991 0-2.727.974-5.084 2.895-7.005 1.922-1.922 4.274-2.896 6.992-2.896 2.726 0 5.083.974 7.004 2.896 1.922 1.921 2.896 4.278 2.896 7.005 0 2.717-.974 5.07-2.896 6.991-1.921 1.921-4.278 2.896-7.004 2.896" fill="#FFF"/><circle stroke="url(#a)" stroke-width="2.5" fill="#130E0B" cx="25" cy="25" r="23.75"/><path d="M14.936 30.412c.243-2.066.732-3.565 1.068-4.403-.654-.075-1.71-.322-2.521-1.119a49.756 49.756 0 00-.799 4.36c.741.833 1.788 1.088 2.252 1.162m20.128 0c.464-.074 1.51-.329 2.251-1.162a49.744 49.744 0 00-.797-4.36c-.813.797-1.868 1.044-2.522 1.12.336.837.824 2.336 1.068 4.402" fill="#F6931D"/><path d="M37.793 34.292a58.728 58.728 0 00-.379-4.3c-.83.72-1.821.945-2.288 1.013a23.384 23.384 0 01-.017 4.204c.514-.05 1.776-.24 2.684-.917m-22.918-3.286c-.468-.069-1.459-.295-2.289-1.013a59.181 59.181 0 00-.379 4.299c.908.676 2.17.866 2.684.916a23.239 23.239 0 01-.016-4.202" fill="#F05A28"/><g transform="translate(33.571 34.286)"><mask id="c" fill="#fff"><use xlink:href="#b"/></mask><path d="M1.474 1.526A27.915 27.915 0 01.65 5.714s3.325-1.146 3.635-3.35c0 0 .007-.617-.032-1.663-1.067.645-2.346.793-2.78.825" fill="#E90E00" mask="url(#c)"/></g><path d="M33.746 25.434c.586-.047 1.827-.265 2.602-1.25a34.968 34.968 0 00-1.284-4.108s-2.261 2.072-4.39 1.763c0 0 4.407-1.06 3.104-4.188 0 0 6.738-6.17-4.3-9.08 0 0 8.156 7.23-2.439 12.078 0 0-.088-2.82-2.039-2.82-1.95 0-2.04 2.82-2.04 2.82-10.595-4.848-2.438-12.078-2.438-12.078-11.038 2.91-4.3 9.08-4.3 9.08-1.303 3.128 3.104 4.188 3.104 4.188-2.129.309-4.39-1.763-4.39-1.763a34.911 34.911 0 00-1.284 4.109c.777.989 2.016 1.204 2.602 1.25.064-.134.101-.201.101-.201 4.655-.838 8.645 2.6 8.645 2.6s3.99-3.438 8.644-2.6c0 0 .038.067.102.2" fill="#F6931D"/><g transform="translate(12.143 34.286)"><mask id="e" fill="#fff"><use xlink:href="#d"/></mask><path d="M.033.7C-.007 1.747 0 2.365 0 2.365c.31 2.205 3.635 3.35 3.635 3.35a27.833 27.833 0 01-.824-4.188C2.378 1.494 1.099 1.346.032.7" fill="#E90E00" mask="url(#e)"/></g><path d="M25 14.302c-3.502.088-5.409 2.777-5.409 2.777.754 1.499 2.35 1.984 2.35 1.984 1.064-2.16 3.059-2.16 3.059-2.16s1.995 0 3.058 2.16c0 0 1.597-.485 2.35-1.984 0 0-1.906-2.689-5.408-2.777" fill="#845014"/><path d="M33.087 26.032l-.011-.022h-1.884c-3.155.375-5.608 2.443-5.634 2.466l-.559.479-.557-.479c-.027-.023-2.478-2.09-5.633-2.466h-1.885l-.011.021-.116.292c-.331.825-.769 2.2-1 4.09h18.406c-.23-1.89-.67-3.265-1-4.09l-.116-.291z" fill="#4C2F0F"/><path d="M34.275 31.08l-.007-.074H15.732l-.008.075a22.573 22.573 0 00.018 4.05l.006.077 18.504.001.007-.078c.127-1.381.133-2.744.016-4.05" fill="#4A2112"/><g transform="translate(15.714 35.714)"><mask id="g" fill="#fff"><use xlink:href="#f"/></mask><path d="M.101.097a27.17 27.17 0 00.787 3.965l.06.224h16.674l.062-.224c.366-1.33.63-2.663.787-3.965H.101z" fill="#4A1A16" mask="url(#g)"/></g><path d="M184.792 30c-.15 0-.257-.033-.322-.098s-.098-.173-.098-.322v-8.96c0-.15.033-.257.098-.322s.173-.098.322-.098h4.886c.103 0 .175.033.217.098.042.065.063.173.063.322v.224c0 .15-.021.257-.063.322-.042.065-.114.098-.217.098h-4.074v3.192h3.654c.103 0 .175.033.217.098.042.065.063.173.063.322v.224c0 .15-.021.257-.063.322-.042.065-.114.098-.217.098h-3.654v3.416h4.088c.103 0 .175.033.217.098.042.065.063.173.063.322v.224c0 .15-.021.257-.063.322-.042.065-.114.098-.217.098h-4.9zm6.888.028h-.112c-.233 0-.399-.019-.497-.056-.098-.037-.147-.098-.147-.182 0-.049.021-.108.063-.178l3.185-4.722-2.8-4.228c-.075-.103-.112-.187-.112-.252 0-.141.17-.22.509-.235l.331-.003c.159 0 .285.014.378.042a.401.401 0 01.224.168l2.24 3.374 2.31-3.388c.072-.112.23-.176.473-.192l.213-.004c.233 0 .399.019.497.056.098.037.147.098.147.182a.366.366 0 01-.063.178l-2.849 4.232 3.15 4.718c.075.103.112.187.112.252 0 .159-.215.238-.644.238h-.224c-.159 0-.285-.014-.378-.042a.401.401 0 01-.224-.168l-2.576-3.85-2.604 3.864c-.084.13-.285.196-.602.196zm9.268 0c-.373 0-.56-.103-.56-.308v-9.1c0-.15.033-.257.098-.322s.173-.098.322-.098h2.842c.821 0 1.547.196 2.177.588.63.392.945 1.11.945 2.156 0 .775-.182 1.377-.546 1.806-.364.43-.77.716-1.218.861a4.003 4.003 0 01-1.218.217h-2.17v3.892c0 .205-.187.308-.56.308h-.112zm2.856-5.264c.401 0 .784-.135 1.148-.406.364-.27.546-.742.546-1.414 0-.625-.187-1.062-.56-1.309-.373-.247-.817-.371-1.33-.371h-1.988v3.5h2.184zM208.956 30c-.15 0-.257-.033-.322-.098s-.098-.173-.098-.322v-9.1c0-.205.187-.308.56-.308h.112c.373 0 .56.103.56.308v8.456h3.85c.103 0 .175.033.217.098.042.065.063.173.063.322v.224c0 .15-.021.257-.063.322-.042.065-.114.098-.217.098h-4.662zm10.108.084c-1.4 0-2.469-.427-3.206-1.281-.737-.854-1.106-2.098-1.106-3.731s.366-2.868 1.099-3.703 1.804-1.253 3.213-1.253c1.41 0 2.483.418 3.22 1.253.737.835 1.106 2.07 1.106 3.703s-.369 2.877-1.106 3.731c-.737.854-1.81 1.281-3.22 1.281zm0-1.064c.99 0 1.745-.336 2.268-1.008.523-.672.784-1.652.784-2.94 0-1.279-.261-2.247-.784-2.905-.523-.658-1.279-.987-2.268-.987-.99 0-1.743.329-2.261.987-.518.658-.777 1.626-.777 2.905 0 1.288.259 2.268.777 2.94.518.672 1.272 1.008 2.261 1.008zm7.042 1.008c-.373 0-.56-.103-.56-.308v-9.1c0-.15.033-.257.098-.322s.173-.098.322-.098h2.352c1.12 0 1.962.198 2.527.595.565.397.847 1.024.847 1.883 0 .579-.14 1.066-.42 1.463-.28.397-.677.698-1.19.903v.056c.27.093.497.275.679.546.156.232.32.56.494.984l1.179 2.978c.028.084.042.15.042.196 0 .15-.196.224-.588.224h-.14a.958.958 0 01-.364-.063c-.103-.042-.168-.096-.196-.161l-1.064-2.744c-.205-.532-.462-.894-.77-1.085-.308-.191-.747-.287-1.316-.287h-1.26v4.032c0 .205-.187.308-.56.308h-.112zm16.454 0c-.373 0-.56-.103-.56-.308v-9.1c0-.15.033-.257.098-.322s.173-.098.322-.098h2.352c1.12 0 1.962.198 2.527.595.565.397.847 1.024.847 1.883 0 .579-.14 1.066-.42 1.463-.28.397-.677.698-1.19.903v.056c.27.093.497.275.679.546.156.232.32.56.494.984l1.179 2.978c.028.084.042.15.042.196 0 .15-.196.224-.588.224h-.14a.958.958 0 01-.364-.063c-.103-.042-.168-.096-.196-.161l-1.064-2.744c-.205-.532-.462-.894-.77-1.085-.308-.191-.747-.287-1.316-.287h-1.26v4.032c0 .205-.187.308-.56.308h-.112zm-13.934-5.404c.327 0 .628-.08.903-.238.275-.159.492-.369.651-.63.159-.261.238-.546.238-.854 0-.55-.168-.961-.504-1.232-.336-.27-.798-.406-1.386-.406h-1.75v3.36h1.848zm16.454 0c.327 0 .628-.08.903-.238.275-.159.492-.369.651-.63.159-.261.238-.546.238-.854 0-.55-.168-.961-.504-1.232-.336-.27-.798-.406-1.386-.406h-1.75v3.36h1.848zM234.52 30c-.15 0-.257-.033-.322-.098s-.098-.173-.098-.322v-8.96c0-.15.033-.257.098-.322s.173-.098.322-.098h4.886c.103 0 .175.033.217.098.042.065.063.173.063.322v.224c0 .15-.021.257-.063.322-.042.065-.114.098-.217.098h-4.074v3.192h3.654c.103 0 .175.033.217.098.042.065.063.173.063.322v.224c0 .15-.021.257-.063.322-.042.065-.114.098-.217.098h-3.654v3.416h4.088c.103 0 .175.033.217.098.042.065.063.173.063.322v.224c0 .15-.021.257-.063.322-.042.065-.114.098-.217.098h-4.9z" fill="#FFF" fill-rule="nonzero" opacity=".4"/></g></svg>