<svg width="102" height="20" xmlns="http://www.w3.org/2000/svg"><g fill="none" fill-rule="evenodd"><path d="M12.177 19.048c-.45 0-.833-.166-1.138-.494l-6.97-7.559-.961.873V17.5c0 .431-.156.8-.463 1.095-.298.299-.67.453-1.097.453-.431 0-.8-.156-1.096-.463A1.457 1.457 0 0 1 0 17.5V1.55C0 1.13.154.762.458.46c.29-.302.659-.458 1.09-.458.428 0 .799.154 1.102.458.304.303.458.67.458 1.09v6.136L11.139.408a1.478 1.478 0 0 1 1.122-.405c.417.022.776.192 1.067.505.287.322.418.699.396 1.126a1.495 1.495 0 0 1-.511 1.071L6.364 8.92l6.952 7.528c.293.316.43.69.408 1.112-.01.42-.177.786-.493 1.08a1.512 1.512 0 0 1-1.054.409m10.299-.001c-.428 0-.8-.154-1.103-.458a1.52 1.52 0 0 1-.445-1.09c0-.425.148-.794.44-1.097a1.51 1.51 0 0 1 1.108-.463h6.266l-4.61-10.518-5.552 12.692c-.266.61-.755.934-1.413.934-.215 0-.427-.046-.629-.136a1.452 1.452 0 0 1-.818-.857 1.496 1.496 0 0 1 .02-1.179L22.718.936c.266-.611.755-.934 1.413-.934.666 0 1.159.323 1.425.934l6.976 15.937a1.494 1.494 0 0 1-.118 1.474c-.302.46-.754.7-1.307.7h-8.631z" fill="#F4821F"/><path d="M42.45 7.971c.679 0 1.243-.233 1.723-.714.48-.48.713-1.043.713-1.723 0-.671-.233-1.23-.713-1.71a2.329 2.329 0 0 0-1.724-.714h-4.754v4.86h4.754zm1.323 7.97c.68 0 1.244-.234 1.723-.715.48-.48.714-1.04.714-1.71 0-.68-.233-1.244-.714-1.724a2.329 2.329 0 0 0-1.723-.713h-6.078v4.861h6.078zm-7.638 3.107c-.43 0-.8-.156-1.095-.463a1.457 1.457 0 0 1-.452-1.085V1.55c0-.42.154-.787.457-1.09.29-.302.66-.458 1.09-.458h6.314c1.518 0 2.835.548 3.916 1.629 1.073 1.072 1.616 2.386 1.616 3.903 0 1.267-.382 2.398-1.136 3.367a5.616 5.616 0 0 1 1.677 1.75c.529.876.796 1.839.796 2.865 0 1.518-.549 2.832-1.63 3.904-1.07 1.08-2.388 1.628-3.915 1.628h-7.638zm22.315 0c-2.024 0-3.775-.729-5.202-2.165-1.434-1.425-2.162-3.175-2.162-5.2V1.549c0-.42.154-.786.457-1.09.29-.301.66-.457 1.09-.457.428 0 .8.154 1.103.458.303.303.457.67.457 1.09v10.133c0 1.185.409 2.169 1.248 3.009.84.84 1.824 1.248 3.01 1.248 1.185 0 2.17-.408 3.01-1.248.839-.84 1.247-1.824 1.247-3.01V1.55c0-.42.154-.786.458-1.09.304-.303.67-.457 1.09-.457.428 0 .799.154 1.102.458.304.303.458.67.458 1.09v10.133c0 2.025-.728 3.775-2.164 5.202-1.435 1.435-3.185 2.163-5.201 2.163" fill="#F4571F"/><path d="M75.28 19.048a1.51 1.51 0 0 1-1.103-.458 1.486 1.486 0 0 1-.445-1.09V3.11h-4.6c-.431 0-.8-.156-1.096-.463a1.504 1.504 0 0 1-.452-1.098c0-.42.154-.786.457-1.09.29-.301.66-.457 1.09-.457h12.297c.42 0 .786.154 1.09.457.304.304.458.67.458 1.09 0 .428-.154.8-.458 1.103-.304.304-.67.458-1.09.458h-4.6V17.5c0 .428-.15.795-.446 1.09a1.509 1.509 0 0 1-1.102.458M92.478 3.11c-1.785 0-3.269.616-4.537 1.884-1.26 1.26-1.872 2.744-1.872 4.537 0 1.785.613 3.27 1.873 4.538 1.267 1.258 2.75 1.871 4.536 1.871 1.793 0 3.277-.612 4.537-1.872C98.283 12.8 98.9 11.316 98.9 9.531c0-1.792-.616-3.276-1.884-4.536-1.261-1.27-2.745-1.885-4.538-1.885m0 15.938c-2.616 0-4.88-.938-6.73-2.787-1.849-1.85-2.786-4.114-2.786-6.73 0-2.624.937-4.892 2.787-6.742C87.599.94 89.863.002 92.478.002c2.624 0 4.892.938 6.742 2.787 1.85 1.85 2.787 4.118 2.787 6.742 0 2.616-.937 4.88-2.787 6.73-1.85 1.849-4.118 2.787-6.742 2.787" fill="#D8362C"/></g></svg>