<?xml version="1.0" encoding="UTF-8"?>
<svg width="102px" height="20px" viewBox="0 0 102 20" version="1.1" xmlns="http://www.w3.org/2000/svg" xmlns:xlink="http://www.w3.org/1999/xlink">
    <!-- Generator: sketchtool 58 (101010) - https://sketch.com -->
    <title>BA65EBC2-8960-4E92-AFEB-E8456A1C2655</title>
    <desc>Created with sketchtool.</desc>
    <g id="Marketing" stroke="none" stroke-width="1" fill="none" fill-rule="evenodd">
        <g id="Kabuto-Marketing" transform="translate(-220.000000, -2025.000000)">
            <g id="Group-19" transform="translate(0.000000, 1694.000000)">
                <g id="Group-17" transform="translate(0.000000, 301.000000)">
                    <g id="Group-15" transform="translate(220.000000, 30.000000)">
                        <g id="logo_kabuto_footer">
                            <g id="Group">
                                <path d="M12.1771044,19.0476019 C11.726749,19.0476019 11.3438982,18.8816611 11.0392518,18.5544482 L4.06915077,10.9952862 L3.10774411,11.8675945 L3.10774411,17.5002469 C3.10774411,17.9311485 2.95191919,18.2994089 2.64474373,18.5951066 C2.34651702,18.8937224 1.97553311,19.0476019 1.54754957,19.0476019 C1.11664796,19.0476019 0.748193042,18.891777 0.452495324,18.5846016 C0.155824916,18.2994089 6.21724894e-14,17.9311485 6.21724894e-14,17.5002469 L6.21724894e-14,1.54949495 C6.21724894e-14,1.12987654 0.154074074,0.763172465 0.457747849,0.459693229 C0.748193042,0.157770296 1.11664796,0.00194537972 1.54754957,0.00194537972 C1.97553311,0.00194537972 2.34651702,0.155824916 2.64999626,0.459693229 C2.95367003,0.763172465 3.10774411,1.12987654 3.10774411,1.54949495 L3.10774411,7.68600075 L11.1394388,0.408140666 C11.4296895,0.138511036 11.7784961,-1.0658141e-14 12.1724355,-1.0658141e-14 C12.2018107,-1.0658141e-14 12.2311859,0.000972689862 12.2611448,0.00252899364 C12.6784287,0.0250953984 13.0369622,0.195316124 13.3277965,0.508133184 C13.6149345,0.82989899 13.7464422,1.2065245 13.7240703,1.63353535 C13.7013094,2.06210251 13.5293378,2.42277591 13.2128245,2.70543958 L6.36430976,8.91898242 L13.3159297,16.4470183 C13.6090984,16.762948 13.7466367,17.1376281 13.7240703,17.5593865 C13.7131762,17.9782267 13.5470408,18.3447363 13.2311111,18.6382941 C12.9361915,18.9100636 12.5821324,19.0476019 12.1771044,19.0476019" id="Fill-1" fill="#F4821F"></path>
                                <path d="M22.4757501,19.0476019 C22.0477666,19.0476019 21.6767826,18.8937224 21.3733034,18.5898541 C21.0762439,18.2819005 20.9282005,17.9169473 20.9282005,17.5002469 C20.9282005,17.0749869 21.0762439,16.7055593 21.3682454,16.4028582 C21.6767826,16.0939319 22.0477666,15.9400524 22.4757501,15.9400524 L28.7418182,15.9400524 L24.1310737,5.42196783 L18.5803217,18.1144033 C18.3139993,18.7248634 17.8253199,19.0476019 17.1671979,19.0476019 C16.9516498,19.0476019 16.7399925,19.0020801 16.5380621,18.9122035 C16.1452899,18.7439282 15.8686569,18.4550393 15.720419,18.0554583 C15.5659559,17.6702731 15.5714029,17.2701085 15.7402619,16.8759746 L22.7175608,0.935144033 C22.9840778,0.324683876 23.4727572,0.00194537972 24.1306846,0.00194537972 C24.7969772,0.00194537972 25.2899364,0.324683876 25.5564534,0.935533109 L32.5323906,16.873251 C32.7539693,17.3714628 32.7133109,17.8819304 32.4141115,18.3470707 C32.1116049,18.8065694 31.6602768,19.0476019 31.1066218,19.0476019 L22.4757501,19.0476019 Z" id="Fill-4" fill="#F4821F"></path>
                                <path d="M42.4492361,7.97099888 C43.1289517,7.97099888 43.6925282,7.73755331 44.172648,7.2574336 C44.6527677,6.77731388 44.8862132,6.21373737 44.8862132,5.5340217 C44.8862132,4.86286569 44.6527677,4.30337449 44.172648,3.82325477 C43.6923337,3.34313505 43.1285627,3.10968949 42.4492361,3.10968949 L37.6953116,3.10968949 L37.6953116,7.97099888 L42.4492361,7.97099888 Z M43.773067,15.9400524 C44.4527826,15.9400524 45.0165537,15.7066068 45.4964789,15.2264871 C45.9767931,14.7463674 46.2100441,14.1866816 46.2100441,13.5157202 C46.2100441,12.8363936 45.9767931,12.272428 45.4964789,11.7923083 C45.0161646,11.3121886 44.4523936,11.078743 43.773067,11.078743 L37.6953116,11.078743 L37.6953116,15.9400524 L43.773067,15.9400524 Z M36.1351171,19.0476019 C35.7042155,19.0476019 35.3357606,18.891777 35.0400629,18.5846016 C34.7433924,18.2994089 34.5875675,17.9311485 34.5875675,17.5002469 L34.5875675,1.54949495 C34.5875675,1.12987654 34.7416416,0.763172465 35.0453154,0.459693229 C35.3357606,0.157770296 35.7042155,0.00194537972 36.1351171,0.00194537972 L42.4492361,0.00194537972 C43.9666322,0.00194537972 45.2840434,0.550153386 46.3650909,1.63081182 C47.4375788,2.7034942 47.9813124,4.01682005 47.9813124,5.5340217 C47.9813124,6.80124205 47.5992398,7.93209128 46.844627,8.90127946 C47.5249263,9.35610924 48.0879192,9.94341938 48.5221279,10.6517321 C49.0506876,11.5267639 49.3179828,12.4897269 49.3179828,13.5157202 C49.3179828,15.034089 48.7693857,16.347804 47.6879491,17.4199027 C46.6177957,18.4991994 45.299801,19.0476019 43.773067,19.0476019 L36.1351171,19.0476019 Z" id="Fill-6" fill="#F4571F"></path>
                                <path d="M58.450743,19.0476019 C56.4256027,19.0476019 54.6753446,18.3194463 53.248214,16.883367 C51.8138855,15.4581818 51.0857299,13.7077291 51.0857299,11.6825889 L51.0857299,1.54949495 C51.0857299,1.12987654 51.239804,0.763172465 51.5432832,0.459693229 C51.8337284,0.157770296 52.2023779,0.00194537972 52.6332795,0.00194537972 C53.0610685,0.00194537972 53.4320524,0.155824916 53.7357262,0.459693229 C54.0393999,0.763172465 54.1932795,1.12987654 54.1932795,1.54949495 L54.1932795,11.6825889 C54.1932795,12.8677142 54.6016147,13.8518818 55.4414351,14.6918967 C56.2812555,15.5317172 57.2654231,15.9400524 58.450743,15.9400524 C59.6358683,15.9400524 60.6202305,15.5317172 61.4600509,14.6918967 C62.2998713,13.8518818 62.7082065,12.8675196 62.7082065,11.6825889 L62.7082065,1.54949495 C62.7082065,1.12987654 62.8622806,0.763172465 63.1657598,0.459693229 C63.4696281,0.155824916 63.8363322,0.00194537972 64.2557561,0.00194537972 C64.6835451,0.00194537972 65.054529,0.155824916 65.3582028,0.459693229 C65.6618765,0.763172465 65.8159506,1.12987654 65.8159506,1.54949495 L65.8159506,11.6825889 C65.8159506,13.7075346 65.087795,15.4577927 63.6515211,16.8851178 C62.2168036,18.3198354 60.46674,19.0476019 58.450743,19.0476019" id="Fill-8" fill="#F4571F"></path>
                                <path d="M75.2799895,19.0476019 C74.852006,19.0476019 74.4810221,18.8937224 74.1773483,18.5898541 C73.8820397,18.2951291 73.73244,17.928425 73.73244,17.5002469 L73.73244,3.10968949 L69.1314224,3.10968949 C68.7005208,3.10968949 68.3318713,2.95386457 68.0363681,2.64668911 C67.7377523,2.3484624 67.5836783,1.97728395 67.5836783,1.54949495 C67.5836783,1.12987654 67.7377523,0.763172465 68.0414261,0.459693229 C68.3318713,0.157770296 68.7005208,0.00194537972 69.1314224,0.00194537972 L81.4283621,0.00194537972 C81.847786,0.00194537972 82.2144901,0.155824916 82.5183584,0.459498691 C82.8222267,0.763172465 82.9761062,1.12987654 82.9761062,1.54949495 C82.9761062,1.97728395 82.8222267,2.3484624 82.5183584,2.65194164 C82.2144901,2.95580995 81.847786,3.10968949 81.4283621,3.10968949 L76.8273446,3.10968949 L76.8273446,17.5002469 C76.8273446,17.9280359 76.6777449,18.29474 76.3824362,18.5898541 C76.0785679,18.8937224 75.7077785,19.0476019 75.2799895,19.0476019" id="Fill-10" fill="#D8362C"></path>
                                <path d="M92.4779828,3.10965058 C90.693486,3.10965058 89.2093558,3.72614141 87.9411627,4.99433446 C86.6815294,6.25396783 86.0693184,7.73809802 86.0693184,9.53134905 C86.0693184,11.3164295 86.6819184,12.8005597 87.9421354,14.0691418 C89.2085776,15.3274134 90.6929024,15.9400135 92.4779828,15.9400135 C94.2712338,15.9400135 95.755364,15.3278025 97.0148028,14.0681691 C98.2831904,12.7999761 98.8996813,11.3158459 98.8996813,9.53134905 C98.8996813,7.73868163 98.2835795,6.25494052 97.0157755,4.99530715 C95.7545859,3.72594688 94.2708447,3.10965058 92.4779828,3.10965058 M92.4779828,19.047563 C89.8624198,19.047563 87.5983868,18.10989 85.7487198,16.260612 C83.8992473,14.4111395 82.9615743,12.1471066 82.9615743,9.53134905 C82.9615743,6.90722634 83.8992473,4.63871904 85.7487198,2.78944108 C87.5985814,0.939774037 89.8626143,0.00190647213 92.4779828,0.00190647213 C95.1021055,0.00190647213 97.3704183,0.939774037 99.2198908,2.78944108 C101.069558,4.63871904 102.007231,6.90722634 102.007231,9.53134905 C102.007231,12.1469121 101.069558,14.4111395 99.2198908,16.260612 C97.3706128,18.10989 95.1023,19.047563 92.4779828,19.047563" id="Fill-12" fill="#D8362C"></path>
                            </g>
                        </g>
                    </g>
                </g>
            </g>
        </g>
    </g>
</svg>