<?xml version="1.0" encoding="utf-8"?>
<!-- Generator: Adobe Illustrator 23.0.6, SVG Export Plug-In . SVG Version: 6.00 Build 0)  -->
<svg version="1.1" id="Layer_1" xmlns="http://www.w3.org/2000/svg" xmlns:xlink="http://www.w3.org/1999/xlink" x="0px" y="0px"
	 viewBox="0 0 510 360" style="enable-background:new 0 0 510 360;" xml:space="preserve">
<style type="text/css">
	.st0{fill:#011B26;}
	.st1{fill:#012335;}
	.st2{fill:#002944;}
	.st3{fill:#CCCCCC;}
	.st4{fill:#E5E5E5;}
	.st5{fill:none;}
	.st6{fill:#B5B5B5;}
	.st7{fill:#BFBFBF;}
	.st8{fill:#A1A1A1;}
	.st9{opacity:0.1;fill:#011B26;}
	.st10{fill:#F7B295;}
	.st11{fill:#65415A;}
	.st12{fill:#F29F8A;}
	.st13{fill:#FFFFFF;}
	.st14{fill:#4959A2;}
	.st15{fill:#ECF6F8;}
	.st16{fill:#333333;}
	.st17{opacity:0.25;fill:#231F20;}
	.st18{fill:#39BA8B;}
	.st19{opacity:0.15;fill:#231F20;}
	.st20{fill:#231F20;}
	.st21{fill-rule:evenodd;clip-rule:evenodd;fill:#39BA8B;fill-opacity:0.5;}
	.st22{fill-rule:evenodd;clip-rule:evenodd;fill:#39BA8B;}
	.st23{fill-rule:evenodd;clip-rule:evenodd;fill:#FEFEFE;}
	.st24{opacity:0.5;fill:#231F20;}
	.st25{opacity:0.5;fill:#E4EDEC;}
	.st26{fill:#F1F1F1;}
	.st27{opacity:0.1;fill:#231F20;}
	.st28{opacity:0.15;fill:#FFFFFF;}
	.st29{opacity:0.25;fill:#FFFFFF;}
</style>
<g>
	<path class="st0" d="M471.25,350.32c17.36-32.79,27.2-70.17,27.2-109.86c0-129.82-105.18-235.05-234.92-235.05
		S28.61,110.65,28.61,240.47c0,39.69,9.84,77.07,27.2,109.86H471.25z"/>
	<path class="st1" d="M413.64,350.32c22.55-30.79,35.87-68.76,35.87-109.86c0-102.77-83.27-186.08-185.98-186.08
		S77.55,137.69,77.55,240.47c0,41.09,13.32,79.07,35.87,109.86H413.64z"/>
	<path class="st2" d="M181.51,350.32h164.03c33.4-25.01,55.02-64.9,55.02-109.86c0-75.73-61.35-137.11-137.04-137.11
		s-137.04,61.39-137.04,137.11C126.49,285.42,148.11,325.32,181.51,350.32z"/>
	<g>
		<g>
			<path class="st3" d="M123.57,345.76l32.77-38.21c0.37-0.43,0.87-0.74,1.42-0.88l19.14-4.86c0.55-0.14,1.12-0.11,1.65,0.09l6,2.25
				c1.42,0.53,3.01-0.18,3.55-1.6l13.49-35.36c0.13-0.34,0.33-0.66,0.58-0.92l29.88-31.31c0.53-0.55,1.26-0.86,2.03-0.86l56.2,0.64
				c1.08,0.01,2.06,0.65,2.49,1.64l36.38,81.99c0.16,0.35,0.24,0.74,0.24,1.12v4.6c0,1.63,1.4,2.91,3.02,2.75l42.32-3.97
				c0.99-0.09,1.95,0.35,2.52,1.16l7.8,11.08c0.24,0.34,0.56,0.63,0.93,0.83l16.73,9.18c0.58,0.32,1.03,0.83,1.26,1.45l0,0
				c0.68,1.81-0.66,3.74-2.59,3.74H125.67C123.31,350.32,122.03,347.55,123.57,345.76z"/>
			<g>
				<path class="st4" d="M234.59,236.66l14.69,22.17c0.21,0.32,0.54,0.56,0.91,0.67l22.04,6.27c0.71,0.2,1.47-0.1,1.85-0.74
					l16.54-27.83c0.64-1.08-0.13-2.45-1.38-2.47l-53.26-0.61C234.66,234.11,233.87,235.56,234.59,236.66z"/>
				<path class="st5" d="M232.6,277.53"/>
				<path class="st6" d="M143.26,348.62l16.88-7.85c0.19-0.09,0.41-0.11,0.61-0.05l29.01,7.85c1,0.27,0.81,1.75-0.23,1.75h-45.89
					C142.68,350.32,142.39,349.03,143.26,348.62z"/>
				<path class="st7" d="M157.36,311.19l2.93,28.12c0.08,0.79-0.35,1.55-1.07,1.89l-19.25,8.95c-0.25,0.11-0.51,0.17-0.79,0.17
					h-15.48c-1.59,0-2.45-1.87-1.42-3.08l31.79-37.07C155.16,308.93,157.19,309.56,157.36,311.19z"/>
				<path class="st3" d="M178.96,304.82l14.57,38.41c1.12,2.95-1.58,5.93-4.62,5.11l-25.92-7.01c-1.54-0.42-2.67-1.74-2.84-3.33
					l-2.9-27.79c-0.2-1.91,1.03-3.68,2.9-4.15l14.24-3.61C176.3,301.96,178.27,302.99,178.96,304.82z"/>
				<path class="st4" d="M187.18,305.15l23.09,11.84c0.51,0.26,0.72,0.87,0.48,1.39l-13.48,29.62c-0.39,0.86-1.63,0.82-1.97-0.06
					l-16.74-44.13c-0.33-0.86,0.51-1.7,1.37-1.38l7.12,2.67C187.11,305.11,187.15,305.13,187.18,305.15z"/>
				<polygon class="st7" points="211.18,317.45 196.22,350.32 213.53,350.32 				"/>
				<path class="st6" d="M205.32,267.91l26.3,9.27c0.58,0.2,0.95,0.77,0.9,1.38l-3.94,56.02c-0.06,0.88,0.18,1.75,0.68,2.47
					l1.17,1.67c1.2,1.71,0.8,4.07-0.89,5.3l-7.68,5.57c-0.65,0.47-1.44,0.73-2.25,0.73h-2.52c-2.01,0-3.68-1.55-3.82-3.56
					l-1.94-27.16c-0.1-1.34-0.88-2.53-2.07-3.14l-19.08-9.78c-1.74-0.89-2.53-2.95-1.83-4.78l12.11-31.75
					C201.2,268.22,203.36,267.22,205.32,267.91z"/>
				<path class="st3" d="M232.94,277.17l14.09-15.07c1.51-1.62,1.72-4.07,0.49-5.91l-11.32-17.09c-1.7-2.56-5.33-2.88-7.45-0.66
					l-21.84,22.89c-2.4,2.51-1.41,6.67,1.87,7.82l23.35,8.23C232.41,277.46,232.73,277.39,232.94,277.17z"/>
				<path class="st8" d="M233.2,278.17l19.85,21.26c0.24,0.26,0.38,0.6,0.38,0.96v14.01c0,0.59,0.37,1.12,0.93,1.32l16.72,6.03
					c0.16,0.06,0.29,0.18,0.35,0.34l1.79,4.59c0.36,0.92-0.32,1.92-1.31,1.92h-5.94c-0.33,0-0.65,0.12-0.91,0.33l-11.33,9.56
					c-0.29,0.24-0.66,0.36-1.04,0.32l-14.23-1.36c-0.37-0.04-0.74,0.08-1.03,0.32l-3.66,3.05c-0.63,0.53-1.58,0.4-2.05-0.27
					l-2.95-4.21c-0.18-0.26-0.27-0.58-0.25-0.9l4.01-57.04C232.56,278.07,232.97,277.93,233.2,278.17z"/>
				<path class="st7" d="M252.29,260.1l17.67,5.06c2.02,0.58,3.38,2.46,3.3,4.56l-1.91,50.93c-0.02,0.59-0.61,0.99-1.17,0.79
					l-15.8-5.7c-0.58-0.21-0.97-0.76-0.97-1.39v-12.72c0-1.16-0.44-2.27-1.23-3.12l-18.41-19.72c-0.67-0.72-0.67-1.83,0-2.55
					l13.92-14.89C248.88,260.12,250.65,259.63,252.29,260.1z"/>
				<path class="st3" d="M275.4,264.75l15.47-10.77c2.4-1.67,5.72-0.82,7.03,1.8l30.97,62.16c0.33,0.67,0.5,1.4,0.5,2.15l0,2.76
					c0,2.65-2.15,4.79-4.8,4.79l-0.74,0c-0.67,0-1.34,0.14-1.95,0.41l-8.52,3.79c-0.76,0.34-1.59,0.47-2.42,0.39l-34.09-3.37
					c-1.8-0.18-3.34-1.35-4-3.03l-1.2-3.08c-0.24-0.61-0.35-1.27-0.32-1.93l2.02-52.32C273.4,267,274.16,265.61,275.4,264.75z"/>
				<polygon class="st4" points="220.86,350.32 237.88,337.41 246.09,350.32 				"/>
				<polygon class="st5" points="246.09,350.32 265.11,350.32 265.45,328.6 253.28,338.88 237.88,337.41 				"/>
				<path class="st4" d="M272.3,346.56l14.82-7.77c4.25-2.22,3-8.61-1.77-9.08l-11.15-1.09c-0.16-0.02-0.31-0.02-0.47-0.02h-3.53
					c-2.63,0-4.78,2.11-4.82,4.75l-0.14,8.85C265.18,345.86,269.06,348.25,272.3,346.56z"/>
				<path class="st7" d="M311.84,332.66l-3.28,2.63c-1.53,1.23-1.97,3.38-1.03,5.11l4.25,7.82c0.71,1.3,2.07,2.12,3.56,2.12h17.35
					c1.21,0,2.35-0.54,3.12-1.47l3.12-3.78c1.47-1.78,1.16-4.43-0.68-5.82l-13.5-10.21c-1.18-0.89-2.74-1.07-4.09-0.47l-7.94,3.54
					C312.4,332.26,312.11,332.44,311.84,332.66z"/>
				<path class="st4" d="M342.72,341.6l23.26-4.57c0.65-0.13,1.22-0.51,1.58-1.06l5.92-8.93c1.15-1.73-0.22-4.02-2.29-3.83
					l-41.79,3.92l0,0c-2.28,0.16-3.13,3.06-1.31,4.44l12.66,9.57C341.31,341.57,342.03,341.73,342.72,341.6z"/>
				<polygon class="st6" points="385.44,335.65 381.85,350.32 405.38,350.32 403.62,345.63 				"/>
			</g>
		</g>
		<path class="st9" d="M233.69,236.39c0,0,1.65,9.29,9.28,10.93c7.63,1.64,34.96,5.68,41.34-2.48s3.87-9.71,3.87-9.71l0.29-8.57
			l-47.05-1.51L233.69,236.39z"/>
		<g>
			<g>
				<path class="st10" d="M288.26,66.73c0,0,5.11,2.89,4.12,9.21c-1,6.32-0.67,7.98-5.99,6.65S288.26,66.73,288.26,66.73z"/>
				<path class="st10" d="M237.26,66.73c0,0-5.11,2.89-4.12,9.21c1,6.32,0.67,7.98,5.99,6.65
					C244.45,81.26,237.26,66.73,237.26,66.73z"/>
			</g>
			<path class="st10" d="M239.68,80.19c0,0-1.45,16.23,3.08,19.57c4.53,3.34,8.35,3.1,8.35,3.1h21.47c0,0,6.44,0,9.18-2.63
				c2.74-2.63,4.94-6.65,4.62-17.65C286.06,71.59,239.68,80.19,239.68,80.19z"/>
			<path class="st11" d="M237.51,40.67c0,0-4.66,6.32-2,18.63s2.19,26.62,10.4,28.94c8.22,2.33,31.82,0,31.82,0s8.31-1.66,8.65-5.66
				c0.33-3.99,3.99-32.27,3.99-34.6c0-2.33,0-2.33,0-2.33s3.33-2.33,4.66-9.98s2.33-12.31,0-12.64s-15.39,2.99-29.47,3.66
				C251.47,27.36,235.51,27.69,237.51,40.67z"/>
			<path class="st12" d="M251.23,114.56v-14.8c0,0-0.95-6.44,10.85-6.44c0,0,10.38,0,10.38,5.49c0,5.49,0,15.75,0,15.75H251.23z"/>
			<g>
				<polygon class="st10" points="301.7,184.41 289.2,207.05 287.13,184.41 				"/>
				<polygon class="st12" points="288.46,199.63 295.6,195.35 295.6,195.35 289.14,207.05 				"/>
				<polygon class="st10" points="222.48,184.41 234.98,207.05 237.05,184.41 				"/>
				<polygon class="st12" points="235.66,199.63 228.52,195.35 228.52,195.35 234.98,207.05 				"/>
			</g>
			<g>
				<path class="st13" d="M261.84,114.56c0,0-18.6-4.54-25.99,12.77c-7.24,16.94-13.34,30.11-16.27,54.95
					c-0.11,0.91,0.51,1.76,1.41,1.94l12.81,2.5c0.84,0.16,1.68-0.3,1.99-1.11l1.28-3.38L261.84,114.56z"/>
				<path class="st13" d="M261.84,114.56c0,0,18.6-4.54,25.99,12.77c7.24,16.94,13.34,30.11,16.27,54.95
					c0.11,0.91-0.51,1.76-1.41,1.94l-12.81,2.5c-0.84,0.16-1.68-0.3-1.99-1.11l-1.28-3.38L261.84,114.56z"/>
			</g>
			<path class="st14" d="M287.13,237.42c0,2.04-1.28,3.85-3.19,4.54c-3.89,1.4-11.38,3.37-22.69,3.37c-10.42,0-17.6-1.67-21.71-3.03
				c-2.5-0.83-4.18-3.19-4.18-5.83v-17.36h51.77V237.42z"/>
			<path class="st15" d="M290.12,218.84c0.07,0.86-0.5,1.65-1.34,1.85c-3.42,0.83-12.74,2.72-27.11,2.72
				c-14.49,0-23.85-2.29-27.19-3.26c-0.8-0.24-1.32-1.01-1.25-1.84l7.87-90.13c0,0-1.45-13.61,20.75-13.61
				c22.2,0,21.23,13.61,21.23,13.61L290.12,218.84z"/>
		</g>
		<g>
			<path class="st16" d="M232.57,186.72c0,0-5.38,7.29-12.13,9.85c0,0-10.37,19.72,5.83,28.48l6.29-6.89V186.72z"/>
			<path class="st17" d="M226.4,209.03c-6.15,7.58-8.57-4.82-8.59-4.88c-1.41,6.52-1.23,15.67,8.46,20.9l6.29-6.89v-16.22
				C229.91,204.9,227.7,207.42,226.4,209.03z"/>
			<path class="st16" d="M232.57,186.72c0,0-22.09,53.28,12.71,53.28v-52.44L232.57,186.72z"/>
			<path class="st16" d="M292.6,186.72c0,0,5.38,7.29,12.12,9.85c0,0,10.37,19.72-5.83,28.48l-6.29-6.89V186.72z"/>
			<path class="st17" d="M297.38,201.94c0,0-1.94-0.07-4.78-0.18v16.41l6.29,6.89c6.54-3.54,8.75-8.86,9.06-13.96
				C301.37,215.83,297.38,201.94,297.38,201.94z"/>
			<path class="st16" d="M292.6,186.72c0,0,22.09,53.28-12.71,53.28v-52.44L292.6,186.72z"/>
			<path class="st18" d="M234.11,188.1c0,0-2.02,6.77-2.35,14.72c-0.33,7.95,6.53-7.88,6.53-7.88s-0.55-3.48,0.45-4.56
				C239.74,189.3,234.11,188.1,234.11,188.1z"/>
			<path class="st18" d="M290.06,188.1c0,0,2.02,6.77,2.35,14.72c0.33,7.95-6.53-7.88-6.53-7.88s0.55-3.48-0.45-4.56
				C284.42,189.3,290.06,188.1,290.06,188.1z"/>
			<path class="st18" d="M223.01,150.74c0,0-2.57,9.96,6.01,13.98c0,0,2.4,0.3,3.54,0c1.14-0.3,1.3-13.11,1.3-13.11L223.01,150.74z"
				/>
			<path class="st17" d="M223.01,150.74c0,0-0.38,1.47-0.36,3.5c1.27-0.2,9.67-1.25,8.64,6.18c-0.21,1.54-0.42,3.03-0.61,4.43
				c0.67,0.02,1.39,0,1.89-0.13c1.14-0.3,1.3-13.11,1.3-13.11L223.01,150.74z"/>
			<path class="st16" d="M236.27,130.06c0,0-12.65,2.28-15.3,15.56c0,0-0.84,5.05,3.6,5.59c4.44,0.54,9.28,0.41,9.28,0.41
				l6.39-11.22L236.27,130.06z"/>
			<path class="st17" d="M233.86,137.86c1.54,7.68-12.89,9.59-12.89,9.59c0.19,1.5,0.96,3.42,3.61,3.75
				c4.44,0.54,9.28,0.41,9.28,0.41l6.39-11.22l-1.8-4.67C235.37,135.59,233.52,136.17,233.86,137.86z"/>
			<path class="st18" d="M301.51,150.74c0,0,2.57,9.96-6.01,13.98c0,0-2.4,0.3-3.54,0c-1.14-0.3-1.3-13.11-1.3-13.11L301.51,150.74z
				"/>
			<path class="st19" d="M292.03,154.86c0,0,8.59-1.85,9.37,2.93c0.99-3.64,0.11-7.06,0.11-7.06l-10.85,0.87
				c0,0,0.02,1.54,0.09,3.57L292.03,154.86z"/>
			<path class="st16" d="M288.25,130.06c0,0,12.65,2.28,15.3,15.56c0,0,0.84,5.05-3.6,5.59c-4.44,0.54-9.28,0.41-9.28,0.41
				l-6.39-11.22L288.25,130.06z"/>
			<path class="st17" d="M290.53,141.06l-5.05,1.46l5.18,9.09c0,0,4.84,0.13,9.28-0.41c4.44-0.54,3.6-5.59,3.6-5.59
				C300.99,148.28,290.53,141.06,290.53,141.06z"/>
			<path class="st16" d="M294.8,175.09c-0.18-1.68-4.2-29.02-4.27-34.03c-0.07-5.01-1.98-7.31-1.98-7.31h-26.52h-26.52
				c0,0-1.91,2.3-1.98,7.31c-0.07,5.01-4.09,32.35-4.27,34.03c-0.18,1.68-2.76,8.41,7.27,14.72c10.03,6.31,25.5-0.72,25.5-0.72
				s15.48,7.03,25.5,0.72S294.98,176.78,294.8,175.09z"/>
			<path class="st17" d="M294.8,175.09c-0.18-1.68-4.2-29.02-4.27-34.03c-0.07-5.01-1.98-7.31-1.98-7.31h-26.52h-17.32l4.98,3.38
				c0,0,29.66,2.69,31.16,17.11s7.2,30.03-10.46,33.61c-2.55,0.52-4.85,1.14-6.93,1.82c4.05,1.54,15.88,5.3,24.08,0.14
				C297.57,183.51,294.98,176.78,294.8,175.09z"/>
			<path class="st18" d="M240.39,153.43c0,0,1.37,13.01-3.26,28.76l3.72,1.14c0,0,4.17-13.1,4.09-29.26L240.39,153.43z"/>
			<path class="st20" d="M240.01,151.71c0,0-0.51,1.03-0.23,1.64s2.17,1.02,3.42,0.9c1.25-0.12,4.11-0.03,3.31-2.54
				S240.01,151.71,240.01,151.71z"/>
			<path class="st20" d="M240.25,146.85c0,0-1.14,0.66-1.14,2.28c0,1.62,0.18,2.88,2.16,2.76c1.98-0.12,5.19,0.36,5.72-0.54
				c0.53-0.9,0.37-4.18-0.45-4.94C245.72,145.65,240.25,146.85,240.25,146.85z"/>
			<path class="st20" d="M240.01,144.54c0,0-1.32,2.97,2.4,2.91s5.22-1.08,4.32-3.3S240.01,144.54,240.01,144.54z"/>
			<path class="st18" d="M238.03,138.25c0,0,0.48,6.26,2.58,6.56c2.1,0.3,5.58,0.3,6.13-0.66c0.54-0.96,2.96-7.02,2.96-7.02
				L238.03,138.25z"/>
			<path class="st18" d="M283.67,153.43c0,0-1.37,13.01,3.26,28.76l-3.72,1.14c0,0-4.17-13.1-4.09-29.26L283.67,153.43z"/>
			<path class="st20" d="M284.04,151.71c0,0,0.51,1.03,0.23,1.64c-0.29,0.6-2.17,1.02-3.42,0.9c-1.25-0.12-4.11-0.03-3.31-2.54
				C278.34,149.2,284.04,151.71,284.04,151.71z"/>
			<path class="st20" d="M283.8,146.85c0,0,1.14,0.66,1.14,2.28c0,1.62-0.18,2.88-2.16,2.76c-1.98-0.12-5.19,0.36-5.72-0.54
				c-0.53-0.9-0.37-4.18,0.45-4.94C278.34,145.65,283.8,146.85,283.8,146.85z"/>
			<path class="st20" d="M284.04,144.54c0,0,1.32,2.97-2.4,2.91s-5.22-1.08-4.32-3.3S284.04,144.54,284.04,144.54z"/>
			<path class="st18" d="M286.03,138.25c0,0-0.48,6.26-2.58,6.56s-5.58,0.3-6.13-0.66c-0.54-0.96-2.96-7.02-2.96-7.02L286.03,138.25
				z"/>
			<path class="st17" d="M248.38,140.38L248.38,140.38c0.69-1.67,1.32-3.25,1.32-3.25l-11.67,1.12c0,0,0.24,3.02,1.08,4.97
				C239.12,143.21,243.34,139.04,248.38,140.38z"/>
			<path class="st17" d="M285.65,140.84c0.28-1.38,0.38-2.59,0.38-2.59l-11.67-1.12c0,0,1.33,3.34,2.24,5.45
				C277.3,142.03,280.63,139.71,285.65,140.84z"/>
			<path class="st18" d="M289.81,118.42l-27.78-1.37l-27.78,1.37c0,0-2.23,10.41,3.23,19.48c0,0,1.02,1.02,3.24,0.6
				s10.11-1.86,21.3-1.86s19.08,1.44,21.3,1.86c2.22,0.42,3.24-0.6,3.24-0.6C292.04,128.83,289.81,118.42,289.81,118.42z"/>
			<path class="st17" d="M241.71,131.66c3.7,3.94,40.76-1.86,40.76-1.86s7.57-1.14,6.09,3.94c2.85-7.81,1.25-15.31,1.25-15.31
				l-27.78-1.37l-27.78,1.37c0,0-1.28,5.96,0.47,12.79C235.09,130.86,238.24,127.95,241.71,131.66z"/>
			<path class="st18" d="M294.32,209.76c-0.12-6.79-6.31-14.3-14.23-18.87c-4.45-2.56-9.6-3.21-13.25-3.29
				c-2.86-0.06-6.66-0.05-9.41,0c-3.67,0.06-8.92,0.68-13.46,3.3c-7.93,4.57-14.11,12.08-14.23,18.87
				c-0.12,6.79-3.04,26.38,15.21,30.22c0,0,9.32,0.48,17.09,0.48c7.76,0,17.09-0.48,17.09-0.48
				C297.36,236.14,294.44,216.55,294.32,209.76z"/>
			<path class="st17" d="M294.32,211.01c-0.12-5.34-6.31-11.25-14.23-14.85c-4.45-2.02-9.6-2.53-13.25-2.59
				c-2.86-0.05-6.66-0.04-9.41,0c-3.67,0.05-8.92,0.54-13.46,2.59c-7.93,3.59-14.11,9.51-14.23,14.85s-3.04,20.76,15.21,23.79
				c0,0,9.32,0.38,17.09,0.38c7.76,0,17.09-0.38,17.09-0.38C297.36,231.77,294.44,216.36,294.32,211.01z"/>
			<path class="st16" d="M262.03,231.37c-7.7,0-17.04-0.48-17.13-0.48l-0.07,0l-0.07-0.01c-16.94-3.57-16.41-12.37-16.01-18.79
				c0.05-0.81,0.1-1.59,0.11-2.34c0.12-6.75,6.02-14.63,14.67-19.61c4.71-2.71,10.15-3.35,13.88-3.41c1.44-0.02,3.17-0.04,4.9-0.04
				c1.58,0,3.17,0.01,4.54,0.04c3.67,0.08,9.03,0.73,13.67,3.41c8.66,4.99,14.55,12.87,14.67,19.61c0.01,0.75,0.06,1.53,0.11,2.34
				c0.39,6.42,0.93,15.22-16.01,18.79l-0.07,0.01l-0.07,0C279.07,230.9,269.73,231.37,262.03,231.37z"/>
			<path class="st17" d="M294.32,209.76c-0.1-5.6-4.34-11.7-10.27-16.22c0.07,0.16,5.1,11.65,3.08,15.56
				c-2.03,3.94-0.66,13.08-18.51,14.3c-17.86,1.22-28.75,3.56-39-5.86l0,0c0.55,5.02,3.46,9.96,15.33,12.46
				c0,0,9.32,0.48,17.09,0.48c7.76,0,17.09-0.48,17.09-0.48C297.36,226.17,294.44,216.55,294.32,209.76z"/>
			<path class="st18" d="M268.95,222.01h-14.57c-4.15,0-7.51-3.36-7.51-7.51v-10.78c0-4.15,3.36-7.51,7.51-7.51h14.57
				c4.15,0,7.51,3.36,7.51,7.51v10.78C276.46,218.64,273.1,222.01,268.95,222.01z"/>
			<path class="st17" d="M268.95,215.62h-14.57c-4.15,0-7.51-3.36-7.51-7.51v-0.87c0-4.15,3.36-7.51,7.51-7.51h14.57
				c4.15,0,7.51,3.36,7.51,7.51v0.87C276.46,212.26,273.1,215.62,268.95,215.62z"/>
			<path class="st18" d="M268.95,212.1h-14.57c-4.15,0-7.51-3.36-7.51-7.51v-0.87c0-4.15,3.36-7.51,7.51-7.51h14.57
				c4.15,0,7.51,3.36,7.51,7.51v0.87C276.46,208.73,273.1,212.1,268.95,212.1z"/>
			<path class="st18" d="M288.3,107.35c-6.72-10.75-15.52-10.75-15.52-10.75h-10.74h-10.74c0,0-8.81,0-15.52,10.75
				s3.28,19.26,9.25,19.71c5.97,0.45,17.01,0.45,17.01,0.45s11.04,0,17.01-0.45C285.01,126.61,295.01,118.1,288.3,107.35z"/>
			<g id="Page-1_6_">
				<g id="Artboard-Copy-4_6_" transform="translate(-152.000000, -46.000000)">
					<g id="Group-2-Copy_6_" transform="translate(147.000000, 41.000000)">
						<g id="Group_6_">
							<path id="Rectangle_11_" class="st21" d="M261.34,158.92h12.21c3.17,0,5.75,2.57,5.75,5.75v12.22c0,3.17-2.57,5.75-5.75,5.75
								h-12.21c-3.17,0-5.75-2.57-5.75-5.75v-12.22C255.6,161.49,258.17,158.92,261.34,158.92z"/>
							<path class="st22" d="M258.12,161.94l10.8-3.93c2.98-1.09,6.28,0.45,7.36,3.44l3.93,10.8c1.09,2.98-0.45,6.28-3.43,7.37
								l-10.8,3.93c-2.98,1.09-6.28-0.45-7.36-3.44l-3.93-10.8C253.6,166.32,255.14,163.03,258.12,161.94z"/>
							<path id="Fill-13_6_" class="st23" d="M267.43,169.78c0.34-0.33,0.7-0.62,1.07-0.88c0.37-0.26,0.75-0.48,1.13-0.64
								c0.39-0.16,0.9-0.33,1.68-0.11c0.97,0.28,0.86,1.39,0.8,1.54c-0.36,0.97-0.68,1.78-0.98,2.44c-0.3,0.66-0.56,1.25-0.79,1.77
								c-0.23,0.52-0.41,1.02-0.56,1.49c-0.14,0.48-0.24,1.01-0.28,1.61c0,0.04,0.01,0.09,0.02,0.15c0.01,0.06,0.05,0.11,0.1,0.15
								c0.05,0.04,0.12,0.06,0.22,0.06c0.1,0,0.23-0.04,0.39-0.11c0.41-0.2,0.91-0.55,1.49-1.04c0.29-0.25,0.45-0.13,0.49,0.11
								c0.04,0.24-0.05,0.59-0.25,0.8c-0.41,0.43-0.84,0.79-1.29,1.1c-0.46,0.31-0.9,0.46-1.33,0.46c-0.24,0-0.48-0.04-0.72-0.13
								c-0.24-0.09-0.44-0.21-0.61-0.38c-0.17-0.17-0.31-0.39-0.41-0.66c-0.1-0.27-0.14-0.59-0.13-0.96
								c0.01-0.37,0.06-0.74,0.15-1.1c0.09-0.36,0.2-0.75,0.33-1.15c0.14-0.4,0.3-0.85,0.5-1.32c0.2-0.48,0.42-1,0.66-1.59
								c0.16-0.37,0.28-0.71,0.36-1.01c0.09-0.31,0.1-0.53,0.04-0.67c-0.06-0.14-0.21-0.17-0.45-0.07
								c-0.24,0.09-0.61,0.35-1.11,0.78c-0.54,0.5-1.03,0.97-1.46,1.41c0,0-0.01,0.01-0.01,0.01c-0.94,0.97-1.63,2.15-2.05,3.44
								c-0.06,0.19-0.12,0.38-0.17,0.57c-0.25,0.86-0.41,1.76-0.48,2.7c0,0.1-0.08,0.13-0.24,0.09c-0.16-0.04-0.33-0.12-0.52-0.22
								c-0.19-0.11-0.37-0.23-0.52-0.37c-0.16-0.14-0.24-0.27-0.26-0.38c0.04-0.87,0.19-1.74,0.44-2.62
								c0.25-0.88,0.56-1.77,0.94-2.66c0.38-0.89,0.79-1.79,1.23-2.67c0.29-0.58,0.57-1.16,0.86-1.73l-3.9,1.51l-0.04-0.09
								c-0.23-0.6,0.06-1.28,0.67-1.51l4.08-1.58c0.12-0.25,0.23-0.5,0.35-0.75c0.23-0.5,0.45-1,0.65-1.48
								c0.21-0.48,0.39-0.94,0.55-1.38c0.16-0.44,0.29-0.85,0.39-1.21c0.14-0.07,0.79,0.26,1.01,0.44c0.21,0.18,0.39,0.39,0.51,0.63
								c0.13,0.24,0.15,0.48,0.06,0.7c-0.06,0.17-0.17,0.43-0.33,0.78c-0.16,0.35-0.35,0.74-0.57,1.18
								c-0.02,0.04-0.04,0.07-0.05,0.11l3.26-1.26l0.04,0.09c0.23,0.6-0.06,1.28-0.67,1.51l-3.5,1.35
								c-0.18,0.35-0.35,0.68-0.52,1.01l-1.24,2.79C266.77,170.44,267.09,170.1,267.43,169.78"/>
						</g>
					</g>
				</g>
			</g>
			<path class="st16" d="M281.88,124.17l-19.74,1.5l-19.74-1.5c0,0-0.99,6.94-0.72,12.46c0.05,1.03,1,1.79,2.02,1.63
				c3.73-0.58,10.14-1.35,18.32-1.35c8.35,0,14.86,0.8,18.55,1.38c1.02,0.16,1.97-0.59,2.02-1.63
				C282.88,131.14,281.88,124.17,281.88,124.17z"/>
			<path class="st24" d="M282.63,132.83c-0.13-4.46-0.74-8.66-0.74-8.66l-19.74,1.5l-19.74-1.5c0,0-0.51,3.49-0.7,7.49
				C241.74,131.65,263.34,126.43,282.63,132.83z"/>
			<path class="st16" d="M283.63,113.87c-2.58-14.6-10.86-17.27-10.86-17.27h-10.74h-10.74c0,0-8.28,2.67-10.86,17.27
				c-2.58,14.6,7.63,13.37,7.63,13.37l13.97,0.27l13.97-0.27C276.01,127.24,286.22,128.47,283.63,113.87z"/>
		</g>
		<g>
			<path class="st13" d="M505.29,352.97c0,0-52.39-8.12-53.9-10.91c-1.51-2.79-7.21-11.47-14.63-11.56
				c-7.42-0.09-8.86,3.56-12.7-0.69s-11.28-6.31-18.82-2.93c0,0,1.19-12.38-10.54-14.57c-11.73-2.18-13.63,4.43-13.63,4.43
				s-3.86-21.57-20.51-21.72c-16.65-0.15-22.47,10.79-22.47,10.79s-10.02-12.43-28.43-6.96c-18.4,5.47-13.93,22.82-13.93,22.82
				s-8.29-4.28-14.02-1.08c-5.62,3.13-7.24,9.87-3.97,15.54c-5.79-0.84-12.59-2.4-15.47-5.2c-5.46-5.33-14.18-3.77-16.75-5.43
				c-2.57-1.67-3.18-4.91-7.94-4.74c-4.76,0.17-9.25-6.2-15.97-4.71c-6.72,1.49-12.89,4.22-14.27,7.78c0,0-5.7-12.35-15.68-10.74
				c-9.98,1.61-9.56,6.36-12.96,2.21c-3.41-4.15-15.33-15.02-30.55-12.72s-18.16,11.43-19.89,12c-1.74,0.56-3.06-1.4-4.99,0.68
				c-1.93,2.08-7.02,0-9.29,6.85c0,0-10.26-6.41-18.89-2.34c-8.64,4.07-13.2,9.75-14.98,16.09c0,0-2.63-3.42-4.77-0.08
				c-2.14,3.34-21.41,9.36-22.13,10.14s-38.89,8.92-47.9,9.49L505.29,352.97z"/>
			<path class="st25" d="M191.65,313.11c5.19-0.84,9.21,2.1,11.89,5.11c0,0-14.57-2.15-16.55,2.7c-2.14,5.25-10.81,0.45-11.69-9.06
				c1.5,1.34,2.64,2.56,3.38,3.46C182.09,319.47,181.67,314.71,191.65,313.11z"/>
			<path class="st25" d="M123.25,315.27c1.93-2.08,3.26-0.11,4.99-0.68c1.74-0.56,4.67-9.7,19.89-12
				c6.81-1.03,12.96,0.59,17.98,3.05l0,0c0,0-19.4,1.91-25.96,13.73c-5.8,10.44-10.71,12.92-18.18,9.91
				c-7.46-3.01-8.71-5.48-8.02-7.16C116.22,315.27,121.31,317.35,123.25,315.27z"/>
			<path class="st25" d="M93.19,331.8c-1,8.25,10.94,13.98,5.08,14.39c-0.6,0.04-45.08,2.17-45.08,2.17
				c9.01-0.57,17.9-4.4,18.63-5.18c0.73-0.78,1.36-4.06,3.5-7.4c2.14-3.34,4.77,0.08,4.77,0.08c1.78-6.34,6.35-12.02,14.98-16.09
				c4.64-2.19,9.76-1.34,13.49-0.1C108.55,319.68,94.24,323.08,93.19,331.8z"/>
			<path class="st25" d="M348.02,297.45c0.65-0.27,9.6-3.65,15.31,10.75c5.93,14.95,6.51,23.02,10.12,21.83
				c3.61-1.19,8.32-10.41,7.61-13.28c0,0-3.86-21.57-20.51-21.72C355.38,294.98,351.25,296.01,348.02,297.45z"/>
			<path class="st25" d="M451.39,342.07c-1.51-2.79-7.21-11.47-14.63-11.56c-7.42-0.09-8.86,3.56-12.7-0.69
				c-3.84-4.25-11.28-6.31-18.82-2.93c0,0,1.19-12.38-10.54-14.57c-1.27-0.24-2.43-0.37-3.48-0.41c0,0,6.97,3.35,5.27,13.59
				c-1.7,10.24,0.1,9.73,8.66,7.99c8.55-1.74,6.49,6.2,12.26,6.14c5.77-0.06,12.86,0.58,14.08,6.23l29.51,0.07
				C460.99,345.92,452.9,344.85,451.39,342.07z"/>
		</g>
	</g>
	<g>
		<ellipse class="st26" cx="373.9" cy="157.8" rx="17.32" ry="17.33"/>
		<path class="st27" d="M387.75,147.43c0,0,3.51,12.35-7.48,19.48c-8.15,5.29-21.69-1.03-21.69-1.03c2.9,5.5,8.67,9.25,15.31,9.25
			c9.56,0,17.32-7.76,17.32-17.33C391.22,153.9,389.92,150.32,387.75,147.43z"/>
		
			<ellipse transform="matrix(0.8658 -0.5004 0.5004 0.8658 -23.7559 207.0088)" class="st27" cx="374.04" cy="147.79" rx="2.1" ry="1.17"/>
		
			<ellipse transform="matrix(0.8658 -0.5004 0.5004 0.8658 -31.1812 206.0122)" class="st27" cx="368.47" cy="161.14" rx="2.1" ry="1.17"/>
		
			<ellipse transform="matrix(0.8658 -0.5004 0.5004 0.8658 -28.8571 202.9445)" class="st27" cx="363.91" cy="155.27" rx="3.57" ry="2"/>
		
			<ellipse transform="matrix(0.8658 -0.5004 0.5004 0.8658 -28.0535 210.9938)" class="st27" cx="379.32" cy="157.8" rx="3.57" ry="2"/>
		
			<ellipse transform="matrix(0.8658 -0.5004 0.5004 0.8658 -25.5388 201.3053)" class="st27" cx="362.52" cy="148.26" rx="0.81" ry="0.46"/>
		
			<ellipse transform="matrix(0.8658 -0.5004 0.5004 0.8658 -24.313 209.9906)" class="st27" cx="379.32" cy="150.32" rx="0.81" ry="0.46"/>
	</g>
	<circle class="st18" cx="149.26" cy="117.05" r="1.96"/>
	<circle class="st13" cx="139.95" cy="86.79" r="1.96"/>
	<circle class="st28" cx="191.91" cy="42.33" r="1.47"/>
	<circle class="st13" cx="241.71" cy="14.27" r="0.98"/>
	<circle class="st28" cx="194.68" cy="83.02" r="2.49"/>
	<circle class="st13" cx="157.24" cy="99.09" r="0.98"/>
	<circle class="st13" cx="128.98" cy="149.04" r="1.47"/>
	<circle class="st18" cx="194.4" cy="141.06" r="0.98"/>
	<circle class="st29" cx="98.9" cy="223.4" r="2.49"/>
	<circle class="st13" cx="55.67" cy="225.9" r="1.47"/>
	<circle class="st29" cx="50.69" cy="254.68" r="2.49"/>
	<circle class="st18" cx="70.08" cy="286.09" r="2.49"/>
	<circle class="st13" cx="93.15" cy="265.2" r="2.49"/>
	<circle class="st13" cx="122.9" cy="254.68" r="1.47"/>
	<circle class="st28" cx="152.26" cy="274.92" r="2.49"/>
	<circle class="st13" cx="154.75" cy="191.05" r="1.47"/>
	<circle class="st13" cx="207.37" cy="104.08" r="1.47"/>
	<circle class="st13" cx="157.24" cy="50.15" r="0.98"/>
	<circle class="st28" cx="101.39" cy="70.77" r="2.49"/>
	<circle class="st13" cx="322.1" cy="47.66" r="1.96"/>
	<circle class="st18" cx="101.39" cy="114.56" r="1.47"/>
	<circle class="st29" cx="75.06" cy="150.93" r="2.49"/>
	<circle class="st13" cx="106" cy="173.68" r="1.96"/>
	<circle class="st18" cx="88.17" cy="193.54" r="1.96"/>
	<circle class="st13" cx="161.54" cy="160.23" r="1.47"/>
	<circle class="st13" cx="166.15" cy="219.35" r="1.96"/>
	<circle class="st28" cx="180.28" cy="252.19" r="1.47"/>
	<circle class="st29" cx="189.42" cy="216.86" r="2.49"/>
	<circle class="st13" cx="193.79" cy="176.17" r="0.98"/>
	<circle class="st13" cx="338.68" cy="203.39" r="0.49"/>
	<circle class="st13" cx="320.02" cy="237.97" r="0.98"/>
	<circle class="st28" cx="343.66" cy="262.41" r="2.49"/>
	<circle class="st13" cx="369.19" cy="245.33" r="0.98"/>
	<circle class="st13" cx="385.49" cy="205.05" r="1.96"/>
	<circle class="st13" cx="401.67" cy="241.71" r="1.96"/>
	<circle class="st28" cx="396.11" cy="269.93" r="2.49"/>
	<circle class="st13" cx="418.73" cy="290.71" r="1.96"/>
	<circle class="st18" cx="433.69" cy="280.02" r="0.98"/>
	<circle class="st13" cx="436.18" cy="235.18" r="0.98"/>
	<circle class="st18" cx="460.99" cy="225.05" r="1.96"/>
	<circle class="st28" cx="465.97" cy="192.86" r="2.49"/>
	<circle class="st13" cx="438.68" cy="176.17" r="1.47"/>
	<circle class="st18" cx="411.39" cy="176.17" r="1.47"/>
	<circle class="st13" cx="421.22" cy="145.35" r="0.98"/>
	<circle class="st13" cx="428.59" cy="111.53" r="0.98"/>
	<circle class="st29" cx="386.69" cy="77.36" r="2.49"/>
	<circle class="st28" cx="350.66" cy="83.02" r="2.49"/>
	<circle class="st13" cx="331.86" cy="111.53" r="1.47"/>
	<circle class="st29" cx="329.37" cy="137.13" r="2.49"/>
	<circle class="st13" cx="148.32" cy="239.21" r="0.49"/>
</g>
</svg>
