<?xml version="1.0" encoding="UTF-8"?>
<svg width="325px" height="74px" viewBox="0 0 325 74" version="1.1" xmlns="http://www.w3.org/2000/svg"
>
    <!-- Generator: Sketch 57.1 (83088) - https://sketch.com -->
    <title>Group 2@3x</title>
    <desc>Created with Sketch.</desc>
    <g id="Page-1" stroke="none" stroke-width="1" fill="none" fill-rule="evenodd">
        <g id="Artboard-Copy-4" transform="translate(-138.000000, -185.000000)">
            <g id="Group-2" transform="translate(133.000000, 180.000000)">
                <g id="Group">
                    <rect id="Rectangle" fill-opacity="0.5" fill="#39BA8B" x="9" y="9" width="66" height="66"
                          rx="16"></rect>
                    <rect id="Rectangle" fill="#39BA8B"
                          transform="translate(42.000000, 42.000000) rotate(-20.000000) translate(-42.000000, -42.000000) "
                          x="10" y="10" width="64" height="64" rx="16"></rect>
                    <path
                        d="M41.9601438,39.2132598 C42.9136206,38.3045423 43.9061533,37.4845419 44.9398647,36.7524138 C45.971878,36.0211306 47.0251174,35.4284152 48.0978848,34.9734227 C49.1702277,34.5192751 50.6008673,34.0541435 52.7756942,34.6768538 C55.4786266,35.4512282 55.1678764,38.5411214 55.0095297,38.9762582 C54.0161479,41.6652342 53.1030008,43.9279452 52.2688148,45.7656586 C51.4346288,47.6037944 50.6989319,49.2450626 50.0642713,50.6877732 C49.4283372,52.1313288 48.9112692,53.5144721 48.5147656,54.8388932 C48.1174128,56.1637366 47.8593034,57.6550305 47.7400127,59.3153095 C47.7400127,59.4340215 47.7595407,59.5734343 47.7998703,59.7305905 C47.8389263,59.889014 47.9285005,60.0271594 48.0681683,60.145449 C48.206987,60.2645835 48.4154274,60.3237283 48.6934894,60.3237283 C48.9711269,60.3237283 49.32815,60.2252945 49.7662568,60.0271594 C50.9179854,59.4737331 52.2989558,58.5058707 53.9074702,57.1214599 C54.7119396,56.4298882 55.1589615,56.7708158 55.2633939,57.432815 C55.3674018,58.0952368 55.1292449,59.0783078 54.5629324,59.6714457 C53.4307319,60.8572989 52.2289097,61.8758568 50.9578904,62.7254296 C49.6860221,63.5758473 48.4553325,64 47.2632743,64 C46.5874351,64 45.9226334,63.8817104 45.2671713,63.6442863 C44.6117091,63.4072846 44.0458211,63.0511484 43.5690827,62.5771451 C43.0923444,62.1027194 42.7140952,61.4901482 42.4368822,60.7390093 C42.1583957,59.9887153 42.0395295,59.098586 42.0794346,58.0703115 C42.1184906,57.0428818 42.2577339,56.0243239 42.4967398,55.0163276 C42.7344722,54.0083312 43.0418262,52.9411901 43.4196509,51.8144816 C43.7970511,50.6877732 44.2636009,49.462631 44.8201495,48.1377875 C45.3762734,46.8133665 45.991406,45.3415059 46.6676698,43.719671 C47.104503,42.6926638 47.4419981,41.7539514 47.6810041,40.9035337 C47.9187365,40.0535384 47.9577925,39.4312507 47.7998703,39.035403 C47.6406745,38.6408227 47.2229447,38.5711163 46.548379,38.8279737 C45.8725398,39.0852536 44.8396775,39.8063977 43.449792,40.9918284 C41.9397668,42.3766616 40.5893619,43.6812269 39.3977283,44.9063692 C39.3862662,44.9181981 39.373955,44.930872 39.3620684,44.9431234 C36.7423423,47.6435059 34.8158609,50.9336466 33.6560664,54.5051475 C33.4862576,55.0290014 33.3245146,55.5553901 33.1708376,56.0838912 C32.4754704,58.4762983 32.0284486,60.9760109 31.8301967,63.5851415 C31.8301967,63.8622771 31.6111433,63.9412777 31.1747346,63.8221431 C30.7370522,63.7038535 30.2509744,63.4960018 29.714803,63.1998554 C29.1786315,62.9032864 28.6917046,62.5577118 28.2548713,62.1622866 C27.8180381,61.7672839 27.5798812,61.4115701 27.5399761,61.0943005 C27.6588423,58.6837275 28.065959,56.2524538 28.7613262,53.8004795 C29.4558445,51.350195 30.33036,48.8787873 31.3831749,46.3883688 C32.4351408,43.8979503 33.5775298,41.4172485 34.8094931,38.9462633 C35.6126889,37.3345676 36.4044227,35.7283638 37.1914867,34.1246948 L26.3254183,38.32989 L26.2226839,38.0666957 C25.5697689,36.3967 26.4014077,34.5158954 28.0795437,33.86657 L39.4490954,29.466197 C39.7747039,28.7746253 40.0952181,28.0800964 40.4110626,27.3834552 C41.0461477,25.9804561 41.6519408,24.6061844 42.2284418,23.2619077 C42.8036693,21.9184758 43.3101242,20.6333438 43.7478065,19.4077791 C44.1842153,18.1826368 44.5420875,17.055506 44.8201495,16.0272314 C45.2170776,15.8303637 47.0340324,16.7487979 47.6300614,17.2430795 C48.2260905,17.7377835 48.7024043,18.3207822 49.060701,18.9924981 C49.4177241,19.665059 49.4775818,20.3173416 49.2390003,20.949346 C49.0798045,21.4237718 48.7716015,22.1453383 48.3156647,23.1140457 C47.8584543,24.082753 47.3320469,25.1794665 46.7364424,26.4046088 C46.6888959,26.5026202 46.6383777,26.6040112 46.5895577,26.7028675 L55.6747558,23.1867093 L55.7774902,23.4503261 C56.4299807,25.1203217 55.5987664,27.0007039 53.9206304,27.6500292 L44.1833663,31.4183978 C43.6849773,32.3790784 43.200173,33.3228604 42.7438117,34.2320004 L39.2788621,42.0006697 C40.1126235,41.0518181 41.0066671,40.1232448 41.9601438,39.2132598"
                        id="Fill-13" fill="#FEFEFE"></path>
                </g>
                <path
                    d="M94.604474,54 C94.0618752,54 93.7001427,53.6382675 93.7001427,53.0594955 L93.7001427,31.0299862 C93.7001427,30.4873875 94.0618752,30.125655 94.604474,30.125655 L100.717753,30.125655 C101.260352,30.125655 101.622084,30.3788677 101.983817,30.9214665 C102.454069,31.572585 105.854355,37.6858642 107.988576,43.1118517 C110.014278,37.6858642 113.414564,31.572585 113.884816,30.9214665 C114.246549,30.3788677 114.644454,30.125655 115.187053,30.125655 L121.264159,30.125655 C121.806758,30.125655 122.204664,30.4873875 122.204664,31.0299862 L122.204664,53.0594955 C122.204664,53.6382675 121.806758,54 121.264159,54 L117.502141,54 C116.923369,54 116.561637,53.6382675 116.561637,53.0594955 L116.561637,36.7453597 C114.355068,39.7839127 111.678248,45.607806 110.484531,50.3103285 C110.376011,50.672061 110.014278,50.961447 109.652546,50.961447 L105.673488,50.961447 C105.311756,50.961447 104.950023,50.672061 104.841504,50.3103285 C103.46692,44.884341 100.7901,39.8924325 98.7643977,37.0347457 L98.7643977,53.0594955 C98.7643977,53.6382675 98.4026652,54 97.8238932,54 L94.604474,54 Z M134.467395,61.9219417 C132.079961,61.9219417 130.415991,61.4878627 128.752022,60.5473582 C128.28177,60.366492 128.17325,59.8962397 128.390289,59.4259875 L129.40314,57.038553 C129.584007,56.4959542 130.126605,56.315088 130.669204,56.5683007 C131.971441,57.1470727 132.803426,57.327939 133.707757,57.327939 C136.74631,57.327939 138.08472,55.3745835 137.686815,52.4445502 C136.782483,53.5297477 135.19086,54.3617325 133.165158,54.3617325 C129.40314,54.3617325 125.604949,51.8657782 125.604949,45.6801525 L125.604949,37.8667305 C125.604949,37.2879585 125.966682,36.926226 126.50928,36.926226 L130.090432,36.926226 C130.633031,36.926226 130.994763,37.2879585 130.994763,37.8667305 L130.994763,45.8610187 C130.994763,48.356973 132.079961,49.7677297 134.178009,49.7677297 C135.733459,49.7677297 137.180389,49.0080915 137.759161,47.344122 L137.759161,37.8667305 C137.759161,37.2879585 138.120894,36.926226 138.699666,36.926226 L142.136124,36.926226 C142.678723,36.926226 143.040456,37.2879585 143.040456,37.8667305 L143.040456,52.4445502 C143.040456,59.5345072 139.64017,61.9219417 134.467395,61.9219417 Z M166.697761,30.125655 C167.24036,30.125655 167.602092,30.4873875 167.602092,31.0299862 L167.602092,53.0594955 C167.602092,53.6382675 167.24036,54 166.697761,54 L162.89957,54 C162.356971,54 161.995239,53.6382675 161.995239,53.0594955 L161.995239,46.2950977 L152.047595,46.2950977 L152.047595,53.0594955 C152.047595,53.6382675 151.685862,54 151.143264,54 L147.345072,54 C146.802474,54 146.440741,53.6382675 146.440741,53.0594955 L146.440741,31.0299862 C146.440741,30.4873875 146.802474,30.125655 147.345072,30.125655 L151.143264,30.125655 C151.685862,30.125655 152.047595,30.4873875 152.047595,31.0299862 L152.047595,41.2308427 L161.995239,41.2308427 L161.995239,31.0299862 C161.995239,30.4873875 162.356971,30.125655 162.89957,30.125655 L166.697761,30.125655 Z M181.311754,54.3617325 C179.539265,54.3617325 177.224177,53.6382675 175.958113,51.684912 L175.958113,53.0594955 C175.958113,53.6382675 175.596381,54 175.053782,54 L171.906709,54 C171.36411,54 171.002378,53.6382675 171.002378,53.0594955 L171.002378,29.5830562 C171.002378,29.0404575 171.36411,28.678725 171.906709,28.678725 L175.415514,28.678725 C175.958113,28.678725 176.319846,29.0404575 176.319846,29.5830562 L176.319846,37.7582107 C177.549736,37.1070922 179.358399,36.5644935 181.203234,36.5644935 C185.001426,36.5644935 188.871963,39.4221802 188.871963,45.0652072 C188.871963,50.3103285 185.83341,54.3617325 181.311754,54.3617325 Z M180.37125,49.7677297 C182.216085,49.7677297 183.699189,48.1037602 183.699189,45.607806 C183.699189,42.8224657 182.035219,41.3031892 180.009517,41.3031892 C178.92432,41.3031892 177.26035,41.8096147 176.319846,42.4969065 C175.596381,46.6568302 177.079484,49.7677297 180.37125,49.7677297 Z M198.891954,54.3617325 C195.129936,54.3617325 191.259398,51.3231795 191.259398,45.6801525 C191.259398,39.8924325 195.491668,36.5644935 200.845309,36.5644935 C203.594476,36.5644935 206.09043,37.5411712 207.465014,38.3369827 C208.405518,38.8795815 208.767251,39.5307 208.767251,40.7244172 L208.767251,53.0594955 C208.767251,53.6382675 208.405518,54 207.86292,54 L204.86054,54 C204.317941,54 203.920035,53.6382675 203.920035,53.0594955 L203.920035,51.8657782 C203.088051,53.276535 201.207042,54.3617325 198.891954,54.3617325 Z M200.158017,49.7677297 C203.088051,49.7677297 204.390288,46.6568302 203.739169,42.2075205 C203.015704,41.7372682 201.96668,41.3031892 200.51975,41.3031892 C198.494048,41.3031892 196.576866,43.003332 196.576866,45.752499 C196.576866,48.2484532 198.313182,49.7677297 200.158017,49.7677297 Z M213.071868,54 C212.529269,54 212.167536,53.6382675 212.167536,53.0594955 L212.167536,37.8667305 C212.167536,37.2879585 212.529269,36.926226 213.071868,36.926226 L215.857208,36.926226 C216.399807,36.926226 216.761539,37.2879585 216.761539,37.8667305 L216.761539,38.7710617 C218.172296,37.4688247 220.125651,36.926226 221.970487,36.926226 C222.730125,36.926226 223.598283,36.9985725 224.321748,37.2879585 C224.864347,37.5411712 225.153733,37.939077 224.972867,38.4816757 L223.960016,41.4478822 C223.742976,42.0990007 223.236551,42.0628275 222.766299,41.990481 C222.187527,41.9181345 221.681101,41.8096147 220.957636,41.8096147 C219.872439,41.8096147 218.063776,42.569253 217.485004,43.7629702 L217.485004,53.0594955 C217.485004,53.6382675 217.123272,54 216.5445,54 L213.071868,54 Z M236.620653,54.4702522 C229.494523,54.4702522 226.817703,40.7244172 226.817703,31.3917187 C226.817703,30.3788677 227.070915,30.125655 227.722034,30.125655 L231.592572,30.125655 C232.062824,30.125655 232.533076,30.1980015 232.533076,30.9214665 C232.533076,39.3498337 235.426936,49.0080915 236.837693,49.0080915 C237.633504,49.0080915 238.863395,44.9566875 241.14231,31.3193722 C241.250829,30.84912 241.612562,30.6682537 241.974294,30.6682537 L246.061872,30.6682537 C246.423604,30.6682537 246.785337,30.84912 246.857683,31.3193722 C248.919558,44.9566875 250.836741,49.1889577 251.668725,49.1889577 C253.911467,49.1889577 255.61161,39.3498337 255.61161,30.9214665 C255.61161,30.1980015 256.081862,30.125655 256.552114,30.125655 L260.133266,30.125655 C260.748211,30.125655 261.037597,30.3788677 261.037597,31.3917187 C261.037597,40.7244172 258.541643,54.4702522 251.379339,54.4702522 C248.449306,54.4702522 244.940501,52.8062827 243.638264,42.279867 C242.082814,52.3360305 239.58686,54.4702522 236.620653,54.4702522 Z M269.827697,54.3617325 C266.065679,54.3617325 262.195141,51.3231795 262.195141,45.6801525 C262.195141,39.8924325 266.427411,36.5644935 271.781052,36.5644935 C274.530219,36.5644935 277.026174,37.5411712 278.400757,38.3369827 C279.341262,38.8795815 279.702994,39.5307 279.702994,40.7244172 L279.702994,53.0594955 C279.702994,53.6382675 279.341262,54 278.798663,54 L275.796283,54 C275.253684,54 274.855779,53.6382675 274.855779,53.0594955 L274.855779,51.8657782 C274.023794,53.276535 272.142785,54.3617325 269.827697,54.3617325 Z M271.093761,49.7677297 C274.023794,49.7677297 275.326031,46.6568302 274.674912,42.2075205 C273.951447,41.7372682 272.902423,41.3031892 271.455493,41.3031892 C269.429791,41.3031892 267.512609,43.003332 267.512609,45.752499 C267.512609,48.2484532 269.248925,49.7677297 271.093761,49.7677297 Z M284.007611,54 C283.465012,54 283.10328,53.6382675 283.10328,53.0594955 L283.10328,29.5830562 C283.10328,29.0404575 283.465012,28.678725 284.007611,28.678725 L287.516416,28.678725 C288.059015,28.678725 288.420747,29.0404575 288.420747,29.5830562 L288.420747,53.0594955 C288.420747,53.6382675 288.059015,54 287.516416,54 L284.007611,54 Z M292.725364,54 C292.182765,54 291.821033,53.6382675 291.821033,53.0594955 L291.821033,29.5830562 C291.821033,29.0404575 292.182765,28.678725 292.725364,28.678725 L296.234169,28.678725 C296.776768,28.678725 297.138501,29.0404575 297.138501,29.5830562 L297.138501,53.0594955 C297.138501,53.6382675 296.776768,54 296.234169,54 L292.725364,54 Z M314.284621,49.5868635 L315.297472,51.974298 C315.405992,52.2275107 315.405992,52.697763 315.044259,52.8786292 C313.416463,53.710614 311.282241,54.3617325 309.111846,54.3617325 C303.432646,54.3617325 300.032361,50.816754 300.032361,45.752499 C300.032361,40.543551 303.215607,36.5283202 309.111846,36.5283202 C313.416463,36.5283202 316.129457,39.2051407 316.129457,42.2436937 C316.129457,46.2589245 313.090904,47.9952405 309.220366,47.9952405 C307.809609,47.9952405 306.326506,47.5973347 305.060442,46.9823895 C305.639214,48.646359 307.303184,49.948596 309.582099,49.948596 C311.029029,49.948596 311.82484,49.7315565 313.38029,49.1166112 C313.814369,48.935745 314.103755,49.1166112 314.284621,49.5868635 Z M309.292713,40.9414567 C307.737263,40.9414567 305.783907,41.8096147 305.132789,44.016183 C306.181813,44.450262 307.267011,44.7034747 308.677767,44.7034747 C310.450257,44.7034747 311.607801,43.9076632 311.607801,42.8224657 C311.607801,41.990481 310.884336,40.9414567 309.292713,40.9414567 Z M328.717748,37.8667305 C329.260347,37.8667305 329.622079,38.228463 329.622079,38.7710617 L329.622079,41.701095 C329.622079,42.2436937 329.260347,42.6054262 328.717748,42.6054262 L324.413131,42.6054262 L324.376958,44.2332225 C324.304611,48.4654927 325.823888,49.5868635 328.138976,49.948596 C328.790094,50.0571157 329.007134,50.5997145 328.898614,51.1423132 L328.319842,53.6382675 C328.211322,54.0723465 327.885763,54.3617325 327.415511,54.3617325 C320.759633,54.3617325 318.878624,50.0209425 319.023317,43.4012377 L319.204183,34.611138 C319.204183,34.0685392 319.457396,33.5259405 320.108514,33.3450742 L323.255587,32.4045697 C323.798186,32.2598767 324.557824,32.5130895 324.557824,33.2365545 L324.485478,37.8667305 L328.717748,37.8667305 Z"
                    id="MyHbarWallet" fill="#231F20" fill-rule="nonzero"></path>
            </g>
        </g>
    </g>
</svg>
