<svg width="229" height="50" xmlns="http://www.w3.org/2000/svg"><g fill="none" fill-rule="evenodd"><rect fill="#9CDCC5" x="5.357" y="5.357" width="39.286" height="39.286" rx="9.524"/><rect fill="#39BA8B" transform="rotate(-20 25 25)" x="5.952" y="5.952" width="38.095" height="38.095" rx="9.524"/><path d="M24.976 23.341a15.844 15.844 0 0 1 1.774-1.465 10.023 10.023 0 0 1 1.88-1.058c.638-.27 1.49-.548 2.784-.177 1.609.46 1.424 2.3 1.33 2.56-.592 1.6-1.135 2.947-1.632 4.04a280.991 280.991 0 0 0-1.312 2.93c-.378.86-.686 1.683-.922 2.471-.237.789-.39 1.676-.461 2.665 0 .07.011.153.035.247a.467.467 0 0 0 .16.247c.083.07.207.106.372.106s.378-.059.639-.177c.685-.329 1.507-.905 2.465-1.73.479-.41.745-.208.807.186.062.394-.08.98-.417 1.333a12.824 12.824 0 0 1-2.146 1.818c-.757.506-1.49.758-2.2.758-.401 0-.797-.07-1.187-.211a2.731 2.731 0 0 1-1.011-.636 2.965 2.965 0 0 1-.674-1.094c-.166-.446-.236-.976-.213-1.588a9.413 9.413 0 0 1 .249-1.818c.141-.6.324-1.235.549-1.906.225-.67.502-1.4.834-2.189l1.1-2.63c.26-.61.46-1.17.603-1.676.141-.506.164-.876.07-1.112-.094-.235-.343-.276-.745-.123-.402.153-1.017.582-1.844 1.288-.899.824-1.703 1.6-2.412 2.33l-.021.022c-1.56 1.607-2.706 3.566-3.397 5.692-.1.311-.197.625-.288.94a21.897 21.897 0 0 0-.798 4.464c0 .165-.13.212-.39.141a3.99 3.99 0 0 1-.87-.37 4.623 4.623 0 0 1-.869-.618c-.26-.235-.401-.446-.425-.635.07-1.435.313-2.882.727-4.342.413-1.458.934-2.93 1.56-4.412a77.617 77.617 0 0 1 2.04-4.43c.478-.959.95-1.915 1.418-2.87l-6.468 2.503-.061-.156a1.928 1.928 0 0 1 1.105-2.5l6.768-2.62a128.076 128.076 0 0 0 1.654-3.693c.342-.8.644-1.564.904-2.294.26-.729.473-1.4.639-2.012.236-.117 1.317.43 1.672.724s.639.641.852 1.041c.212.4.248.789.106 1.165-.095.282-.278.712-.55 1.288-.272.577-.585 1.23-.94 1.959l-.087.178 5.408-2.093.06.157a1.928 1.928 0 0 1-1.104 2.5L26.3 18.7a142.15 142.15 0 0 0-.857 1.675L23.38 25a26.224 26.224 0 0 1 1.596-1.659" fill="#FEFEFE"/><path d="M60.646 33.571c-.388 0-.646-.258-.646-.671V17.164c0-.387.258-.646.646-.646h4.367c.387 0 .646.181.904.569.336.465 2.765 4.831 4.289 8.707 1.447-3.876 3.876-8.242 4.212-8.707.258-.388.542-.569.93-.569h4.34c.388 0 .672.259.672.646V32.9c0 .413-.284.671-.671.671H77c-.413 0-.671-.258-.671-.671V21.247c-1.576 2.17-3.488 6.33-4.341 9.689-.078.258-.336.465-.594.465h-2.843c-.258 0-.516-.207-.594-.465-.982-3.876-2.894-7.441-4.34-9.483V32.9c0 .413-.26.671-.672.671h-2.3zm28.473 5.659c-1.705 0-2.893-.31-4.082-.982-.336-.13-.413-.465-.258-.8l.723-1.706c.13-.388.517-.517.904-.336.93.413 1.525.543 2.17.543 2.171 0 3.127-1.396 2.843-3.489-.646.776-1.783 1.37-3.23 1.37-2.687 0-5.4-1.783-5.4-6.201v-5.581c0-.414.259-.672.646-.672h2.558c.388 0 .646.258.646.672v5.71c0 1.783.775 2.79 2.274 2.79 1.11 0 2.144-.542 2.558-1.73v-6.77c0-.414.258-.672.672-.672h2.454c.388 0 .646.258.646.672V32.46c0 5.065-2.429 6.77-6.124 6.77zm23.022-22.712c.388 0 .646.259.646.646V32.9c0 .413-.258.671-.646.671h-2.713c-.387 0-.646-.258-.646-.671v-4.832h-7.105V32.9c0 .413-.259.671-.646.671h-2.713c-.388 0-.646-.258-.646-.671V17.164c0-.387.258-.646.646-.646h2.713c.387 0 .646.259.646.646v7.287h7.105v-7.287c0-.387.259-.646.646-.646h2.713zM122.58 33.83c-1.266 0-2.92-.517-3.824-1.912v.982c0 .413-.259.671-.646.671h-2.248c-.388 0-.646-.258-.646-.671V16.13c0-.387.258-.645.646-.645h2.506c.388 0 .646.258.646.646v5.84a7.789 7.789 0 0 1 3.488-.854c2.713 0 5.478 2.042 5.478 6.072 0 3.747-2.17 6.64-5.4 6.64zm-.672-3.282c1.318 0 2.377-1.188 2.377-2.971 0-1.99-1.189-3.075-2.635-3.075-.776 0-1.964.362-2.636.853-.517 2.971.543 5.193 2.894 5.193zm13.229 3.282c-2.687 0-5.452-2.17-5.452-6.201 0-4.134 3.023-6.512 6.847-6.512 1.964 0 3.747.698 4.729 1.267.671.387.93.852.93 1.705v8.81c0 .414-.259.672-.646.672H139.4c-.387 0-.672-.258-.672-.671v-.853c-.594 1.008-1.937 1.783-3.591 1.783zm.904-3.282c2.093 0 3.023-2.222 2.558-5.4-.516-.336-1.266-.646-2.3-.646-1.446 0-2.816 1.215-2.816 3.178 0 1.783 1.24 2.868 2.558 2.868zm9.225 3.023c-.388 0-.646-.258-.646-.671V22.048c0-.414.258-.672.646-.672h1.989c.388 0 .646.258.646.672v.646c1.008-.93 2.403-1.318 3.72-1.318.543 0 1.163.052 1.68.258.388.181.594.465.465.853l-.723 2.119c-.155.465-.517.439-.853.387-.413-.051-.775-.129-1.292-.129-.775 0-2.067.543-2.48 1.395v6.64c0 .414-.259.672-.672.672h-2.48zm16.82.336c-5.09 0-7.002-9.818-7.002-16.484 0-.724.18-.905.646-.905h2.765c.335 0 .671.052.671.569 0 6.02 2.067 12.919 3.075 12.919.569 0 1.447-2.894 3.075-12.635.077-.336.336-.465.594-.465h2.92c.258 0 .517.13.568.465 1.473 9.74 2.842 12.764 3.437 12.764 1.602 0 2.816-7.028 2.816-13.048 0-.517.336-.569.672-.569h2.558c.439 0 .646.181.646.905 0 6.666-1.783 16.484-6.899 16.484-2.093 0-4.6-1.188-5.53-8.707-1.11 7.183-2.893 8.707-5.012 8.707zm23.72-.077c-2.688 0-5.452-2.17-5.452-6.201 0-4.134 3.023-6.512 6.847-6.512 1.963 0 3.746.698 4.728 1.267.672.387.93.852.93 1.705v8.81c0 .414-.258.672-.646.672h-2.144c-.388 0-.672-.258-.672-.671v-.853c-.594 1.008-1.938 1.783-3.592 1.783zm.904-3.282c2.093 0 3.023-2.222 2.558-5.4-.517-.336-1.266-.646-2.3-.646-1.447 0-2.816 1.215-2.816 3.178 0 1.783 1.24 2.868 2.558 2.868zm9.224 3.023c-.388 0-.646-.258-.646-.671V16.13c0-.387.258-.645.646-.645h2.506c.388 0 .646.258.646.646V32.9c0 .413-.258.671-.646.671h-2.506zm6.227 0c-.388 0-.646-.258-.646-.671V16.13c0-.387.258-.645.646-.645h2.506c.388 0 .646.258.646.646V32.9c0 .413-.258.671-.646.671h-2.506zm15.4-3.152.723 1.705c.077.181.077.517-.181.646-1.163.595-2.687 1.06-4.237 1.06-4.057 0-6.486-2.532-6.486-6.15 0-3.72 2.274-6.588 6.486-6.588 3.074 0 5.012 1.912 5.012 4.082 0 2.868-2.17 4.108-4.935 4.108-1.008 0-2.067-.284-2.971-.723.413 1.188 1.602 2.119 3.23 2.119 1.033 0 1.601-.155 2.712-.595.31-.129.517 0 .646.336zm-3.566-6.175c-1.111 0-2.507.62-2.972 2.196.75.31 1.525.491 2.532.491 1.267 0 2.093-.568 2.093-1.344 0-.594-.516-1.343-1.653-1.343zm13.875-2.196c.387 0 .646.258.646.646v2.092c0 .388-.259.646-.646.646h-3.075l-.026 1.163c-.052 3.023 1.034 3.824 2.687 4.083.465.077.62.465.543.852l-.413 1.783c-.078.31-.31.517-.646.517-4.755 0-6.098-3.1-5.995-7.83l.13-6.278c0-.387.18-.775.645-.904l2.248-.672c.388-.103.93.078.93.594l-.051 3.308h3.023z" fill="#231F20" fill-rule="nonzero"/></g></svg>