<svg width="74" height="74" xmlns="http://www.w3.org/2000/svg"><g transform="translate(-5 -5)" fill="none" fill-rule="evenodd"><rect fill-opacity=".5" fill="#39BA8B" x="9" y="9" width="66" height="66" rx="16"/><rect fill="#39BA8B" transform="rotate(-20 42 42)" x="10" y="10" width="64" height="64" rx="16"/><path d="M41.96 39.213a26.618 26.618 0 0 1 2.98-2.46 16.838 16.838 0 0 1 3.158-1.78c1.072-.454 2.503-.919 4.678-.296 2.703.774 2.392 3.864 2.234 4.3-.994 2.688-1.907 4.95-2.741 6.789a472.06 472.06 0 0 0-2.205 4.922 35.824 35.824 0 0 0-1.55 4.15c-.397 1.326-.655 2.817-.774 4.477 0 .119.02.258.06.416a.786.786 0 0 0 .268.414c.139.12.347.179.625.179s.635-.099 1.073-.297c1.152-.553 2.533-1.521 4.141-2.906.805-.691 1.252-.35 1.356.312.104.662-.134 1.645-.7 2.238a21.545 21.545 0 0 1-3.605 3.054c-1.272.85-2.503 1.275-3.695 1.275-.676 0-1.34-.118-1.996-.356a4.588 4.588 0 0 1-1.698-1.067c-.477-.474-.855-1.087-1.132-1.838-.279-.75-.397-1.64-.358-2.669.04-1.027.179-2.046.418-3.054.237-1.008.545-2.075.923-3.202a53.155 53.155 0 0 1 1.4-3.676 1954.14 1954.14 0 0 0 1.848-4.418 23.574 23.574 0 0 0 1.013-2.816c.238-.85.277-1.473.119-1.869-.16-.394-.577-.464-1.252-.207s-1.708.978-3.098 2.164a99.292 99.292 0 0 0-4.052 3.914l-.036.037c-2.62 2.7-4.546 5.99-5.706 9.562a54.26 54.26 0 0 0-.485 1.579 36.787 36.787 0 0 0-1.34 7.501c0 .277-.22.356-.656.237-.438-.118-.924-.326-1.46-.622a7.767 7.767 0 0 1-1.46-1.038c-.437-.395-.675-.75-.715-1.068.119-2.41.526-4.842 1.221-7.294a63.562 63.562 0 0 1 2.622-7.412 130.397 130.397 0 0 1 3.426-7.442 883.807 883.807 0 0 0 2.382-4.821L26.325 38.33l-.102-.263a3.24 3.24 0 0 1 1.857-4.2l11.37-4.4c.325-.692.645-1.387.961-2.084.635-1.403 1.24-2.777 1.817-4.121a67.476 67.476 0 0 0 1.52-3.854 45.77 45.77 0 0 0 1.072-3.38c.397-.198 2.214.72 2.81 1.215a5.805 5.805 0 0 1 1.43 1.75c.358.672.418 1.324.179 1.956-.16.475-.467 1.196-.923 2.165-.458.969-.984 2.065-1.58 3.29-.047.099-.098.2-.146.299l9.085-3.516.102.263a3.24 3.24 0 0 1-1.856 4.2l-9.738 3.768c-.498.961-.983 1.905-1.44 2.814l-3.464 7.769a44.056 44.056 0 0 1 2.681-2.788" fill="#FEFEFE"/></g></svg>