<svg width="60" height="60" viewBox="0 0 60 60" fill="none" xmlns="http://www.w3.org/2000/svg">
<path d="M60 30C60 46.5688 46.5688 60 30 60C13.4312 60 0 46.5688 0 30C0 13.4312 13.4312 0 30 0C46.5688 0 60 13.4312 60 30Z" fill="url(#paint0_linear_157_964)"/>
<path d="M46.0938 32.4234V27.5766C48.4522 26.8291 50.1666 24.6199 50.1666 22.0175C50.1666 18.8026 47.5509 16.187 44.336 16.187C42.6689 16.187 41.1642 16.891 40.1003 18.0167L35.7731 15.6569C35.8097 15.3928 35.8303 15.1236 35.8303 14.8494C35.8303 11.6341 33.2147 9.01886 29.9998 9.01886C26.7849 9.01886 24.1693 11.6341 24.1693 14.8494C24.1693 15.1222 24.1894 15.39 24.226 15.6532L19.8873 18.0043C18.8244 16.886 17.3248 16.1865 15.6635 16.1865C12.4487 16.1865 9.83301 18.8022 9.83301 22.0175C9.83301 24.5595 11.4691 26.7256 13.7428 27.5212V32.4783C11.4691 33.2744 9.83301 35.4405 9.83301 37.9825C9.83301 41.1974 12.4487 43.813 15.6635 43.813C17.3225 43.813 18.8203 43.1158 19.8828 42.0003L24.2219 44.377C24.1885 44.6301 24.1693 44.8883 24.1693 45.1506C24.1693 48.3659 26.7849 50.9811 29.9998 50.9811C33.2147 50.9811 35.8303 48.3659 35.8303 45.1506C35.8303 44.8723 35.8093 44.5985 35.7717 44.3303L40.0619 41.9426C41.1271 43.092 42.6487 43.813 44.336 43.813C47.5509 43.813 50.1666 41.1978 50.1666 37.9825C50.1666 35.3801 48.4522 33.1709 46.0938 32.4234ZM40.5668 33.5394L33.748 29.9185L40.4501 26.3599C41.0584 26.9051 41.7812 27.3244 42.5782 27.5766V32.4234C41.8316 32.6601 41.15 33.0437 40.5668 33.5394ZM19.4328 33.5394C18.8075 33.008 18.0686 32.6065 17.2589 32.3758V27.6247C18.1194 27.3793 18.8999 26.9417 19.5495 26.3599L26.2516 29.9185L19.4328 33.5394ZM44.336 19.7026C45.6123 19.7026 46.6509 20.7408 46.6509 22.0175C46.6509 23.2938 45.6123 24.3324 44.336 24.3324C43.0593 24.3324 42.0211 23.2938 42.0211 22.0175C42.0211 20.7408 43.0593 19.7026 44.336 19.7026ZM38.5659 21.1839C38.5266 21.4563 38.5055 21.7346 38.5055 22.0175C38.5055 22.4693 38.5586 22.9088 38.6566 23.3318L31.7576 26.9948V20.4085C32.7216 20.1031 33.5768 19.5529 34.2524 18.8319L38.5659 21.1839ZM29.9998 12.5345C31.2765 12.5345 32.3147 13.5727 32.3147 14.8494C32.3147 16.1256 31.2765 17.1643 29.9998 17.1643C28.7231 17.1643 27.6849 16.1256 27.6849 14.8494C27.6849 13.5727 28.7231 12.5345 29.9998 12.5345ZM25.744 18.8292C26.4201 19.5515 27.2766 20.1027 28.242 20.4085V26.9948L21.343 23.3318C21.441 22.9088 21.4945 22.4693 21.4945 22.0175C21.4945 21.7282 21.4721 21.4439 21.4314 21.1661L25.744 18.8292ZM15.6635 19.7026C16.9402 19.7026 17.9789 20.7408 17.9789 22.0175C17.9789 23.2938 16.9402 24.3324 15.6635 24.3324C14.3873 24.3324 13.3486 23.2938 13.3486 22.0175C13.3486 20.7408 14.3873 19.7026 15.6635 19.7026ZM15.6635 40.2974C14.3873 40.2974 13.3486 39.2592 13.3486 37.9825C13.3486 36.7062 14.3873 35.6676 15.6635 35.6676C16.9402 35.6676 17.9789 36.7062 17.9789 37.9825C17.9789 39.2592 16.9402 40.2974 15.6635 40.2974ZM21.4309 38.8399C21.4721 38.5602 21.4945 38.2741 21.4945 37.9825C21.4945 37.4789 21.43 36.9901 21.3091 36.5231L28.242 32.8423V39.5915C27.2674 39.9001 26.4036 40.4585 25.7247 41.1914L21.4309 38.8399ZM29.9998 47.4655C28.7231 47.4655 27.6849 46.4273 27.6849 45.1506C27.6849 43.8744 28.7231 42.8357 29.9998 42.8357C31.2765 42.8357 32.3147 43.8744 32.3147 45.1506C32.3147 46.4273 31.2765 47.4655 29.9998 47.4655ZM34.2428 41.1575C33.5685 40.4416 32.7171 39.8955 31.7576 39.5915V32.8423L38.6904 36.5231C38.5696 36.9901 38.5055 37.4789 38.5055 37.9825C38.5055 38.2448 38.5243 38.503 38.5581 38.7561L34.2428 41.1575ZM44.336 40.2974C43.0593 40.2974 42.0211 39.2592 42.0211 37.9825C42.0211 36.7062 43.0593 35.6676 44.336 35.6676C45.6123 35.6676 46.6509 36.7062 46.6509 37.9825C46.6509 39.2592 45.6123 40.2974 44.336 40.2974Z" fill="white"/>
<defs>
<linearGradient id="paint0_linear_157_964" x1="-10" y1="-2.5" x2="35.5" y2="57" gradientUnits="userSpaceOnUse">
<stop stop-color="#00F38D"/>
<stop offset="1" stop-color="#009EFF"/>
</linearGradient>
</defs>
</svg>
