<svg id="Layer_1" data-name="Layer 1" xmlns="http://www.w3.org/2000/svg" viewBox="0 0 80.03 77.97"><defs><style>.cls-1{fill:#39ba8b;}</style></defs><path class="cls-1" d="M89.48,48.75l.39-24-7.45,4.63a38.75,38.75,0,0,0-69.32,7,38.2,38.2,0,0,0-1.42,4.76L19.79,43a31,31,0,0,1,1.12-3.75,30.38,30.38,0,0,1,54.42-5.42l-7.52,4.68Z" transform="translate(-9.84 -11.02)"/><path class="cls-1" d="M10.22,51.27l-.38,24,7.44-4.63a38.75,38.75,0,0,0,69.33-7A40.54,40.54,0,0,0,88,58.89L79.91,57a29.81,29.81,0,0,1-1.12,3.75,30.4,30.4,0,0,1-54.42,5.42l7.53-4.68Z" transform="translate(-9.84 -11.02)"/></svg>