<?xml version="1.0" encoding="UTF-8" standalone="no"?>
<svg
    xmlns:dc="http://purl.org/dc/elements/1.1/"
    xmlns:cc="http://creativecommons.org/ns#"
    xmlns:rdf="http://www.w3.org/1999/02/22-rdf-syntax-ns#"
    xmlns:sodipodi="http://sodipodi.sourceforge.net/DTD/sodipodi-0.dtd"
    xmlns:inkscape="http://www.inkscape.org/namespaces/inkscape"
    xmlns="http://www.w3.org/2000/svg"
    width="57"
    height="57"
    version="1.1"
    id="svg8"
    sodipodi:docname="wallet-hbar.svg"
    inkscape:version="0.92.4 5da689c313, 2019-01-14">
    <metadata
        id="metadata14">
        <rdf:RDF>
            <cc:Work
                rdf:about="">
                <dc:format>image/svg+xml</dc:format>
                <dc:type
                    rdf:resource="http://purl.org/dc/dcmitype/StillImage"/>
                <dc:title/>
            </cc:Work>
        </rdf:RDF>
    </metadata>
    <defs
        id="defs12"/>
    <sodipodi:namedview
        pagecolor="#5a78f0"
        bordercolor="#666666"
        borderopacity="1"
        objecttolerance="10"
        gridtolerance="10"
        guidetolerance="10"
        inkscape:pageopacity="1"
        inkscape:pageshadow="2"
        inkscape:window-width="1276"
        inkscape:window-height="701"
        id="namedview10"
        showgrid="false"
        inkscape:pagecheckerboard="true"
        inkscape:zoom="8"
        inkscape:cx="13.085377"
        inkscape:cy="19.44219"
        inkscape:window-x="2"
        inkscape:window-y="737"
        inkscape:window-maximized="1"
        inkscape:current-layer="svg8"
        showguides="true"
        inkscape:guide-bbox="true"/>
    <g
        fill="#FFF"
        id="g6">
        <path
            d="M53.66 30.568v-2.18a8.342 8.342 0 0 0-3.34-6.675V18.37c0-4.604-3.745-8.35-8.35-8.35H40.3V5.01A5.015 5.015 0 0 0 35.292 0H15.029a5.015 5.015 0 0 0-5.01 5.01v5.01H6.68A6.687 6.687 0 0 0 0 16.7v31.95C0 53.254 3.746 57 8.35 57h36.96c4.605 0 8.35-3.746 8.35-8.35v-1.957A5.018 5.018 0 0 0 57 41.971v-6.68a5.018 5.018 0 0 0-3.34-4.723zM40.111 13.722h1.583c2.62 0 4.75 2.131 4.75 4.75v1.584h-6.333v-6.334zM26.39 3.167h8.834c.95 0 1.721.757 1.721 1.689v15.2H26.39V3.166zm-6.333 0h3.166v16.889h-3.166V3.166zm-6.334 1.689c0-.932.71-1.69 1.584-1.69h1.583v16.89h-3.167v-15.2zm-7.389 8.866H9.5v6.334H6.333a3.17 3.17 0 0 1-3.166-3.167 3.17 3.17 0 0 1 3.166-3.167zm44.334 35.023c0 2.806-2.273 5.088-5.065 5.088H8.232c-2.793 0-5.065-2.282-5.065-5.088V22.167a6.687 6.687 0 0 0 3.376.912h39.059c2.792 0 5.065 2.283 5.065 5.088v1.922h-5.065c-4.655 0-8.442 3.805-8.442 8.48 0 4.676 3.787 8.48 8.442 8.48h5.065v1.696zm3.166-7.05c0 .872-.77 1.583-1.715 1.583h-6.861c-2.837 0-5.146-2.131-5.146-4.75 0-2.62 2.309-4.75 5.146-4.75h6.861c.946 0 1.715.71 1.715 1.583v6.333z"
            id="path2"/>
        <circle
            cx="47.5"
            cy="38.5"
            r="1.5"
            id="circle4"/>
    </g>
    <path
        id="path3986"
        d="m 30.079731,45.012544 c -0.386334,0.632568 -0.849084,1.163244 -1.392497,1.587788 -0.543414,0.42454 -1.031634,0.636812 -1.464667,0.636812 -0.24199,0 -0.4203,-0.06368 -0.543416,-0.191043 -0.11887,-0.127365 -0.182551,-0.318407 -0.182551,-0.564642 0,-0.229253 0.305667,-1.069844 0.921254,-2.526022 l 1.592032,-3.727477 c 0.708985,-1.672694 1.0656,-2.73405 1.0656,-3.17982 0,-0.564638 -0.199535,-0.984935 -0.594357,-1.260887 -0.39907,-0.275952 -1.001919,-0.416052 -1.808548,-0.416052 -1.783079,0 -3.757195,1.078337 -5.926603,3.239253 l 1.927418,-5.204881 5.722823,-1.502878 -0.318408,-1.209943 -4.873736,1.282117 1.64722,-4.449199 h -0.450013 c -0.929746,0.318407 -2.347718,0.496713 -4.262401,0.534924 l -0.216517,0.624075 h 0.577379 c 0.636813,0 1.040127,0.05095 1.201452,0.148591 0.161327,0.09764 0.24199,0.263216 0.24199,0.488222 0,0.157079 -0.182554,0.721721 -0.543413,1.693923 l -0.585869,1.583539 -4.245416,1.1123 0.318404,1.209944 3.40058,-0.89154 -5.230354,14.14998 h 2.148182 l 1.371267,-3.668041 c 0.590117,-1.625995 1.069849,-2.806224 1.434953,-3.549172 0.369352,-0.742947 0.946727,-1.536839 1.744867,-2.385923 0.793892,-0.844837 1.558069,-1.451934 2.292525,-1.812793 0.734459,-0.36086 1.371272,-0.543413 1.914685,-0.543413 0.335388,0 0.585868,0.06368 0.751437,0.186797 0.161328,0.123117 0.246233,0.309916 0.246233,0.55615 0,0.40756 -0.356614,1.396742 -1.065599,2.971793 l -1.53684,3.430299 c -0.67502,1.515614 -1.010408,2.572722 -1.010408,3.162834 0,0.55615 0.199535,1.00192 0.594356,1.337309 0.399071,0.335385 0.874558,0.505202 1.42646,0.505202 0.759933,0 1.558069,-0.305671 2.402909,-0.921253 0.844836,-0.615587 1.570802,-1.426464 2.186389,-2.436873 z"
        inkscape:connector-curvature="0"
        style="fill:#ffffff;fill-opacity:1;stroke:none;stroke-width:0.04245417;stroke-opacity:1"/>
</svg>
