<?xml version="1.0" encoding="UTF-8" standalone="no"?>
<svg
   xmlns:dc="http://purl.org/dc/elements/1.1/"
   xmlns:cc="http://creativecommons.org/ns#"
   xmlns:rdf="http://www.w3.org/1999/02/22-rdf-syntax-ns#"
   xmlns:svg="http://www.w3.org/2000/svg"
   xmlns="http://www.w3.org/2000/svg"
   xmlns:sodipodi="http://sodipodi.sourceforge.net/DTD/sodipodi-0.dtd"
   xmlns:inkscape="http://www.inkscape.org/namespaces/inkscape"
   width="57"
   height="57"
   version="1.1"
   id="svg8"
   sodipodi:docname="wallet-hbar.svg"
   inkscape:version="0.92.4 5da689c313, 2019-01-14">
  <metadata
     id="metadata14">
    <rdf:RDF>
      <cc:Work
         rdf:about="">
        <dc:format>image/svg+xml</dc:format>
        <dc:type
           rdf:resource="http://purl.org/dc/dcmitype/StillImage" />
        <dc:title></dc:title>
      </cc:Work>
    </rdf:RDF>
  </metadata>
  <defs
     id="defs12" />
  <sodipodi:namedview
     pagecolor="#5a78f0"
     bordercolor="#666666"
     borderopacity="1"
     objecttolerance="10"
     gridtolerance="10"
     guidetolerance="10"
     inkscape:pageopacity="1"
     inkscape:pageshadow="2"
     inkscape:window-width="1276"
     inkscape:window-height="1377"
     id="namedview10"
     showgrid="false"
     inkscape:pagecheckerboard="true"
     inkscape:zoom="8"
     inkscape:cx="24.530905"
     inkscape:cy="20.977111"
     inkscape:window-x="0"
     inkscape:window-y="61"
     inkscape:window-maximized="0"
     inkscape:current-layer="svg8"
     showguides="true"
     inkscape:guide-bbox="true" />
  <g
     fill="#FFF"
     id="g6">
    <path
       d="M53.66 30.568v-2.18a8.342 8.342 0 0 0-3.34-6.675V18.37c0-4.604-3.745-8.35-8.35-8.35H40.3V5.01A5.015 5.015 0 0 0 35.292 0H15.029a5.015 5.015 0 0 0-5.01 5.01v5.01H6.68A6.687 6.687 0 0 0 0 16.7v31.95C0 53.254 3.746 57 8.35 57h36.96c4.605 0 8.35-3.746 8.35-8.35v-1.957A5.018 5.018 0 0 0 57 41.971v-6.68a5.018 5.018 0 0 0-3.34-4.723zM40.111 13.722h1.583c2.62 0 4.75 2.131 4.75 4.75v1.584h-6.333v-6.334zM26.39 3.167h8.834c.95 0 1.721.757 1.721 1.689v15.2H26.39V3.166zm-6.333 0h3.166v16.889h-3.166V3.166zm-6.334 1.689c0-.932.71-1.69 1.584-1.69h1.583v16.89h-3.167v-15.2zm-7.389 8.866H9.5v6.334H6.333a3.17 3.17 0 0 1-3.166-3.167 3.17 3.17 0 0 1 3.166-3.167zm44.334 35.023c0 2.806-2.273 5.088-5.065 5.088H8.232c-2.793 0-5.065-2.282-5.065-5.088V22.167a6.687 6.687 0 0 0 3.376.912h39.059c2.792 0 5.065 2.283 5.065 5.088v1.922h-5.065c-4.655 0-8.442 3.805-8.442 8.48 0 4.676 3.787 8.48 8.442 8.48h5.065v1.696zm3.166-7.05c0 .872-.77 1.583-1.715 1.583h-6.861c-2.837 0-5.146-2.131-5.146-4.75 0-2.62 2.309-4.75 5.146-4.75h6.861c.946 0 1.715.71 1.715 1.583v6.333z"
       id="path2" />
    <circle
       cx="47.5"
       cy="38.5"
       r="1.5"
       id="circle4" />
  </g>
  <text
     xml:space="preserve"
     style="font-style:normal;font-weight:normal;font-size:47.73677063px;line-height:1.25;font-family:sans-serif;letter-spacing:0px;word-spacing:0px;fill:#ffffff;fill-opacity:1;stroke:none;stroke-width:1.19341922"
     x="13.823978"
     y="48.67889"
     id="text967"><tspan
       sodipodi:role="line"
       id="tspan965"
       x="13.823978"
       y="48.67889"
       style="font-style:normal;font-variant:normal;font-weight:normal;font-stretch:normal;font-size:31.82451248px;font-family:'Nimbus Mono PS';-inkscape-font-specification:'Nimbus Mono PS';fill:#ffffff;fill-opacity:1;stroke-width:1.19341922">ℏ</tspan></text>
</svg>
